
<svg width="406px" height="116px" viewBox="0 0 406 116" version="1.1" xmlns="http://www.w3.org/2000/svg" xmlns:xlink="http://www.w3.org/1999/xlink">
    <g id="Page-1" stroke="none" stroke-width="1" fill="none" fill-rule="evenodd">
        <g id="EXCEPTIONARIES" transform="translate(-284.000000, -766.000000)">
            <path d="M308.381,820.624 L308.381,822 L288.214,822 L288.214,791.47 L307.994,791.47 L307.994,792.846 L289.676,792.846 L289.676,805.703 L305.715,805.703 L305.715,807.079 L289.676,807.079 L289.676,820.624 L308.381,820.624 Z M312.982,799.64 L320.636,809.358 L320.98,809.917 L321.324,809.358 L328.978,799.64 L330.698,799.64 L321.84,810.906 L330.612,822 L328.892,822 L321.324,812.368 L320.98,811.852 L320.636,812.368 L313.068,822 L311.348,822 L320.12,810.906 L311.262,799.64 L312.982,799.64 Z M333.364,810.734 C333.364,809.128659 333.636331,807.63084 334.181,806.2405 C334.725669,804.85016 335.485328,803.639005 336.46,802.607 C337.434672,801.574995 338.588493,800.76517 339.9215,800.1775 C341.254507,799.58983 342.694992,799.296 344.243,799.296 C346.192343,799.296 347.919492,799.747495 349.4245,800.6505 C350.929508,801.553505 352.068996,802.793325 352.843,804.37 L351.381,804.886 C350.692997,803.567327 349.69684,802.535337 348.3925,801.79 C347.08816,801.044663 345.662008,800.672 344.114,800.672 C342.823994,800.672 341.612839,800.929997 340.4805,801.446 C339.348161,801.962003 338.359171,802.671495 337.5135,803.5745 C336.667829,804.477505 336.008502,805.545327 335.5355,806.778 C335.062498,808.010673 334.826,809.329326 334.826,810.734 C334.826,812.138674 335.076831,813.464494 335.5785,814.7115 C336.080169,815.958506 336.753829,817.054995 337.5995,818.001 C338.445171,818.947005 339.434161,819.692331 340.5665,820.237 C341.698839,820.781669 342.89566,821.054 344.157,821.054 C344.988337,821.054 345.812496,820.932168 346.6295,820.6885 C347.446504,820.444832 348.198997,820.122335 348.887,819.721 C349.575003,819.319665 350.169831,818.853836 350.6715,818.3235 C351.173169,817.793164 351.509999,817.227003 351.682,816.625 L353.101,817.055 C352.842999,817.829004 352.427336,818.545663 351.854,819.205 C351.280664,819.864337 350.599837,820.430498 349.8115,820.9035 C349.023163,821.376502 348.156005,821.749165 347.21,822.0215 C346.263995,822.293835 345.289338,822.43 344.286,822.43 C342.766659,822.43 341.347673,822.121836 340.029,821.5055 C338.710327,820.889164 337.556505,820.050672 336.5675,818.99 C335.578495,817.929328 334.797336,816.689507 334.224,815.2705 C333.650664,813.851493 333.364,812.339341 333.364,810.734 Z M367.592,822.43 C366.072659,822.43 364.653673,822.121836 363.335,821.5055 C362.016327,820.889164 360.862505,820.043505 359.8735,818.9685 C358.884495,817.893495 358.110503,816.646507 357.5515,815.2275 C356.992497,813.808493 356.713,812.296341 356.713,810.691 C356.713,809.114325 356.985331,807.638007 357.53,806.262 C358.074669,804.885993 358.834328,803.682005 359.809,802.65 C360.783672,801.617995 361.915994,800.801003 363.206,800.199 C364.496006,799.596997 365.900659,799.296 367.42,799.296 C368.939341,799.296 370.358327,799.596997 371.677,800.199 C372.995673,800.801003 374.142328,801.625161 375.117,802.6715 C376.091672,803.717839 376.865664,804.943326 377.439,806.348 C378.012336,807.752674 378.299,809.243325 378.299,810.82 C378.299,810.877334 378.291833,810.991999 378.2775,811.164 C378.263167,811.336001 378.256,811.436333 378.256,811.465 L358.218,811.465 C358.304,812.841007 358.619331,814.123827 359.164,815.3135 C359.708669,816.503173 360.403829,817.527996 361.2495,818.388 C362.095171,819.248004 363.062661,819.928831 364.152,820.4305 C365.241339,820.932169 366.402327,821.183 367.635,821.183 C368.466337,821.183 369.276163,821.075501 370.0645,820.8605 C370.852837,820.645499 371.590997,820.337335 372.279,819.936 C372.967003,819.534665 373.568997,819.054503 374.085,818.4955 C374.601003,817.936497 375.016665,817.327337 375.332,816.668 L376.665,817.012 C376.349665,817.786004 375.883836,818.50983 375.2675,819.1835 C374.651164,819.85717 373.941671,820.430498 373.139,820.9035 C372.336329,821.376502 371.462005,821.749165 370.516,822.0215 C369.569995,822.293835 368.595338,822.43 367.592,822.43 Z M376.837,810.218 C376.751,808.813326 376.450003,807.523339 375.934,806.348 C375.417997,805.172661 374.737171,804.155004 373.8915,803.295 C373.045829,802.434996 372.078339,801.768502 370.989,801.2955 C369.899661,800.822498 368.72434,800.586 367.463,800.586 C366.20166,800.586 365.026339,800.829664 363.937,801.317 C362.847661,801.804336 361.887337,802.477996 361.056,803.338 C360.224663,804.198004 359.558169,805.215661 359.0565,806.391 C358.554831,807.566339 358.261,808.841993 358.175,810.218 L376.837,810.218 Z M393.607,822.43 C392.632328,822.43 391.707838,822.286668 390.8335,822 C389.959162,821.713332 389.14217,821.326336 388.3825,820.839 C387.62283,820.351664 386.92767,819.778337 386.297,819.119 C385.66633,818.459663 385.121669,817.757337 384.663,817.012 L384.663,831.159 L383.201,831.159 L383.201,799.64 L384.577,799.64 L384.577,804.284 C385.035669,803.56733 385.58033,802.900836 386.211,802.2845 C386.84167,801.668164 387.53683,801.137836 388.2965,800.6935 C389.05617,800.249164 389.844496,799.905168 390.6615,799.6615 C391.478504,799.417832 392.316996,799.296 393.177,799.296 C394.753675,799.296 396.201327,799.625663 397.52,800.285 C398.838673,800.944337 399.970995,801.818661 400.917,802.908 C401.863005,803.997339 402.601164,805.23716 403.1315,806.6275 C403.661836,808.01784 403.927,809.429659 403.927,810.863 C403.927,812.411008 403.676169,813.887326 403.1745,815.292 C402.672831,816.696674 401.970505,817.922161 401.0675,818.9685 C400.164495,820.014839 399.08234,820.85333 397.821,821.484 C396.55966,822.11467 395.155008,822.43 393.607,822.43 Z M393.392,821.054 C394.768007,821.054 396.014994,820.76017 397.133,820.1725 C398.251006,819.58483 399.196996,818.810838 399.971,817.8505 C400.745004,816.890162 401.346998,815.800839 401.777,814.5825 C402.207002,813.364161 402.422,812.12434 402.422,810.863 C402.422,809.544327 402.178336,808.268673 401.691,807.036 C401.203664,805.803327 400.537171,804.714005 399.6915,803.768 C398.845829,802.821995 397.849672,802.069503 396.703,801.5105 C395.556328,800.951497 394.323673,800.672 393.005,800.672 C392.173663,800.672 391.285005,800.851165 390.339,801.2095 C389.392995,801.567835 388.511504,802.04083 387.6945,802.6285 C386.877496,803.21617 386.189503,803.896996 385.6305,804.671 C385.071497,805.445004 384.749,806.261996 384.663,807.122 L384.663,814.819 C385.035669,815.679004 385.522997,816.48883 386.125,817.2485 C386.727003,818.00817 387.40783,818.667497 388.1675,819.2265 C388.92717,819.785503 389.751329,820.229832 390.64,820.5595 C391.528671,820.889168 392.445995,821.054 393.392,821.054 Z M418.676,820.968 C418.618666,820.996667 418.468168,821.075499 418.2245,821.2045 C417.980832,821.333501 417.665502,821.476833 417.2785,821.6345 C416.891498,821.792167 416.447169,821.928333 415.9455,822.043 C415.443831,822.157667 414.892003,822.215 414.29,822.215 C413.745331,822.215 413.222169,822.129001 412.7205,821.957 C412.218831,821.784999 411.781669,821.541335 411.409,821.226 C411.036331,820.910665 410.735334,820.523669 410.506,820.065 C410.276666,819.606331 410.162,819.090336 410.162,818.517 L410.162,800.93 L406.98,800.93 L406.98,799.64 L410.162,799.64 L410.162,791.943 L411.624,791.943 L411.624,799.64 L416.956,799.64 L416.956,800.93 L411.624,800.93 L411.624,818.302 C411.681334,819.133337 411.996664,819.763998 412.57,820.194 C413.143336,820.624002 413.802663,820.839 414.548,820.839 C415.006669,820.839 415.443831,820.788834 415.8595,820.6885 C416.275169,820.588166 416.647832,820.473501 416.9775,820.3445 C417.307168,820.215499 417.565166,820.093667 417.7515,819.979 C417.937834,819.864333 418.059666,819.792667 418.117,819.764 L418.676,820.968 Z M422.417,822 L422.417,799.64 L423.879,799.64 L423.879,822 L422.417,822 Z M422.417,794.222 L422.417,790.61 L423.879,790.61 L423.879,794.222 L422.417,794.222 Z M440.004,822.43 C438.484659,822.43 437.07284,822.121836 435.7685,821.5055 C434.46416,820.889164 433.324672,820.057839 432.35,819.0115 C431.375328,817.965161 430.615669,816.739674 430.071,815.335 C429.526331,813.930326 429.254,812.454008 429.254,810.906 C429.254,809.329325 429.533497,807.838674 430.0925,806.434 C430.651503,805.029326 431.418328,803.796672 432.393,802.736 C433.367672,801.675328 434.50716,800.836836 435.8115,800.2205 C437.11584,799.604164 438.513326,799.296 440.004,799.296 C441.494674,799.296 442.899327,799.604164 444.218,800.2205 C445.536673,800.836836 446.683328,801.675328 447.658,802.736 C448.632672,803.796672 449.399497,805.029326 449.9585,806.434 C450.517503,807.838674 450.797,809.329325 450.797,810.906 C450.797,812.454008 450.517503,813.930326 449.9585,815.335 C449.399497,816.739674 448.632672,817.965161 447.658,819.0115 C446.683328,820.057839 445.536673,820.889164 444.218,821.5055 C442.899327,822.121836 441.494674,822.43 440.004,822.43 Z M430.716,810.949 C430.716,812.325007 430.959664,813.629327 431.447,814.862 C431.934336,816.094673 432.593663,817.169662 433.425,818.087 C434.256337,819.004338 435.238161,819.728164 436.3705,820.2585 C437.502839,820.788836 438.69966,821.054 439.961,821.054 C441.22234,821.054 442.419161,820.781669 443.5515,820.237 C444.683839,819.692331 445.672829,818.961338 446.5185,818.044 C447.364171,817.126662 448.037831,816.044506 448.5395,814.7975 C449.041169,813.550494 449.292,812.239007 449.292,810.863 C449.292,809.486993 449.041169,808.175506 448.5395,806.9285 C448.037831,805.681494 447.364171,804.599338 446.5185,803.682 C445.672829,802.764662 444.691006,802.033669 443.573,801.489 C442.454994,800.944331 441.26534,800.672 440.004,800.672 C438.74266,800.672 437.553006,800.944331 436.435,801.489 C435.316994,802.033669 434.335171,802.771829 433.4895,803.7035 C432.643829,804.635171 431.970169,805.724494 431.4685,806.9715 C430.966831,808.218506 430.716,809.544326 430.716,810.949 Z M473.888,822 L472.426,822 L472.426,809.53 C472.426,806.462651 471.996004,804.219507 471.136,802.8005 C470.275996,801.381493 468.900009,800.672 467.008,800.672 C465.975995,800.672 464.965505,800.858331 463.9765,801.231 C462.987495,801.603669 462.070171,802.119663 461.2245,802.779 C460.378829,803.438337 459.633503,804.212329 458.9885,805.101 C458.343497,805.989671 457.877668,806.964328 457.591,808.025 L457.591,822 L456.129,822 L456.129,799.64 L457.505,799.64 L457.505,805.23 C457.963669,804.341329 458.544163,803.531504 459.2465,802.8005 C459.948837,802.069496 460.729996,801.446003 461.59,800.93 C462.450004,800.413997 463.360162,800.012668 464.3205,799.726 C465.280838,799.439332 466.262662,799.296 467.266,799.296 C469.616678,799.296 471.307995,800.134492 472.34,801.8115 C473.372005,803.488508 473.888,806.003983 473.888,809.358 L473.888,822 Z M485.971,822.43 C484.938995,822.43 483.978671,822.250835 483.09,821.8925 C482.201329,821.534165 481.427337,821.046836 480.768,820.4305 C480.108663,819.814164 479.592669,819.090337 479.22,818.259 C478.847331,817.427663 478.661,816.524672 478.661,815.55 C478.661,814.603995 478.890331,813.736837 479.349,812.9485 C479.807669,812.160163 480.445496,811.479336 481.2625,810.906 C482.079504,810.332664 483.054161,809.888335 484.1865,809.573 C485.318839,809.257665 486.572993,809.1 487.949,809.1 C489.181673,809.1 490.442994,809.200332 491.733,809.401 C493.023006,809.601668 494.169662,809.902665 495.173,810.304 L495.173,807.896 C495.173,805.659989 494.535173,803.875507 493.2595,802.5425 C491.983827,801.209493 490.271011,800.543 488.121,800.543 C487.031661,800.543 485.877839,800.779498 484.6595,801.2525 C483.441161,801.725502 482.20134,802.406329 480.94,803.295 L480.252,802.22 C483.147348,800.270657 485.798988,799.296 488.207,799.296 C490.81568,799.296 492.872492,800.069992 494.3775,801.618 C495.882508,803.166008 496.635,805.28732 496.635,807.982 L496.635,819.678 C496.635,820.30867 496.892997,820.624 497.409,820.624 L497.409,822 C497.323,822.028667 497.208334,822.043 497.065,822.043 C496.577664,822.043 496.154835,821.863835 495.7965,821.5055 C495.438165,821.147165 495.259,820.710003 495.259,820.194 L495.259,818.216 C494.255662,819.56334 492.929842,820.602496 491.2815,821.3335 C489.633158,822.064504 487.863009,822.43 485.971,822.43 Z M486.186,821.183 C487.992009,821.183 489.640326,820.84617 491.131,820.1725 C492.621674,819.49883 493.739663,818.588672 494.485,817.442 C494.943669,816.839997 495.173,816.266669 495.173,815.722 L495.173,811.508 C492.965656,810.647996 490.586346,810.218 488.035,810.218 C485.655655,810.218 483.742174,810.698162 482.2945,811.6585 C480.846826,812.618838 480.123,813.901659 480.123,815.507 C480.123,816.309671 480.280665,817.054997 480.596,817.743 C480.911335,818.431003 481.334164,819.032997 481.8645,819.549 C482.394836,820.065003 483.032663,820.466332 483.778,820.753 C484.523337,821.039668 485.325996,821.183 486.186,821.183 Z M503.644,790.61 L505.063,790.61 L505.063,818.173 C505.063,819.004337 505.320997,819.663664 505.837,820.151 C506.353003,820.638336 507.026663,820.882 507.858,820.882 C508.173335,820.882 508.553164,820.846167 508.9975,820.7745 C509.441836,820.702833 509.850331,820.595334 510.223,820.452 L510.567,821.656 C510.136998,821.799334 509.599503,821.928333 508.9545,822.043 C508.309497,822.157667 507.757669,822.215 507.299,822.215 C506.209661,822.215 505.32817,821.87817 504.6545,821.2045 C503.98083,820.53083 503.644,819.620672 503.644,818.474 L503.644,790.61 Z M525.187,822 L525.187,791.47 L537.915,791.47 C539.26234,791.47 540.502161,791.749497 541.6345,792.3085 C542.766839,792.867503 543.741496,793.612829 544.5585,794.5445 C545.375504,795.476171 546.013331,796.522494 546.472,797.6835 C546.930669,798.844506 547.16,800.026994 547.16,801.231 C547.16,802.49234 546.945002,803.710661 546.515,804.886 C546.084998,806.061339 545.475837,807.107662 544.6875,808.025 C543.899163,808.942338 542.953172,809.673331 541.8495,810.218 C540.745828,810.762669 539.52034,811.035 538.173,811.035 L529.057,811.035 L529.057,822 L525.187,822 Z M529.057,807.595 L537.958,807.595 C538.760671,807.595 539.484497,807.430168 540.1295,807.1005 C540.774503,806.770832 541.326331,806.31217 541.785,805.7245 C542.243669,805.13683 542.601999,804.456004 542.86,803.682 C543.118001,802.907996 543.247,802.091004 543.247,801.231 C543.247,800.342329 543.096502,799.511004 542.7955,798.737 C542.494498,797.962996 542.093169,797.289336 541.5915,796.716 C541.089831,796.142664 540.50217,795.698335 539.8285,795.383 C539.15483,795.067665 538.445337,794.91 537.7,794.91 L529.057,794.91 L529.057,807.595 Z M561.221,822.43 C559.529658,822.43 557.981674,822.121836 556.577,821.5055 C555.172326,820.889164 553.968338,820.050672 552.965,818.99 C551.961662,817.929328 551.180503,816.689507 550.6215,815.2705 C550.062497,813.851493 549.783,812.353675 549.783,810.777 C549.783,809.200325 550.062497,807.709674 550.6215,806.305 C551.180503,804.900326 551.968828,803.667672 552.9865,802.607 C554.004172,801.546328 555.215326,800.707836 556.62,800.0915 C558.024674,799.475164 559.572658,799.167 561.264,799.167 C562.955342,799.167 564.49616,799.48233 565.8865,800.113 C567.27684,800.74367 568.459328,801.582161 569.434,802.6285 C570.408672,803.674839 571.161164,804.89316 571.6915,806.2835 C572.221836,807.67384 572.487,809.114326 572.487,810.605 C572.487,810.920335 572.479833,811.206999 572.4655,811.465 C572.451167,811.723001 572.429667,811.923666 572.401,812.067 L553.782,812.067 C553.868,813.185006 554.125998,814.202662 554.556,815.12 C554.986002,816.037338 555.544997,816.825663 556.233,817.485 C556.921003,818.144337 557.702162,818.660331 558.5765,819.033 C559.450838,819.405669 560.375328,819.592 561.35,819.592 C562.038003,819.592 562.711663,819.498834 563.371,819.3125 C564.030337,819.126166 564.646664,818.875335 565.22,818.56 C565.793336,818.244665 566.302164,817.857669 566.7465,817.399 C567.190836,816.940331 567.527666,816.424336 567.757,815.851 L571.025,816.754 C570.652331,817.585337 570.143503,818.344997 569.4985,819.033 C568.853497,819.721003 568.108171,820.315831 567.2625,820.8175 C566.416829,821.319169 565.478005,821.713332 564.446,822 C563.413995,822.286668 562.339006,822.43 561.221,822.43 Z M568.918,809.272 C568.832,808.211328 568.566836,807.229505 568.1225,806.3265 C567.678164,805.423495 567.11917,804.65667 566.4455,804.026 C565.77183,803.39533 564.990671,802.900835 564.102,802.5425 C563.213329,802.184165 562.267338,802.005 561.264,802.005 C560.260662,802.005 559.314671,802.184165 558.426,802.5425 C557.537329,802.900835 556.75617,803.402497 556.0825,804.0475 C555.40883,804.692503 554.864169,805.459329 554.4485,806.348 C554.032831,807.236671 553.782,808.211328 553.696,809.272 L568.918,809.272 Z M586.505,822.43 C584.813658,822.43 583.27284,822.11467 581.8825,821.484 C580.49216,820.85333 579.302505,820.007672 578.3135,818.947 C577.324495,817.886328 576.557669,816.653674 576.013,815.249 C575.468331,813.844326 575.196,812.368008 575.196,810.82 C575.196,809.243325 575.475497,807.752674 576.0345,806.348 C576.593503,804.943326 577.367495,803.710672 578.3565,802.65 C579.345505,801.589328 580.53516,800.74367 581.9255,800.113 C583.31584,799.48233 584.842325,799.167 586.505,799.167 C588.167675,799.167 589.701326,799.48233 591.106,800.113 C592.510674,800.74367 593.707495,801.589328 594.6965,802.65 C595.685505,803.710672 596.459497,804.943326 597.0185,806.348 C597.577503,807.752674 597.857,809.243325 597.857,810.82 C597.857,812.368008 597.584669,813.844326 597.04,815.249 C596.495331,816.653674 595.721338,817.886328 594.718,818.947 C593.714662,820.007672 592.51784,820.85333 591.1275,821.484 C589.73716,822.11467 588.196342,822.43 586.505,822.43 Z M579.066,810.863 C579.066,812.038339 579.259498,813.127662 579.6465,814.131 C580.033502,815.134338 580.56383,816.008663 581.2375,816.754 C581.91117,817.499337 582.699495,818.086998 583.6025,818.517 C584.505505,818.947002 585.472995,819.162 586.505,819.162 C587.537005,819.162 588.504495,818.947002 589.4075,818.517 C590.310505,818.086998 591.105997,817.49217 591.794,816.7325 C592.482003,815.97283 593.019498,815.084172 593.4065,814.0665 C593.793502,813.048828 593.987,811.952339 593.987,810.777 C593.987,809.630328 593.793502,808.548172 593.4065,807.5305 C593.019498,806.512828 592.482003,805.62417 591.794,804.8645 C591.105997,804.10483 590.310505,803.510002 589.4075,803.08 C588.504495,802.649998 587.537005,802.435 586.505,802.435 C585.472995,802.435 584.505505,802.657164 583.6025,803.1015 C582.699495,803.545836 581.91117,804.14783 581.2375,804.9075 C580.56383,805.66717 580.033502,806.555828 579.6465,807.5735 C579.259498,808.591172 579.066,809.687661 579.066,810.863 Z M614.412,822.43 C612.548657,822.43 610.907507,821.971338 609.4885,821.054 C608.069493,820.136662 606.944337,818.975674 606.113,817.571 L606.113,831.159 L602.329,831.159 L602.329,799.554 L605.683,799.554 L605.683,803.768 C606.571671,802.391993 607.725493,801.281171 609.1445,800.4355 C610.563507,799.589829 612.132991,799.167 613.853,799.167 C615.401008,799.167 616.819994,799.48233 618.11,800.113 C619.400006,800.74367 620.517995,801.596495 621.464,802.6715 C622.410005,803.746505 623.148164,804.986326 623.6785,806.391 C624.208836,807.795674 624.474,809.257659 624.474,810.777 C624.474,812.382341 624.230336,813.894493 623.743,815.3135 C623.255664,816.732507 622.567671,817.965161 621.679,819.0115 C620.790329,820.057839 619.729673,820.889164 618.497,821.5055 C617.264327,822.121836 615.902674,822.43 614.412,822.43 Z M613.251,819.162 C614.369006,819.162 615.379495,818.925502 616.2825,818.4525 C617.185505,817.979498 617.959497,817.348837 618.6045,816.5605 C619.249503,815.772163 619.743998,814.876338 620.088,813.873 C620.432002,812.869662 620.604,811.837672 620.604,810.777 C620.604,809.658994 620.403335,808.591172 620.002,807.5735 C619.600665,806.555828 619.056003,805.66717 618.368,804.9075 C617.679997,804.14783 616.870171,803.545836 615.9385,803.1015 C615.006829,802.657164 613.996339,802.435 612.907,802.435 C612.218997,802.435 611.509504,802.571165 610.7785,802.8435 C610.047496,803.115835 609.359503,803.474164 608.7145,803.9185 C608.069497,804.362836 607.510502,804.893164 607.0375,805.5095 C606.564498,806.125836 606.256334,806.777997 606.113,807.466 L606.113,813.873 C606.428335,814.618337 606.829664,815.313497 607.317,815.9585 C607.804336,816.603503 608.36333,817.162498 608.994,817.6355 C609.62467,818.108502 610.29833,818.481165 611.015,818.7535 C611.73167,819.025835 612.476996,819.162 613.251,819.162 Z M629.075,790.61 L632.859,790.61 L632.859,816.195 C632.859,817.026337 633.081164,817.678498 633.5255,818.1515 C633.969836,818.624502 634.593329,818.861 635.396,818.861 C635.711335,818.861 636.083998,818.810834 636.514,818.7105 C636.944002,818.610166 637.345331,818.488334 637.718,818.345 L638.32,821.398 C637.68933,821.656001 636.944004,821.870999 636.084,822.043 C635.223996,822.215001 634.464337,822.301 633.805,822.301 C632.342993,822.301 631.189171,821.885337 630.3435,821.054 C629.497829,820.222663 629.075,819.061674 629.075,817.571 L629.075,790.61 Z M651.048,822.43 C649.356658,822.43 647.808674,822.121836 646.404,821.5055 C644.999326,820.889164 643.795338,820.050672 642.792,818.99 C641.788662,817.929328 641.007503,816.689507 640.4485,815.2705 C639.889497,813.851493 639.61,812.353675 639.61,810.777 C639.61,809.200325 639.889497,807.709674 640.4485,806.305 C641.007503,804.900326 641.795828,803.667672 642.8135,802.607 C643.831172,801.546328 645.042326,800.707836 646.447,800.0915 C647.851674,799.475164 649.399658,799.167 651.091,799.167 C652.782342,799.167 654.32316,799.48233 655.7135,800.113 C657.10384,800.74367 658.286328,801.582161 659.261,802.6285 C660.235672,803.674839 660.988164,804.89316 661.5185,806.2835 C662.048836,807.67384 662.314,809.114326 662.314,810.605 C662.314,810.920335 662.306833,811.206999 662.2925,811.465 C662.278167,811.723001 662.256667,811.923666 662.228,812.067 L643.609,812.067 C643.695,813.185006 643.952998,814.202662 644.383,815.12 C644.813002,816.037338 645.371997,816.825663 646.06,817.485 C646.748003,818.144337 647.529162,818.660331 648.4035,819.033 C649.277838,819.405669 650.202328,819.592 651.177,819.592 C651.865003,819.592 652.538663,819.498834 653.198,819.3125 C653.857337,819.126166 654.473664,818.875335 655.047,818.56 C655.620336,818.244665 656.129164,817.857669 656.5735,817.399 C657.017836,816.940331 657.354666,816.424336 657.584,815.851 L660.852,816.754 C660.479331,817.585337 659.970503,818.344997 659.3255,819.033 C658.680497,819.721003 657.935171,820.315831 657.0895,820.8175 C656.243829,821.319169 655.305005,821.713332 654.273,822 C653.240995,822.286668 652.166006,822.43 651.048,822.43 Z M658.745,809.272 C658.659,808.211328 658.393836,807.229505 657.9495,806.3265 C657.505164,805.423495 656.94617,804.65667 656.2725,804.026 C655.59883,803.39533 654.817671,802.900835 653.929,802.5425 C653.040329,802.184165 652.094338,802.005 651.091,802.005 C650.087662,802.005 649.141671,802.184165 648.253,802.5425 C647.364329,802.900835 646.58317,803.402497 645.9095,804.0475 C645.23583,804.692503 644.691169,805.459329 644.2755,806.348 C643.859831,807.236671 643.609,808.211328 643.523,809.272 L658.745,809.272 Z M308.381,870.624 L308.381,872 L288.214,872 L288.214,841.47 L307.994,841.47 L307.994,842.846 L289.676,842.846 L289.676,855.703 L305.715,855.703 L305.715,857.079 L289.676,857.079 L289.676,870.624 L308.381,870.624 Z M312.982,849.64 L320.636,859.358 L320.98,859.917 L321.324,859.358 L328.978,849.64 L330.698,849.64 L321.84,860.906 L330.612,872 L328.892,872 L321.324,862.368 L320.98,861.852 L320.636,862.368 L313.068,872 L311.348,872 L320.12,860.906 L311.262,849.64 L312.982,849.64 Z M344.286,870.968 C344.228666,870.996667 344.078168,871.075499 343.8345,871.2045 C343.590832,871.333501 343.275502,871.476833 342.8885,871.6345 C342.501498,871.792167 342.057169,871.928333 341.5555,872.043 C341.053831,872.157667 340.502003,872.215 339.9,872.215 C339.355331,872.215 338.832169,872.129001 338.3305,871.957 C337.828831,871.784999 337.391669,871.541335 337.019,871.226 C336.646331,870.910665 336.345334,870.523669 336.116,870.065 C335.886666,869.606331 335.772,869.090336 335.772,868.517 L335.772,850.93 L332.59,850.93 L332.59,849.64 L335.772,849.64 L335.772,841.943 L337.234,841.943 L337.234,849.64 L342.566,849.64 L342.566,850.93 L337.234,850.93 L337.234,868.302 C337.291334,869.133337 337.606664,869.763998 338.18,870.194 C338.753336,870.624002 339.412663,870.839 340.158,870.839 C340.616669,870.839 341.053831,870.788834 341.4695,870.6885 C341.885169,870.588166 342.257832,870.473501 342.5875,870.3445 C342.917168,870.215499 343.175166,870.093667 343.3615,869.979 C343.547834,869.864333 343.669666,869.792667 343.727,869.764 L344.286,870.968 Z M358.046,851.016 C355.98199,851.102 354.190341,851.754161 352.671,852.9725 C351.151659,854.190839 350.091003,855.846323 349.489,857.939 L349.489,872 L348.027,872 L348.027,849.64 L349.446,849.64 L349.446,855.316 C350.220004,853.739325 351.251994,852.449338 352.542,851.446 C353.832006,850.442662 355.207993,849.855001 356.67,849.683 C356.956668,849.683 357.214666,849.675833 357.444,849.6615 C357.673334,849.647167 357.873999,849.64 358.046,849.64 L358.046,851.016 Z M367.764,872.43 C366.731995,872.43 365.771671,872.250835 364.883,871.8925 C363.994329,871.534165 363.220337,871.046836 362.561,870.4305 C361.901663,869.814164 361.385669,869.090337 361.013,868.259 C360.640331,867.427663 360.454,866.524672 360.454,865.55 C360.454,864.603995 360.683331,863.736837 361.142,862.9485 C361.600669,862.160163 362.238496,861.479336 363.0555,860.906 C363.872504,860.332664 364.847161,859.888335 365.9795,859.573 C367.111839,859.257665 368.365993,859.1 369.742,859.1 C370.974673,859.1 372.235994,859.200332 373.526,859.401 C374.816006,859.601668 375.962662,859.902665 376.966,860.304 L376.966,857.896 C376.966,855.659989 376.328173,853.875507 375.0525,852.5425 C373.776827,851.209493 372.064011,850.543 369.914,850.543 C368.824661,850.543 367.670839,850.779498 366.4525,851.2525 C365.234161,851.725502 363.99434,852.406329 362.733,853.295 L362.045,852.22 C364.940348,850.270657 367.591988,849.296 370,849.296 C372.60868,849.296 374.665492,850.069992 376.1705,851.618 C377.675508,853.166008 378.428,855.28732 378.428,857.982 L378.428,869.678 C378.428,870.30867 378.685997,870.624 379.202,870.624 L379.202,872 C379.116,872.028667 379.001334,872.043 378.858,872.043 C378.370664,872.043 377.947835,871.863835 377.5895,871.5055 C377.231165,871.147165 377.052,870.710003 377.052,870.194 L377.052,868.216 C376.048662,869.56334 374.722842,870.602496 373.0745,871.3335 C371.426158,872.064504 369.656009,872.43 367.764,872.43 Z M367.979,871.183 C369.785009,871.183 371.433326,870.84617 372.924,870.1725 C374.414674,869.49883 375.532663,868.588672 376.278,867.442 C376.736669,866.839997 376.966,866.266669 376.966,865.722 L376.966,861.508 C374.758656,860.647996 372.379346,860.218 369.828,860.218 C367.448655,860.218 365.535174,860.698162 364.0875,861.6585 C362.639826,862.618838 361.916,863.901659 361.916,865.507 C361.916,866.309671 362.073665,867.054997 362.389,867.743 C362.704335,868.431003 363.127164,869.032997 363.6575,869.549 C364.187836,870.065003 364.825663,870.466332 365.571,870.753 C366.316337,871.039668 367.118996,871.183 367.979,871.183 Z M394.467,872.43 C392.947659,872.43 391.53584,872.121836 390.2315,871.5055 C388.92716,870.889164 387.787672,870.057839 386.813,869.0115 C385.838328,867.965161 385.078669,866.739674 384.534,865.335 C383.989331,863.930326 383.717,862.454008 383.717,860.906 C383.717,859.329325 383.996497,857.838674 384.5555,856.434 C385.114503,855.029326 385.881328,853.796672 386.856,852.736 C387.830672,851.675328 388.97016,850.836836 390.2745,850.2205 C391.57884,849.604164 392.976326,849.296 394.467,849.296 C395.957674,849.296 397.362327,849.604164 398.681,850.2205 C399.999673,850.836836 401.146328,851.675328 402.121,852.736 C403.095672,853.796672 403.862497,855.029326 404.4215,856.434 C404.980503,857.838674 405.26,859.329325 405.26,860.906 C405.26,862.454008 404.980503,863.930326 404.4215,865.335 C403.862497,866.739674 403.095672,867.965161 402.121,869.0115 C401.146328,870.057839 399.999673,870.889164 398.681,871.5055 C397.362327,872.121836 395.957674,872.43 394.467,872.43 Z M385.179,860.949 C385.179,862.325007 385.422664,863.629327 385.91,864.862 C386.397336,866.094673 387.056663,867.169662 387.888,868.087 C388.719337,869.004338 389.701161,869.728164 390.8335,870.2585 C391.965839,870.788836 393.16266,871.054 394.424,871.054 C395.68534,871.054 396.882161,870.781669 398.0145,870.237 C399.146839,869.692331 400.135829,868.961338 400.9815,868.044 C401.827171,867.126662 402.500831,866.044506 403.0025,864.7975 C403.504169,863.550494 403.755,862.239007 403.755,860.863 C403.755,859.486993 403.504169,858.175506 403.0025,856.9285 C402.500831,855.681494 401.827171,854.599338 400.9815,853.682 C400.135829,852.764662 399.154006,852.033669 398.036,851.489 C396.917994,850.944331 395.72834,850.672 394.467,850.672 C393.20566,850.672 392.016006,850.944331 390.898,851.489 C389.779994,852.033669 388.798171,852.771829 387.9525,853.7035 C387.106829,854.635171 386.433169,855.724494 385.9315,856.9715 C385.429831,858.218506 385.179,859.544326 385.179,860.949 Z M420.611,851.016 C418.54699,851.102 416.755341,851.754161 415.236,852.9725 C413.716659,854.190839 412.656003,855.846323 412.054,857.939 L412.054,872 L410.592,872 L410.592,849.64 L412.011,849.64 L412.011,855.316 C412.785004,853.739325 413.816994,852.449338 415.107,851.446 C416.397006,850.442662 417.772993,849.855001 419.235,849.683 C419.521668,849.683 419.779666,849.675833 420.009,849.6615 C420.238334,849.647167 420.438999,849.64 420.611,849.64 L420.611,851.016 Z M434.156,872.43 C432.607992,872.43 431.174673,872.100337 429.856,871.441 C428.537327,870.781663 427.397838,869.914505 426.4375,868.8395 C425.477162,867.764495 424.731836,866.539007 424.2015,865.163 C423.671164,863.786993 423.406,862.368007 423.406,860.906 C423.406,859.357992 423.663997,857.881674 424.18,856.477 C424.696003,855.072326 425.412662,853.839672 426.33,852.779 C427.247338,851.718328 428.33666,850.87267 429.598,850.242 C430.85934,849.61133 432.235326,849.296 433.726,849.296 C434.729338,849.296 435.675329,849.439332 436.564,849.726 C437.452671,850.012668 438.269663,850.406831 439.015,850.9085 C439.760337,851.410169 440.441164,851.990663 441.0575,852.65 C441.673836,853.309337 442.211331,853.99733 442.67,854.714 L442.67,840.61 L444.132,840.61 L444.132,869.678 C444.132,870.30867 444.389997,870.624 444.906,870.624 L444.906,872 C444.82,872.028667 444.691001,872.043 444.519,872.043 C444.031664,872.043 443.616002,871.849502 443.272,871.4625 C442.927998,871.075498 442.756,870.652669 442.756,870.194 L442.756,867.442 C442.297331,868.187337 441.745503,868.868164 441.1005,869.4845 C440.455497,870.100836 439.760337,870.623998 439.015,871.054 C438.269663,871.484002 437.481337,871.820832 436.65,872.0645 C435.818663,872.308168 434.987337,872.43 434.156,872.43 Z M434.328,871.054 C435.159337,871.054 436.047995,870.882002 436.994,870.538 C437.940005,870.193998 438.821496,869.72817 439.6385,869.1405 C440.455504,868.55283 441.143497,867.864837 441.7025,867.0765 C442.261503,866.288163 442.584,865.464004 442.67,864.604 L442.67,856.907 C442.354665,856.046996 441.88167,855.23717 441.251,854.4775 C440.62033,853.71783 439.910837,853.058503 439.1225,852.4995 C438.334163,851.940497 437.488505,851.496168 436.5855,851.1665 C435.682495,850.836832 434.801004,850.672 433.941,850.672 C432.564993,850.672 431.318006,850.96583 430.2,851.5535 C429.081994,852.14117 428.128837,852.915162 427.3405,853.8755 C426.552163,854.835838 425.943002,855.925161 425.513,857.1435 C425.082998,858.361839 424.868,859.615994 424.868,860.906 C424.868,862.25334 425.111664,863.536161 425.599,864.7545 C426.086336,865.972839 426.759996,867.047829 427.62,867.9795 C428.480004,868.911171 429.483328,869.656497 430.63,870.2155 C431.776672,870.774503 433.009327,871.054 434.328,871.054 Z M451.141,872 L451.141,849.64 L452.603,849.64 L452.603,872 L451.141,872 Z M451.141,844.222 L451.141,840.61 L452.603,840.61 L452.603,844.222 L451.141,844.222 Z M477.242,872 L475.78,872 L475.78,859.53 C475.78,856.462651 475.350004,854.219507 474.49,852.8005 C473.629996,851.381493 472.254009,850.672 470.362,850.672 C469.329995,850.672 468.319505,850.858331 467.3305,851.231 C466.341495,851.603669 465.424171,852.119663 464.5785,852.779 C463.732829,853.438337 462.987503,854.212329 462.3425,855.101 C461.697497,855.989671 461.231668,856.964328 460.945,858.025 L460.945,872 L459.483,872 L459.483,849.64 L460.859,849.64 L460.859,855.23 C461.317669,854.341329 461.898163,853.531504 462.6005,852.8005 C463.302837,852.069496 464.083996,851.446003 464.944,850.93 C465.804004,850.413997 466.714162,850.012668 467.6745,849.726 C468.634838,849.439332 469.616662,849.296 470.62,849.296 C472.970678,849.296 474.661995,850.134492 475.694,851.8115 C476.726005,853.488508 477.242,856.003983 477.242,859.358 L477.242,872 Z M489.325,872.43 C488.292995,872.43 487.332671,872.250835 486.444,871.8925 C485.555329,871.534165 484.781337,871.046836 484.122,870.4305 C483.462663,869.814164 482.946669,869.090337 482.574,868.259 C482.201331,867.427663 482.015,866.524672 482.015,865.55 C482.015,864.603995 482.244331,863.736837 482.703,862.9485 C483.161669,862.160163 483.799496,861.479336 484.6165,860.906 C485.433504,860.332664 486.408161,859.888335 487.5405,859.573 C488.672839,859.257665 489.926993,859.1 491.303,859.1 C492.535673,859.1 493.796994,859.200332 495.087,859.401 C496.377006,859.601668 497.523662,859.902665 498.527,860.304 L498.527,857.896 C498.527,855.659989 497.889173,853.875507 496.6135,852.5425 C495.337827,851.209493 493.625011,850.543 491.475,850.543 C490.385661,850.543 489.231839,850.779498 488.0135,851.2525 C486.795161,851.725502 485.55534,852.406329 484.294,853.295 L483.606,852.22 C486.501348,850.270657 489.152988,849.296 491.561,849.296 C494.16968,849.296 496.226492,850.069992 497.7315,851.618 C499.236508,853.166008 499.989,855.28732 499.989,857.982 L499.989,869.678 C499.989,870.30867 500.246997,870.624 500.763,870.624 L500.763,872 C500.677,872.028667 500.562334,872.043 500.419,872.043 C499.931664,872.043 499.508835,871.863835 499.1505,871.5055 C498.792165,871.147165 498.613,870.710003 498.613,870.194 L498.613,868.216 C497.609662,869.56334 496.283842,870.602496 494.6355,871.3335 C492.987158,872.064504 491.217009,872.43 489.325,872.43 Z M489.54,871.183 C491.346009,871.183 492.994326,870.84617 494.485,870.1725 C495.975674,869.49883 497.093663,868.588672 497.839,867.442 C498.297669,866.839997 498.527,866.266669 498.527,865.722 L498.527,861.508 C496.319656,860.647996 493.940346,860.218 491.389,860.218 C489.009655,860.218 487.096174,860.698162 485.6485,861.6585 C484.200826,862.618838 483.477,863.901659 483.477,865.507 C483.477,866.309671 483.634665,867.054997 483.95,867.743 C484.265335,868.431003 484.688164,869.032997 485.2185,869.549 C485.748836,870.065003 486.386663,870.466332 487.132,870.753 C487.877337,871.039668 488.679996,871.183 489.54,871.183 Z M516.802,851.016 C514.73799,851.102 512.946341,851.754161 511.427,852.9725 C509.907659,854.190839 508.847003,855.846323 508.245,857.939 L508.245,872 L506.783,872 L506.783,849.64 L508.202,849.64 L508.202,855.316 C508.976004,853.739325 510.007994,852.449338 511.298,851.446 C512.588006,850.442662 513.963993,849.855001 515.426,849.683 C515.712668,849.683 515.970666,849.675833 516.2,849.6615 C516.429334,849.647167 516.629999,849.64 516.802,849.64 L516.802,851.016 Z M522.865,880.213 C523.381003,880.213 523.832498,880.184334 524.2195,880.127 C524.606502,880.069666 524.871666,879.983667 525.015,879.869 C525.101,879.811666 525.208499,879.668334 525.3375,879.439 C525.466501,879.209666 525.667165,878.815503 525.9395,878.2565 C526.211835,877.697497 526.562998,876.916338 526.993,875.913 L528.67,872 L518.479,849.64 L520.07,849.64 L529.444,870.452 L538.302,849.64 L539.764,849.64 L526.95,879.568 C526.605998,880.370671 526.168836,880.900999 525.6385,881.159 C525.108164,881.417001 524.470337,881.546 523.725,881.546 L522.865,881.546 L522.865,880.213 Z M573.992,847.877 C573.647998,847.475665 573.189336,847.088669 572.616,846.716 C572.042664,846.343331 571.39767,846.006502 570.681,845.7055 C569.96433,845.404498 569.183171,845.160834 568.3375,844.9745 C567.491829,844.788166 566.610338,844.695 565.693,844.695 C563.313655,844.695 561.572172,845.139329 560.4685,846.028 C559.364828,846.916671 558.813,848.134992 558.813,849.683 C558.813,850.514337 558.970665,851.202331 559.286,851.747 C559.601335,852.291669 560.09583,852.757498 560.7695,853.1445 C561.44317,853.531502 562.281662,853.868332 563.285,854.155 C564.288338,854.441668 565.477993,854.742665 566.854,855.058 C568.430675,855.402002 569.856827,855.796164 571.1325,856.2405 C572.408173,856.684836 573.497495,857.236663 574.4005,857.896 C575.303505,858.555337 575.991498,859.357995 576.4645,860.304 C576.937502,861.250005 577.174,862.410993 577.174,863.787 C577.174,865.249007 576.887336,866.517495 576.314,867.5925 C575.740664,868.667505 574.959505,869.556163 573.9705,870.2585 C572.981495,870.960837 571.81334,871.476832 570.466,871.8065 C569.11866,872.136168 567.656675,872.301 566.08,872.301 C563.729322,872.301 561.500511,871.935504 559.3935,871.2045 C557.286489,870.473496 555.373009,869.405674 553.653,868.001 L555.502,864.733 C555.960669,865.220336 556.555496,865.707664 557.2865,866.195 C558.017504,866.682336 558.848829,867.119498 559.7805,867.5065 C560.712171,867.893502 561.715495,868.208832 562.7905,868.4525 C563.865505,868.696168 564.990661,868.818 566.166,868.818 C568.344678,868.818 570.035994,868.431004 571.24,867.657 C572.444006,866.882996 573.046,865.722008 573.046,864.174 C573.046,863.313996 572.852502,862.59017 572.4655,862.0025 C572.078498,861.41483 571.512337,860.906002 570.767,860.476 C570.021663,860.045998 569.097172,859.666168 567.9935,859.3365 C566.889828,859.006832 565.635674,858.670002 564.231,858.326 C562.682992,857.953331 561.321339,857.552002 560.146,857.122 C558.970661,856.691998 557.988837,856.176003 557.2005,855.574 C556.412163,854.971997 555.817335,854.241004 555.416,853.381 C555.014665,852.520996 554.814,851.489006 554.814,850.285 C554.814,848.822993 555.086331,847.533006 555.631,846.415 C556.175669,845.296994 556.935328,844.351004 557.91,843.577 C558.884672,842.802996 560.04566,842.222502 561.393,841.8355 C562.74034,841.448498 564.202325,841.255 565.779,841.255 C567.84301,841.255 569.706325,841.57033 571.369,842.201 C573.031675,842.83167 574.507994,843.677328 575.798,844.738 L573.992,847.877 Z M593.299,870.882 C593.069666,870.996667 592.768669,871.132833 592.396,871.2905 C592.023331,871.448167 591.600502,871.605833 591.1275,871.7635 C590.654498,871.921167 590.138503,872.050166 589.5795,872.1505 C589.020497,872.250834 588.440003,872.301 587.838,872.301 C586.461993,872.301 585.272338,871.92117 584.269,871.1615 C583.265662,870.40183 582.764,869.219341 582.764,867.614 L582.764,852.521 L579.711,852.521 L579.711,849.554 L582.764,849.554 L582.764,842.072 L586.548,842.072 L586.548,849.554 L591.579,849.554 L591.579,852.521 L586.548,852.521 L586.548,866.453 C586.605334,867.284337 586.877664,867.886331 587.365,868.259 C587.852336,868.631669 588.425663,868.818 589.085,868.818 C589.830337,868.818 590.511164,868.696168 591.1275,868.4525 C591.743836,868.208832 592.166666,868.015334 592.396,867.872 L593.299,870.882 Z M606.457,872.43 C604.765658,872.43 603.22484,872.11467 601.8345,871.484 C600.44416,870.85333 599.254505,870.007672 598.2655,868.947 C597.276495,867.886328 596.509669,866.653674 595.965,865.249 C595.420331,863.844326 595.148,862.368008 595.148,860.82 C595.148,859.243325 595.427497,857.752674 595.9865,856.348 C596.545503,854.943326 597.319495,853.710672 598.3085,852.65 C599.297505,851.589328 600.48716,850.74367 601.8775,850.113 C603.26784,849.48233 604.794325,849.167 606.457,849.167 C608.119675,849.167 609.653326,849.48233 611.058,850.113 C612.462674,850.74367 613.659495,851.589328 614.6485,852.65 C615.637505,853.710672 616.411497,854.943326 616.9705,856.348 C617.529503,857.752674 617.809,859.243325 617.809,860.82 C617.809,862.368008 617.536669,863.844326 616.992,865.249 C616.447331,866.653674 615.673338,867.886328 614.67,868.947 C613.666662,870.007672 612.46984,870.85333 611.0795,871.484 C609.68916,872.11467 608.148342,872.43 606.457,872.43 Z M599.018,860.863 C599.018,862.038339 599.211498,863.127662 599.5985,864.131 C599.985502,865.134338 600.51583,866.008663 601.1895,866.754 C601.86317,867.499337 602.651495,868.086998 603.5545,868.517 C604.457505,868.947002 605.424995,869.162 606.457,869.162 C607.489005,869.162 608.456495,868.947002 609.3595,868.517 C610.262505,868.086998 611.057997,867.49217 611.746,866.7325 C612.434003,865.97283 612.971498,865.084172 613.3585,864.0665 C613.745502,863.048828 613.939,861.952339 613.939,860.777 C613.939,859.630328 613.745502,858.548172 613.3585,857.5305 C612.971498,856.512828 612.434003,855.62417 611.746,854.8645 C611.057997,854.10483 610.262505,853.510002 609.3595,853.08 C608.456495,852.649998 607.489005,852.435 606.457,852.435 C605.424995,852.435 604.457505,852.657164 603.5545,853.1015 C602.651495,853.545836 601.86317,854.14783 601.1895,854.9075 C600.51583,855.66717 599.985502,856.555828 599.5985,857.5735 C599.211498,858.591172 599.018,859.687661 599.018,860.863 Z M634.149,852.865 C632.256991,852.922334 630.587174,853.409662 629.1395,854.327 C627.691826,855.244338 626.667003,856.519992 626.065,858.154 L626.065,872 L622.281,872 L622.281,849.554 L625.807,849.554 L625.807,854.757 C626.581004,853.208992 627.59866,851.926172 628.86,850.9085 C630.12134,849.890828 631.468659,849.382 632.902,849.382 L633.633,849.382 C633.833668,849.382 634.005666,849.396333 634.149,849.425 L634.149,852.865 Z M637.847,872 L637.847,849.554 L641.631,849.554 L641.631,872 L637.847,872 Z M637.847,845.34 L637.847,840.61 L641.631,840.61 L641.631,845.34 L637.847,845.34 Z M657.584,872.43 C655.892658,872.43 654.344674,872.121836 652.94,871.5055 C651.535326,870.889164 650.331338,870.050672 649.328,868.99 C648.324662,867.929328 647.543503,866.689507 646.9845,865.2705 C646.425497,863.851493 646.146,862.353675 646.146,860.777 C646.146,859.200325 646.425497,857.709674 646.9845,856.305 C647.543503,854.900326 648.331828,853.667672 649.3495,852.607 C650.367172,851.546328 651.578326,850.707836 652.983,850.0915 C654.387674,849.475164 655.935658,849.167 657.627,849.167 C659.318342,849.167 660.85916,849.48233 662.2495,850.113 C663.63984,850.74367 664.822328,851.582161 665.797,852.6285 C666.771672,853.674839 667.524164,854.89316 668.0545,856.2835 C668.584836,857.67384 668.85,859.114326 668.85,860.605 C668.85,860.920335 668.842833,861.206999 668.8285,861.465 C668.814167,861.723001 668.792667,861.923666 668.764,862.067 L650.145,862.067 C650.231,863.185006 650.488998,864.202662 650.919,865.12 C651.349002,866.037338 651.907997,866.825663 652.596,867.485 C653.284003,868.144337 654.065162,868.660331 654.9395,869.033 C655.813838,869.405669 656.738328,869.592 657.713,869.592 C658.401003,869.592 659.074663,869.498834 659.734,869.3125 C660.393337,869.126166 661.009664,868.875335 661.583,868.56 C662.156336,868.244665 662.665164,867.857669 663.1095,867.399 C663.553836,866.940331 663.890666,866.424336 664.12,865.851 L667.388,866.754 C667.015331,867.585337 666.506503,868.344997 665.8615,869.033 C665.216497,869.721003 664.471171,870.315831 663.6255,870.8175 C662.779829,871.319169 661.841005,871.713332 660.809,872 C659.776995,872.286668 658.702006,872.43 657.584,872.43 Z M665.281,859.272 C665.195,858.211328 664.929836,857.229505 664.4855,856.3265 C664.041164,855.423495 663.48217,854.65667 662.8085,854.026 C662.13483,853.39533 661.353671,852.900835 660.465,852.5425 C659.576329,852.184165 658.630338,852.005 657.627,852.005 C656.623662,852.005 655.677671,852.184165 654.789,852.5425 C653.900329,852.900835 653.11917,853.402497 652.4455,854.0475 C651.77183,854.692503 651.227169,855.459329 650.8115,856.348 C650.395831,857.236671 650.145,858.211328 650.059,859.272 L665.281,859.272 Z M680.933,872.43 C679.126991,872.43 677.349675,872.150503 675.601,871.5915 C673.852325,871.032497 672.34734,870.222672 671.086,869.162 L672.72,866.625 C674.038673,867.628338 675.357327,868.380831 676.676,868.8825 C677.994673,869.384169 679.384993,869.635 680.847,869.635 C682.481008,869.635 683.778162,869.312503 684.7385,868.6675 C685.698838,868.022497 686.179,867.112339 686.179,865.937 C686.179,865.392331 686.050001,864.926502 685.792,864.5395 C685.533999,864.152498 685.147003,863.815668 684.631,863.529 C684.114997,863.242332 683.455671,862.984334 682.653,862.755 C681.850329,862.525666 680.918672,862.282001 679.858,862.024 C678.51066,861.679998 677.349672,861.350335 676.375,861.035 C675.400328,860.719665 674.59767,860.347002 673.967,859.917 C673.33633,859.486998 672.877668,858.971003 672.591,858.369 C672.304332,857.766997 672.161,857.021671 672.161,856.133 C672.161,855.014994 672.383164,854.018838 672.8275,853.1445 C673.271836,852.270162 673.880996,851.53917 674.655,850.9515 C675.429004,850.36383 676.339161,849.919502 677.3855,849.6185 C678.431839,849.317498 679.556994,849.167 680.761,849.167 C682.452342,849.167 684.028993,849.439331 685.491,849.984 C686.953007,850.528669 688.185662,851.245329 689.189,852.134 L687.469,854.413 C686.522995,853.581663 685.462339,852.958169 684.287,852.5425 C683.111661,852.126831 681.907673,851.919 680.675,851.919 C679.298993,851.919 678.130838,852.21283 677.1705,852.8005 C676.210162,853.38817 675.73,854.326994 675.73,855.617 C675.73,856.133003 675.823166,856.562998 676.0095,856.907 C676.195834,857.251002 676.503998,857.551999 676.934,857.81 C677.364002,858.068001 677.91583,858.297332 678.5895,858.498 C679.26317,858.698668 680.072995,858.913666 681.019,859.143 C682.509674,859.487002 683.806828,859.838165 684.9105,860.1965 C686.014172,860.554835 686.931496,860.977664 687.6625,861.465 C688.393504,861.952336 688.938165,862.525663 689.2965,863.185 C689.654835,863.844337 689.834,864.646995 689.834,865.593 C689.834,867.685677 689.031341,869.348327 687.426,870.581 C685.820659,871.813673 683.656347,872.43 680.933,872.43 Z" id="Exceptional-People-E" fill="#FFFFFF"></path>
            <path d="M293.568,767.92 L289.648,767.92 L289.648,778 L288.208,778 L288.208,767.92 L284.288,767.92 L284.288,766.64 L293.568,766.64 L293.568,767.92 Z M297.216,778.16 C296.799998,778.16 296.416002,778.093334 296.064,777.96 C295.711998,777.826666 295.408001,777.645334 295.152,777.416 C294.895999,777.186666 294.696001,776.914668 294.552,776.6 C294.407999,776.285332 294.336,775.952002 294.336,775.6 C294.336,775.205331 294.421332,774.845335 294.592,774.52 C294.762668,774.194665 295.005332,773.917334 295.32,773.688 C295.634668,773.458666 296.007998,773.282667 296.44,773.16 C296.872002,773.037333 297.343997,772.976 297.856,772.976 C298.261335,772.976 298.671998,773.013333 299.088,773.088 C299.504002,773.162667 299.871998,773.263999 300.192,773.392 L300.192,772.72 C300.192,772.03733 300.000002,771.501335 299.616,771.112 C299.231998,770.722665 298.688004,770.528 297.984,770.528 C297.141329,770.528 296.256005,770.85333 295.328,771.504 L294.864,770.592 C295.408003,770.229332 295.946664,769.957334 296.48,769.776 C297.013336,769.594666 297.567997,769.504 298.144,769.504 C299.210672,769.504 300.05333,769.79733 300.672,770.384 C301.29067,770.97067 301.6,771.797328 301.6,772.864 L301.6,776.272 C301.6,776.602668 301.749332,776.773333 302.048,776.784 L302.048,778 C301.941333,778.021333 301.84,778.037333 301.744,778.048 C301.648,778.058667 301.557334,778.064 301.472,778.064 C301.237332,778.064 301.008001,778.000001 300.784,777.872 C300.559999,777.743999 300.437333,777.525335 300.416,777.216 L300.384,776.624 C300.191999,776.880001 299.973335,777.103999 299.728,777.296 C299.482665,777.488001 299.221335,777.647999 298.944,777.776 C298.666665,777.904001 298.381335,778 298.088,778.064 C297.794665,778.128 297.504001,778.16 297.216,778.16 Z M297.568,777.104 C298.016002,777.104 298.453331,777.008001 298.88,776.816 C299.306669,776.623999 299.642665,776.389335 299.888,776.112 C300.090668,775.877332 300.192,775.658668 300.192,775.456 L300.192,774.224 C299.861332,774.095999 299.512002,773.997334 299.144,773.928 C298.775998,773.858666 298.421335,773.824 298.08,773.824 C297.354663,773.824 296.773336,773.970665 296.336,774.264 C295.898664,774.557335 295.68,774.959997 295.68,775.472 C295.68,775.685334 295.722666,775.890666 295.808,776.088 C295.893334,776.285334 296.015999,776.458666 296.176,776.608 C296.336001,776.757334 296.533332,776.877333 296.768,776.968 C297.002668,777.058667 297.269332,777.104 297.568,777.104 Z M307.216,778.096 C306.650664,778.096 306.130669,777.978668 305.656,777.744 C305.181331,777.509332 304.773335,777.194669 304.432,776.8 C304.090665,776.405331 303.826668,775.952003 303.64,775.44 C303.453332,774.927997 303.36,774.394669 303.36,773.84 C303.36,773.25333 303.453332,772.696003 303.64,772.168 C303.826668,771.639997 304.090665,771.178669 304.432,770.784 C304.773335,770.389331 305.181331,770.077334 305.656,769.848 C306.130669,769.618666 306.655997,769.504 307.232,769.504 C307.936004,769.504 308.543997,769.674665 309.056,770.016 C309.568003,770.357335 309.999998,770.789331 310.352,771.312 L310.352,769.648 L311.6,769.648 L311.6,777.904 C311.6,778.501336 311.488001,779.026664 311.264,779.48 C311.039999,779.933336 310.736002,780.314665 310.352,780.624 C309.967998,780.933335 309.517336,781.167999 309,781.328 C308.482664,781.488001 307.93067,781.568 307.344,781.568 C306.394662,781.568 305.624003,781.405335 305.032,781.08 C304.439997,780.754665 303.946669,780.304003 303.552,779.728 L304.368,779.008 C304.698668,779.498669 305.125331,779.866665 305.648,780.112 C306.170669,780.357335 306.735997,780.48 307.344,780.48 C307.728002,780.48 308.093332,780.426667 308.44,780.32 C308.786668,780.213333 309.087999,780.053334 309.344,779.84 C309.600001,779.626666 309.805333,779.360002 309.96,779.04 C310.114667,778.719998 310.192,778.341336 310.192,777.904 L310.192,776.432 C310.031999,776.688001 309.842668,776.919999 309.624,777.128 C309.405332,777.336001 309.168001,777.511999 308.912,777.656 C308.655999,777.800001 308.384001,777.909333 308.096,777.984 C307.807999,778.058667 307.514668,778.096 307.216,778.096 Z M307.648,776.944 C307.946668,776.944 308.234665,776.890667 308.512,776.784 C308.789335,776.677333 309.045332,776.536001 309.28,776.36 C309.514668,776.183999 309.711999,775.984001 309.872,775.76 C310.032001,775.535999 310.138666,775.306668 310.192,775.072 L310.192,772.672 C310.074666,772.383999 309.922668,772.122668 309.736,771.888 C309.549332,771.653332 309.338668,771.448001 309.104,771.272 C308.869332,771.095999 308.616001,770.96 308.344,770.864 C308.071999,770.768 307.797335,770.72 307.52,770.72 C307.093331,770.72 306.712002,770.810666 306.376,770.992 C306.039998,771.173334 305.754668,771.413332 305.52,771.712 C305.285332,772.010668 305.104001,772.349331 304.976,772.728 C304.847999,773.106669 304.784,773.487998 304.784,773.872 C304.784,774.288002 304.858666,774.682665 305.008,775.056 C305.157334,775.429335 305.359999,775.754665 305.616,776.032 C305.872001,776.309335 306.173332,776.530666 306.52,776.696 C306.866668,776.861334 307.242665,776.944 307.648,776.944 Z M313.84,766.32 L315.248,766.32 L315.248,775.84 C315.248,776.149335 315.330666,776.391999 315.496,776.568 C315.661334,776.744001 315.893332,776.832 316.192,776.832 C316.309334,776.832 316.447999,776.813334 316.608,776.776 C316.768001,776.738666 316.917333,776.693334 317.056,776.64 L317.28,777.776 C317.045332,777.872 316.768002,777.952 316.448,778.016 C316.127998,778.08 315.845335,778.112 315.6,778.112 C315.055997,778.112 314.626668,777.957335 314.312,777.648 C313.997332,777.338665 313.84,776.906669 313.84,776.352 L313.84,766.32 Z M318.288,778 L318.288,769.648 L319.696,769.648 L319.696,778 L318.288,778 Z M318.288,768.08 L318.288,766.32 L319.696,766.32 L319.696,768.08 L318.288,768.08 Z M329.152,778 L327.744,778 L327.744,773.328 C327.744,772.431996 327.608001,771.781335 327.336,771.376 C327.063999,770.970665 326.650669,770.768 326.096,770.768 C325.807999,770.768 325.520001,770.823999 325.232,770.936 C324.943999,771.048001 324.672001,771.199999 324.416,771.392 C324.159999,771.584001 323.936001,771.813332 323.744,772.08 C323.551999,772.346668 323.408,772.639998 323.312,772.96 L323.312,778 L321.904,778 L321.904,769.648 L323.184,769.648 L323.184,771.44 C323.514668,770.85333 323.991997,770.384002 324.616,770.032 C325.240003,769.679998 325.919996,769.504 326.656,769.504 C327.136002,769.504 327.535998,769.591999 327.856,769.768 C328.176002,769.944001 328.431999,770.189332 328.624,770.504 C328.816001,770.818668 328.952,771.189331 329.032,771.616 C329.112,772.042669 329.152,772.506664 329.152,773.008 L329.152,778 Z M335.008,778.16 C334.378664,778.16 333.802669,778.045334 333.28,777.816 C332.757331,777.586666 332.309335,777.274669 331.936,776.88 C331.562665,776.485331 331.272001,776.024003 331.064,775.496 C330.855999,774.967997 330.752,774.41067 330.752,773.824 C330.752,773.23733 330.855999,772.682669 331.064,772.16 C331.272001,771.637331 331.565331,771.178669 331.944,770.784 C332.322669,770.389331 332.773331,770.077334 333.296,769.848 C333.818669,769.618666 334.394664,769.504 335.024,769.504 C335.653336,769.504 336.226664,769.621332 336.744,769.856 C337.261336,770.090668 337.701332,770.402665 338.064,770.792 C338.426668,771.181335 338.706666,771.634664 338.904,772.152 C339.101334,772.669336 339.2,773.205331 339.2,773.76 C339.2,773.877334 339.197333,773.984 339.192,774.08 C339.186667,774.176 339.178667,774.250666 339.168,774.304 L332.24,774.304 C332.272,774.720002 332.367999,775.098665 332.528,775.44 C332.688001,775.781335 332.895999,776.074665 333.152,776.32 C333.408001,776.565335 333.698665,776.757333 334.024,776.896 C334.349335,777.034667 334.693332,777.104 335.056,777.104 C335.312001,777.104 335.562665,777.069334 335.808,777 C336.053335,776.930666 336.282666,776.837334 336.496,776.72 C336.709334,776.602666 336.898666,776.458668 337.064,776.288 C337.229334,776.117332 337.354666,775.925334 337.44,775.712 L338.656,776.048 C338.517333,776.357335 338.328001,776.639999 338.088,776.896 C337.847999,777.152001 337.570668,777.373332 337.256,777.56 C336.941332,777.746668 336.592002,777.893333 336.208,778 C335.823998,778.106667 335.424002,778.16 335.008,778.16 Z M337.872,773.264 C337.84,772.869331 337.741334,772.504002 337.576,772.168 C337.410666,771.831998 337.202668,771.546668 336.952,771.312 C336.701332,771.077332 336.410668,770.893334 336.08,770.76 C335.749332,770.626666 335.397335,770.56 335.024,770.56 C334.650665,770.56 334.298668,770.626666 333.968,770.76 C333.637332,770.893334 333.346668,771.079999 333.096,771.32 C332.845332,771.560001 332.642667,771.845332 332.488,772.176 C332.333333,772.506668 332.24,772.869331 332.208,773.264 L337.872,773.264 Z" id="Tagline" fill="#7D7D7D"></path>
        </g>
    </g>
</svg>
