
<svg width="259px" height="88px" viewBox="0 0 259 88" version="1.1" xmlns="http://www.w3.org/2000/svg" xmlns:xlink="http://www.w3.org/1999/xlink">
    <g id="Page-1" stroke="none" stroke-width="1" fill="none" fill-rule="evenodd">
        <g id="EXCEPTIONARIES" transform="translate(-819.000000, -766.000000)">
            <path d="M822.655,822 L822.655,791.47 L835.727,791.47 C837.07434,791.47 838.314161,791.749497 839.4465,792.3085 C840.578839,792.867503 841.553496,793.612829 842.3705,794.5445 C843.187504,795.476171 843.825331,796.522494 844.284,797.6835 C844.742669,798.844506 844.972,800.026994 844.972,801.231 C844.972,802.291672 844.821502,803.316495 844.5205,804.3055 C844.219498,805.294505 843.789503,806.190329 843.2305,806.993 C842.671497,807.795671 841.997837,808.483664 841.2095,809.057 C840.421163,809.630336 839.539672,810.045999 838.565,810.304 L845.961,822 L841.575,822 L834.609,811.035 L826.525,811.035 L826.525,822 L822.655,822 Z M826.525,807.595 L835.77,807.595 C836.572671,807.595 837.296497,807.423002 837.9415,807.079 C838.586503,806.734998 839.138331,806.26917 839.597,805.6815 C840.055669,805.09383 840.413999,804.413004 840.672,803.639 C840.930001,802.864996 841.059,802.062337 841.059,801.231 C841.059,800.370996 840.908502,799.56117 840.6075,798.8015 C840.306498,798.04183 839.905169,797.36817 839.4035,796.7805 C838.901831,796.19283 838.31417,795.734168 837.6405,795.4045 C836.96683,795.074832 836.257337,794.91 835.512,794.91 L826.525,794.91 L826.525,807.595 Z M856.582,822.43 C855.463994,822.43 854.432005,822.250835 853.486,821.8925 C852.539995,821.534165 851.723003,821.046836 851.035,820.4305 C850.346997,819.814164 849.809502,819.083171 849.4225,818.2375 C849.035498,817.391829 848.842,816.496005 848.842,815.55 C848.842,814.489328 849.071331,813.521838 849.53,812.6475 C849.988669,811.773162 850.640829,811.027836 851.4865,810.4115 C852.332171,809.795164 853.335494,809.322168 854.4965,808.9925 C855.657506,808.662832 856.925993,808.498 858.302,808.498 C859.391339,808.498 860.494994,808.598332 861.613,808.799 C862.731006,808.999668 863.719996,809.271998 864.58,809.616 L864.58,807.81 C864.58,805.975324 864.064005,804.534839 863.032,803.4885 C861.999995,802.442161 860.538009,801.919 858.646,801.919 C856.381322,801.919 854.002012,802.793325 851.508,804.542 L850.261,802.091 C851.723007,801.116328 853.17066,800.385336 854.604,799.898 C856.037341,799.410664 857.527992,799.167 859.076,799.167 C861.942681,799.167 864.207325,799.955325 865.87,801.532 C867.532675,803.108675 868.364,805.330319 868.364,808.197 L868.364,817.356 C868.364,818.244671 868.765329,818.703333 869.568,818.732 L869.568,822 C869.281332,822.057334 869.009001,822.100333 868.751,822.129 C868.492999,822.157667 868.249334,822.172 868.02,822.172 C867.38933,822.172 866.773003,822.000002 866.171,821.656 C865.568997,821.311998 865.239334,820.724337 865.182,819.893 L865.096,818.302 C864.579997,818.990003 863.992337,819.591997 863.333,820.108 C862.673663,820.624003 861.971337,821.053998 861.226,821.398 C860.480663,821.742002 859.713837,821.999999 858.9255,822.172 C858.137163,822.344001 857.356004,822.43 856.582,822.43 Z M857.528,819.592 C858.732006,819.592 859.907328,819.334003 861.054,818.818 C862.200672,818.301997 863.103663,817.671337 863.763,816.926 C864.307669,816.29533 864.58,815.707669 864.58,815.163 L864.58,811.852 C863.691329,811.507998 862.752505,811.242834 861.7635,811.0565 C860.774495,810.870166 859.821338,810.777 858.904,810.777 C856.954657,810.777 855.392339,811.171163 854.217,811.9595 C853.041661,812.747837 852.454,813.829993 852.454,815.206 C852.454,815.779336 852.568666,816.331164 852.798,816.8615 C853.027334,817.391836 853.356998,817.857665 853.787,818.259 C854.217002,818.660335 854.74733,818.982832 855.378,819.2265 C856.00867,819.470168 856.725329,819.592 857.528,819.592 Z M874.556,790.61 L878.34,790.61 L878.34,816.195 C878.34,817.026337 878.562164,817.678498 879.0065,818.1515 C879.450836,818.624502 880.074329,818.861 880.877,818.861 C881.192335,818.861 881.564998,818.810834 881.995,818.7105 C882.425002,818.610166 882.826331,818.488334 883.199,818.345 L883.801,821.398 C883.17033,821.656001 882.425004,821.870999 881.565,822.043 C880.704996,822.215001 879.945337,822.301 879.286,822.301 C877.823993,822.301 876.670171,821.885337 875.8245,821.054 C874.978829,820.222663 874.556,819.061674 874.556,817.571 L874.556,790.61 Z M896.529,822.43 C894.837658,822.43 893.289674,822.121836 891.885,821.5055 C890.480326,820.889164 889.276338,820.050672 888.273,818.99 C887.269662,817.929328 886.488503,816.689507 885.9295,815.2705 C885.370497,813.851493 885.091,812.353675 885.091,810.777 C885.091,809.200325 885.370497,807.709674 885.9295,806.305 C886.488503,804.900326 887.276828,803.667672 888.2945,802.607 C889.312172,801.546328 890.523326,800.707836 891.928,800.0915 C893.332674,799.475164 894.880658,799.167 896.572,799.167 C898.263342,799.167 899.80416,799.48233 901.1945,800.113 C902.58484,800.74367 903.767328,801.582161 904.742,802.6285 C905.716672,803.674839 906.469164,804.89316 906.9995,806.2835 C907.529836,807.67384 907.795,809.114326 907.795,810.605 C907.795,810.920335 907.787833,811.206999 907.7735,811.465 C907.759167,811.723001 907.737667,811.923666 907.709,812.067 L889.09,812.067 C889.176,813.185006 889.433998,814.202662 889.864,815.12 C890.294002,816.037338 890.852997,816.825663 891.541,817.485 C892.229003,818.144337 893.010162,818.660331 893.8845,819.033 C894.758838,819.405669 895.683328,819.592 896.658,819.592 C897.346003,819.592 898.019663,819.498834 898.679,819.3125 C899.338337,819.126166 899.954664,818.875335 900.528,818.56 C901.101336,818.244665 901.610164,817.857669 902.0545,817.399 C902.498836,816.940331 902.835666,816.424336 903.065,815.851 L906.333,816.754 C905.960331,817.585337 905.451503,818.344997 904.8065,819.033 C904.161497,819.721003 903.416171,820.315831 902.5705,820.8175 C901.724829,821.319169 900.786005,821.713332 899.754,822 C898.721995,822.286668 897.647006,822.43 896.529,822.43 Z M904.226,809.272 C904.14,808.211328 903.874836,807.229505 903.4305,806.3265 C902.986164,805.423495 902.42717,804.65667 901.7535,804.026 C901.07983,803.39533 900.298671,802.900835 899.41,802.5425 C898.521329,802.184165 897.575338,802.005 896.572,802.005 C895.568662,802.005 894.622671,802.184165 893.734,802.5425 C892.845329,802.900835 892.06417,803.402497 891.3905,804.0475 C890.71683,804.692503 890.172169,805.459329 889.7565,806.348 C889.340831,807.236671 889.09,808.211328 889.004,809.272 L904.226,809.272 Z M940.217,799.554 L943.872,799.554 L934.326,822 L931.187,822 L926.672,811.035 L922.2,822 L919.061,822 L909.515,799.554 L913.127,799.554 L920.867,818.259 L924.651,808.928 L920.781,799.597 L923.92,799.597 L926.672,806.778 L929.424,799.597 L932.563,799.597 L928.736,808.928 L932.52,818.259 L940.217,799.554 Z M953.418,822.43 C952.299994,822.43 951.268005,822.250835 950.322,821.8925 C949.375995,821.534165 948.559003,821.046836 947.871,820.4305 C947.182997,819.814164 946.645502,819.083171 946.2585,818.2375 C945.871498,817.391829 945.678,816.496005 945.678,815.55 C945.678,814.489328 945.907331,813.521838 946.366,812.6475 C946.824669,811.773162 947.476829,811.027836 948.3225,810.4115 C949.168171,809.795164 950.171494,809.322168 951.3325,808.9925 C952.493506,808.662832 953.761993,808.498 955.138,808.498 C956.227339,808.498 957.330994,808.598332 958.449,808.799 C959.567006,808.999668 960.555996,809.271998 961.416,809.616 L961.416,807.81 C961.416,805.975324 960.900005,804.534839 959.868,803.4885 C958.835995,802.442161 957.374009,801.919 955.482,801.919 C953.217322,801.919 950.838012,802.793325 948.344,804.542 L947.097,802.091 C948.559007,801.116328 950.00666,800.385336 951.44,799.898 C952.873341,799.410664 954.363992,799.167 955.912,799.167 C958.778681,799.167 961.043325,799.955325 962.706,801.532 C964.368675,803.108675 965.2,805.330319 965.2,808.197 L965.2,817.356 C965.2,818.244671 965.601329,818.703333 966.404,818.732 L966.404,822 C966.117332,822.057334 965.845001,822.100333 965.587,822.129 C965.328999,822.157667 965.085334,822.172 964.856,822.172 C964.22533,822.172 963.609003,822.000002 963.007,821.656 C962.404997,821.311998 962.075334,820.724337 962.018,819.893 L961.932,818.302 C961.415997,818.990003 960.828337,819.591997 960.169,820.108 C959.509663,820.624003 958.807337,821.053998 958.062,821.398 C957.316663,821.742002 956.549837,821.999999 955.7615,822.172 C954.973163,822.344001 954.192004,822.43 953.418,822.43 Z M954.364,819.592 C955.568006,819.592 956.743328,819.334003 957.89,818.818 C959.036672,818.301997 959.939663,817.671337 960.599,816.926 C961.143669,816.29533 961.416,815.707669 961.416,815.163 L961.416,811.852 C960.527329,811.507998 959.588505,811.242834 958.5995,811.0565 C957.610495,810.870166 956.657338,810.777 955.74,810.777 C953.790657,810.777 952.228339,811.171163 951.053,811.9595 C949.877661,812.747837 949.29,813.829993 949.29,815.206 C949.29,815.779336 949.404666,816.331164 949.634,816.8615 C949.863334,817.391836 950.192998,817.857665 950.623,818.259 C951.053002,818.660335 951.58333,818.982832 952.214,819.2265 C952.84467,819.470168 953.561329,819.592 954.364,819.592 Z M972.295,828.149 C973.069004,828.235 973.756997,828.278 974.359,828.278 C974.617001,828.278 974.860666,828.220667 975.09,828.106 C975.319334,827.991333 975.577332,827.719002 975.864,827.289 C976.150668,826.858998 976.480331,826.228337 976.853,825.397 C977.225669,824.565663 977.684331,823.43334 978.229,822 L968.726,799.554 L972.639,799.554 L980.293,818.603 L987.259,799.554 L990.871,799.554 L979.863,827.891 C979.346997,829.23834 978.601672,830.20583 977.627,830.7935 C976.652328,831.38117 975.505673,831.675 974.187,831.675 C973.871665,831.675 973.556335,831.660667 973.241,831.632 C972.925665,831.603333 972.610335,831.546 972.295,831.46 L972.295,828.149 Z M829.206,847.56 L829.206,849 L820.53,849 L820.53,836.22 L829.044,836.22 L829.044,837.66 L822.15,837.66 L822.15,841.8 L828.144,841.8 L828.144,843.15 L822.15,843.15 L822.15,847.56 L829.206,847.56 Z M833.76,849.18 C833.291998,849.18 832.860002,849.105001 832.464,848.955 C832.067998,848.804999 831.726001,848.601001 831.438,848.343 C831.149999,848.084999 830.925001,847.779002 830.763,847.425 C830.600999,847.070998 830.52,846.696002 830.52,846.3 C830.52,845.855998 830.615999,845.451002 830.808,845.085 C831.000001,844.718998 831.272998,844.407001 831.627,844.149 C831.981002,843.890999 832.400998,843.693001 832.887,843.555 C833.373002,843.416999 833.903997,843.348 834.48,843.348 C834.936002,843.348 835.397998,843.39 835.866,843.474 C836.334002,843.558 836.747998,843.671999 837.108,843.816 L837.108,843.06 C837.108,842.291996 836.892002,841.689002 836.46,841.251 C836.027998,840.812998 835.416004,840.594 834.624,840.594 C833.675995,840.594 832.680005,840.959996 831.636,841.692 L831.114,840.666 C831.726003,840.257998 832.331997,839.952001 832.932,839.748 C833.532003,839.543999 834.155997,839.442 834.804,839.442 C836.004006,839.442 836.951997,839.771997 837.648,840.432 C838.344003,841.092003 838.692,842.021994 838.692,843.222 L838.692,847.056 C838.692,847.428002 838.859998,847.62 839.196,847.632 L839.196,849 C839.075999,849.024 838.962001,849.042 838.854,849.054 C838.745999,849.066 838.644,849.072 838.548,849.072 C838.283999,849.072 838.026001,849.000001 837.774,848.856 C837.521999,848.711999 837.384,848.466002 837.36,848.118 L837.324,847.452 C837.107999,847.740001 836.862001,847.991999 836.586,848.208 C836.309999,848.424001 836.016002,848.603999 835.704,848.748 C835.391998,848.892001 835.071002,849 834.741,849.072 C834.410998,849.144 834.084002,849.18 833.76,849.18 Z M834.156,847.992 C834.660003,847.992 835.151998,847.884001 835.632,847.668 C836.112002,847.451999 836.489999,847.188002 836.766,846.876 C836.994001,846.611999 837.108,846.366001 837.108,846.138 L837.108,844.752 C836.735998,844.607999 836.343002,844.497 835.929,844.419 C835.514998,844.341 835.116002,844.302 834.732,844.302 C833.915996,844.302 833.262002,844.466998 832.77,844.797 C832.277998,845.127002 832.032,845.579997 832.032,846.156 C832.032,846.396001 832.08,846.626999 832.176,846.849 C832.272,847.071001 832.409999,847.265999 832.59,847.434 C832.770001,847.602001 832.991999,847.736999 833.256,847.839 C833.520001,847.941001 833.819998,847.992 834.156,847.992 Z M844.578,849.18 C843.821996,849.18 843.078004,849.063001 842.346,848.829 C841.613996,848.594999 840.984003,848.256002 840.456,847.812 L841.14,846.75 C841.692003,847.170002 842.243997,847.484999 842.796,847.695 C843.348003,847.905001 843.929997,848.01 844.542,848.01 C845.226003,848.01 845.768998,847.875001 846.171,847.605 C846.573002,847.334999 846.774,846.954002 846.774,846.462 C846.774,846.233999 846.720001,846.039001 846.612,845.877 C846.503999,845.714999 846.342001,845.574001 846.126,845.454 C845.909999,845.333999 845.634002,845.226 845.298,845.13 C844.961998,845.034 844.572002,844.932001 844.128,844.824 C843.563997,844.679999 843.078002,844.542001 842.67,844.41 C842.261998,844.277999 841.926001,844.122001 841.662,843.942 C841.397999,843.761999 841.206001,843.546001 841.086,843.294 C840.965999,843.041999 840.906,842.730002 840.906,842.358 C840.906,841.889998 840.998999,841.473002 841.185,841.107 C841.371001,840.740998 841.625998,840.435001 841.95,840.189 C842.274002,839.942999 842.654998,839.757001 843.093,839.631 C843.531002,839.504999 844.001997,839.442 844.506,839.442 C845.214004,839.442 845.873997,839.555999 846.486,839.784 C847.098003,840.012001 847.613998,840.311998 848.034,840.684 L847.314,841.638 C846.917998,841.289998 846.474002,841.029001 845.982,840.855 C845.489998,840.680999 844.986003,840.594 844.47,840.594 C843.893997,840.594 843.405002,840.716999 843.003,840.963 C842.600998,841.209001 842.4,841.601997 842.4,842.142 C842.4,842.358001 842.439,842.537999 842.517,842.682 C842.595,842.826001 842.723999,842.951999 842.904,843.06 C843.084001,843.168001 843.314999,843.264 843.597,843.348 C843.879001,843.432 844.217998,843.522 844.614,843.618 C845.238003,843.762001 845.780998,843.908999 846.243,844.059 C846.705002,844.209001 847.088998,844.385999 847.395,844.59 C847.701002,844.794001 847.928999,845.033999 848.079,845.31 C848.229001,845.586001 848.304,845.921998 848.304,846.318 C848.304,847.194004 847.968003,847.889997 847.296,848.406 C846.623997,848.922003 845.718006,849.18 844.578,849.18 Z M850.536,851.574 C850.860002,851.61 851.147999,851.628 851.4,851.628 C851.508001,851.628 851.61,851.604 851.706,851.556 C851.802,851.508 851.909999,851.394001 852.03,851.214 C852.150001,851.033999 852.287999,850.770002 852.444,850.422 C852.600001,850.073998 852.791999,849.600003 853.02,849 L849.042,839.604 L850.68,839.604 L853.884,847.578 L856.8,839.604 L858.312,839.604 L853.704,851.466 C853.487999,852.030003 853.176002,852.434999 852.768,852.681 C852.359998,852.927001 851.880003,853.05 851.328,853.05 C851.195999,853.05 851.064001,853.044 850.932,853.032 C850.799999,853.02 850.668001,852.996 850.536,852.96 L850.536,851.574 Z M869.382,840.99 C868.589996,841.014 867.891003,841.217998 867.285,841.602 C866.678997,841.986002 866.250001,842.519997 865.998,843.204 L865.998,849 L864.414,849 L864.414,839.604 L865.89,839.604 L865.89,841.782 C866.214002,841.133997 866.639997,840.597002 867.168,840.171 C867.696003,839.744998 868.259997,839.532 868.86,839.532 L869.166,839.532 C869.25,839.532 869.322,839.538 869.382,839.55 L869.382,840.99 Z M875.124,849.18 C874.415996,849.18 873.768003,849.051001 873.18,848.793 C872.591997,848.534999 872.088002,848.184002 871.668,847.74 C871.247998,847.295998 870.921001,846.777003 870.687,846.183 C870.452999,845.588997 870.336,844.962003 870.336,844.302 C870.336,843.641997 870.452999,843.018003 870.687,842.43 C870.921001,841.841997 871.250998,841.326002 871.677,840.882 C872.103002,840.437998 872.609997,840.087001 873.198,839.829 C873.786003,839.570999 874.433996,839.442 875.142,839.442 C875.850004,839.442 876.494997,839.573999 877.077,839.838 C877.659003,840.102001 878.153998,840.452998 878.562,840.891 C878.970002,841.329002 879.284999,841.838997 879.507,842.421 C879.729001,843.003003 879.84,843.605997 879.84,844.23 C879.84,844.362001 879.837,844.481999 879.831,844.59 C879.825,844.698001 879.816,844.782 879.804,844.842 L872.01,844.842 C872.046,845.310002 872.153999,845.735998 872.334,846.12 C872.514001,846.504002 872.747999,846.833999 873.036,847.11 C873.324001,847.386001 873.650998,847.601999 874.017,847.758 C874.383002,847.914001 874.769998,847.992 875.178,847.992 C875.466001,847.992 875.747999,847.953 876.024,847.875 C876.300001,847.797 876.557999,847.692001 876.798,847.56 C877.038001,847.427999 877.250999,847.266001 877.437,847.074 C877.623001,846.881999 877.764,846.666001 877.86,846.426 L879.228,846.804 C879.071999,847.152002 878.859001,847.469999 878.589,847.758 C878.318999,848.046001 878.007002,848.294999 877.653,848.505 C877.298998,848.715001 876.906002,848.879999 876.474,849 C876.041998,849.120001 875.592002,849.18 875.124,849.18 Z M878.346,843.672 C878.31,843.227998 878.199001,842.817002 878.013,842.439 C877.826999,842.060998 877.593001,841.740001 877.311,841.476 C877.028999,841.211999 876.702002,841.005001 876.33,840.855 C875.957998,840.704999 875.562002,840.63 875.142,840.63 C874.721998,840.63 874.326002,840.704999 873.954,840.855 C873.581998,841.005001 873.255001,841.214999 872.973,841.485 C872.690999,841.755001 872.463001,842.075998 872.289,842.448 C872.114999,842.820002 872.01,843.227998 871.974,843.672 L878.346,843.672 Z M884.106,849.18 C883.637998,849.18 883.206002,849.105001 882.81,848.955 C882.413998,848.804999 882.072001,848.601001 881.784,848.343 C881.495999,848.084999 881.271001,847.779002 881.109,847.425 C880.946999,847.070998 880.866,846.696002 880.866,846.3 C880.866,845.855998 880.961999,845.451002 881.154,845.085 C881.346001,844.718998 881.618998,844.407001 881.973,844.149 C882.327002,843.890999 882.746998,843.693001 883.233,843.555 C883.719002,843.416999 884.249997,843.348 884.826,843.348 C885.282002,843.348 885.743998,843.39 886.212,843.474 C886.680002,843.558 887.093998,843.671999 887.454,843.816 L887.454,843.06 C887.454,842.291996 887.238002,841.689002 886.806,841.251 C886.373998,840.812998 885.762004,840.594 884.97,840.594 C884.021995,840.594 883.026005,840.959996 881.982,841.692 L881.46,840.666 C882.072003,840.257998 882.677997,839.952001 883.278,839.748 C883.878003,839.543999 884.501997,839.442 885.15,839.442 C886.350006,839.442 887.297997,839.771997 887.994,840.432 C888.690003,841.092003 889.038,842.021994 889.038,843.222 L889.038,847.056 C889.038,847.428002 889.205998,847.62 889.542,847.632 L889.542,849 C889.421999,849.024 889.308001,849.042 889.2,849.054 C889.091999,849.066 888.99,849.072 888.894,849.072 C888.629999,849.072 888.372001,849.000001 888.12,848.856 C887.867999,848.711999 887.73,848.466002 887.706,848.118 L887.67,847.452 C887.453999,847.740001 887.208001,847.991999 886.932,848.208 C886.655999,848.424001 886.362002,848.603999 886.05,848.748 C885.737998,848.892001 885.417002,849 885.087,849.072 C884.756998,849.144 884.430002,849.18 884.106,849.18 Z M884.502,847.992 C885.006003,847.992 885.497998,847.884001 885.978,847.668 C886.458002,847.451999 886.835999,847.188002 887.112,846.876 C887.340001,846.611999 887.454,846.366001 887.454,846.138 L887.454,844.752 C887.081998,844.607999 886.689002,844.497 886.275,844.419 C885.860998,844.341 885.462002,844.302 885.078,844.302 C884.261996,844.302 883.608002,844.466998 883.116,844.797 C882.623998,845.127002 882.378,845.579997 882.378,846.156 C882.378,846.396001 882.426,846.626999 882.522,846.849 C882.618,847.071001 882.755999,847.265999 882.936,847.434 C883.116001,847.602001 883.337999,847.736999 883.602,847.839 C883.866001,847.941001 884.165998,847.992 884.502,847.992 Z M895.482,849.18 C894.833997,849.18 894.234003,849.048001 893.682,848.784 C893.129997,848.519999 892.656002,848.166002 892.26,847.722 C891.863998,847.277998 891.555001,846.762003 891.333,846.174 C891.110999,845.585997 891,844.968003 891,844.32 C891,843.659997 891.104999,843.033003 891.315,842.439 C891.525001,841.844997 891.818998,841.326002 892.197,840.882 C892.575002,840.437998 893.024997,840.087001 893.547,839.829 C894.069003,839.570999 894.641997,839.442 895.266,839.442 C896.022004,839.442 896.696997,839.639998 897.291,840.036 C897.885003,840.432002 898.355998,840.911997 898.704,841.476 L898.704,835.86 L900.288,835.86 L900.288,847.056 C900.288,847.428002 900.455998,847.62 900.792,847.632 L900.792,849 C900.659999,849.024 900.543001,849.042 900.441,849.054 C900.338999,849.066 900.246,849.072 900.162,849.072 C899.801998,849.072 899.514001,848.979001 899.298,848.793 C899.081999,848.606999 898.968,848.382001 898.956,848.118 L898.92,847.236 C898.547998,847.848003 898.053003,848.324998 897.435,848.667 C896.816997,849.009002 896.166003,849.18 895.482,849.18 Z M895.86,847.812 C896.148001,847.812 896.444998,847.758001 896.751,847.65 C897.057002,847.541999 897.344999,847.392001 897.615,847.2 C897.885001,847.007999 898.118999,846.783001 898.317,846.525 C898.515001,846.266999 898.644,845.994001 898.704,845.706 L898.704,843.006 C898.595999,842.705998 898.434001,842.421001 898.218,842.151 C898.001999,841.880999 897.759001,841.647001 897.489,841.449 C897.218999,841.250999 896.931002,841.095001 896.625,840.981 C896.318998,840.866999 896.016002,840.81 895.716,840.81 C895.247998,840.81 894.825002,840.908999 894.447,841.107 C894.068998,841.305001 893.745001,841.568998 893.475,841.899 C893.204999,842.229002 892.998001,842.606998 892.854,843.033 C892.709999,843.459002 892.638,843.893998 892.638,844.338 C892.638,844.806002 892.721999,845.252998 892.89,845.679 C893.058001,846.105002 893.285999,846.473998 893.574,846.786 C893.862001,847.098002 894.200998,847.346999 894.591,847.533 C894.981002,847.719001 895.403998,847.812 895.86,847.812 Z M902.952,849 L902.952,839.604 L904.536,839.604 L904.536,849 L902.952,849 Z M902.952,837.84 L902.952,835.86 L904.536,835.86 L904.536,837.84 L902.952,837.84 Z M915.174,849 L913.59,849 L913.59,843.744 C913.59,842.735995 913.437002,842.004002 913.131,841.548 C912.824998,841.091998 912.360003,840.864 911.736,840.864 C911.411998,840.864 911.088002,840.926999 910.764,841.053 C910.439998,841.179001 910.134001,841.349999 909.846,841.566 C909.557999,841.782001 909.306001,842.039999 909.09,842.34 C908.873999,842.640002 908.712001,842.969998 908.604,843.33 L908.604,849 L907.02,849 L907.02,839.604 L908.46,839.604 L908.46,841.62 C908.832002,840.959997 909.368996,840.432002 910.071,840.036 C910.773004,839.639998 911.537996,839.442 912.366,839.442 C912.906003,839.442 913.355998,839.540999 913.716,839.739 C914.076002,839.937001 914.363999,840.212998 914.58,840.567 C914.796001,840.921002 914.949,841.337998 915.039,841.818 C915.129,842.298002 915.174,842.819997 915.174,843.384 L915.174,849 Z M921.33,849.108 C920.693997,849.108 920.109003,848.976001 919.575,848.712 C919.040997,848.447999 918.582002,848.094002 918.198,847.65 C917.813998,847.205998 917.517001,846.696003 917.307,846.12 C917.096999,845.543997 916.992,844.944003 916.992,844.32 C916.992,843.659997 917.096999,843.033003 917.307,842.439 C917.517001,841.844997 917.813998,841.326002 918.198,840.882 C918.582002,840.437998 919.040997,840.087001 919.575,839.829 C920.109003,839.570999 920.699997,839.442 921.348,839.442 C922.140004,839.442 922.823997,839.633998 923.4,840.018 C923.976003,840.402002 924.461998,840.887997 924.858,841.476 L924.858,839.604 L926.262,839.604 L926.262,848.892 C926.262,849.564003 926.136001,850.154997 925.884,850.665 C925.631999,851.175003 925.290002,851.603998 924.858,851.952 C924.425998,852.300002 923.919003,852.563999 923.337,852.744 C922.754997,852.924001 922.134003,853.014 921.474,853.014 C920.405995,853.014 919.539003,852.831002 918.873,852.465 C918.206997,852.098998 917.652002,851.592003 917.208,850.944 L918.126,850.134 C918.498002,850.686003 918.977997,851.099999 919.566,851.376 C920.154003,851.652001 920.789997,851.79 921.474,851.79 C921.906002,851.79 922.316998,851.730001 922.707,851.61 C923.097002,851.489999 923.435999,851.310001 923.724,851.07 C924.012001,850.829999 924.242999,850.530002 924.417,850.17 C924.591001,849.809998 924.678,849.384002 924.678,848.892 L924.678,847.236 C924.497999,847.524001 924.285001,847.784999 924.039,848.019 C923.792999,848.253001 923.526001,848.450999 923.238,848.613 C922.949999,848.775001 922.644002,848.898 922.32,848.982 C921.995998,849.066 921.666002,849.108 921.33,849.108 Z M921.816,847.812 C922.152002,847.812 922.475998,847.752001 922.788,847.632 C923.100002,847.511999 923.387999,847.353001 923.652,847.155 C923.916001,846.956999 924.137999,846.732001 924.318,846.48 C924.498001,846.227999 924.618,845.970001 924.678,845.706 L924.678,843.006 C924.545999,842.681998 924.375001,842.388001 924.165,842.124 C923.954999,841.859999 923.718001,841.629001 923.454,841.431 C923.189999,841.232999 922.905002,841.080001 922.599,840.972 C922.292998,840.863999 921.984002,840.81 921.672,840.81 C921.191998,840.81 920.763002,840.911999 920.385,841.116 C920.006998,841.320001 919.686001,841.589998 919.422,841.926 C919.157999,842.262002 918.954001,842.642998 918.81,843.069 C918.665999,843.495002 918.594,843.923998 918.594,844.356 C918.594,844.824002 918.677999,845.267998 918.846,845.688 C919.014001,846.108002 919.241999,846.473998 919.53,846.786 C919.818001,847.098002 920.156998,847.346999 920.547,847.533 C920.937002,847.719001 921.359998,847.812 921.816,847.812 Z M947.43,849 L945.846,849 L945.846,843.744 C945.846,842.759995 945.687002,842.034002 945.369,841.566 C945.050998,841.097998 944.580003,840.864 943.956,840.864 C943.307997,840.864 942.729003,841.094998 942.219,841.557 C941.708997,842.019002 941.346001,842.615996 941.13,843.348 L941.13,849 L939.546,849 L939.546,843.744 C939.546,842.735995 939.390002,842.004002 939.078,841.548 C938.765998,841.091998 938.298003,840.864 937.674,840.864 C937.037997,840.864 936.462003,841.088998 935.946,841.539 C935.429997,841.989002 935.064001,842.585996 934.848,843.33 L934.848,849 L933.264,849 L933.264,839.604 L934.704,839.604 L934.704,841.62 C935.088002,840.923997 935.585997,840.387002 936.198,840.009 C936.810003,839.630998 937.499996,839.442 938.268,839.442 C939.060004,839.442 939.686998,839.654998 940.149,840.081 C940.611002,840.507002 940.895999,841.055997 941.004,841.728 C941.844004,840.203992 943.037992,839.442 944.586,839.442 C945.126003,839.442 945.578998,839.540999 945.945,839.739 C946.311002,839.937001 946.601999,840.212998 946.818,840.567 C947.034001,840.921002 947.19,841.337998 947.286,841.818 C947.382,842.298002 947.43,842.819997 947.43,843.384 L947.43,849 Z M953.964,849.18 C953.255996,849.18 952.611003,849.048001 952.029,848.784 C951.446997,848.519999 950.949002,848.166002 950.535,847.722 C950.120998,847.277998 949.800001,846.762003 949.572,846.174 C949.343999,845.585997 949.23,844.968003 949.23,844.32 C949.23,843.659997 949.346999,843.036003 949.581,842.448 C949.815001,841.859997 950.138998,841.344002 950.553,840.9 C950.967002,840.455998 951.464997,840.102001 952.047,839.838 C952.629003,839.573999 953.267997,839.442 953.964,839.442 C954.660003,839.442 955.301997,839.573999 955.89,839.838 C956.478003,840.102001 956.978998,840.455998 957.393,840.9 C957.807002,841.344002 958.130999,841.859997 958.365,842.448 C958.599001,843.036003 958.716,843.659997 958.716,844.32 C958.716,844.968003 958.602001,845.585997 958.374,846.174 C958.145999,846.762003 957.822002,847.277998 957.402,847.722 C956.981998,848.166002 956.481003,848.519999 955.899,848.784 C955.316997,849.048001 954.672004,849.18 953.964,849.18 Z M950.85,844.338 C950.85,844.830002 950.930999,845.285998 951.093,845.706 C951.255001,846.126002 951.476999,846.491998 951.759,846.804 C952.041001,847.116002 952.370998,847.361999 952.749,847.542 C953.127002,847.722001 953.531998,847.812 953.964,847.812 C954.396002,847.812 954.800998,847.722001 955.179,847.542 C955.557002,847.361999 955.889999,847.113002 956.178,846.795 C956.466001,846.476998 956.690999,846.105002 956.853,845.679 C957.015001,845.252998 957.096,844.794002 957.096,844.302 C957.096,843.821998 957.015001,843.369002 956.853,842.943 C956.690999,842.516998 956.466001,842.145002 956.178,841.827 C955.889999,841.508998 955.557002,841.260001 955.179,841.08 C954.800998,840.899999 954.396002,840.81 953.964,840.81 C953.531998,840.81 953.127002,840.902999 952.749,841.089 C952.370998,841.275001 952.041001,841.526998 951.759,841.845 C951.476999,842.163002 951.255001,842.534998 951.093,842.961 C950.930999,843.387002 950.85,843.845998 950.85,844.338 Z M964.476,849.18 C963.827997,849.18 963.228003,849.048001 962.676,848.784 C962.123997,848.519999 961.650002,848.166002 961.254,847.722 C960.857998,847.277998 960.549001,846.762003 960.327,846.174 C960.104999,845.585997 959.994,844.968003 959.994,844.32 C959.994,843.659997 960.098999,843.033003 960.309,842.439 C960.519001,841.844997 960.812998,841.326002 961.191,840.882 C961.569002,840.437998 962.018997,840.087001 962.541,839.829 C963.063003,839.570999 963.635997,839.442 964.26,839.442 C965.016004,839.442 965.690997,839.639998 966.285,840.036 C966.879003,840.432002 967.349998,840.911997 967.698,841.476 L967.698,835.86 L969.282,835.86 L969.282,847.056 C969.282,847.428002 969.449998,847.62 969.786,847.632 L969.786,849 C969.653999,849.024 969.537001,849.042 969.435,849.054 C969.332999,849.066 969.24,849.072 969.156,849.072 C968.795998,849.072 968.508001,848.979001 968.292,848.793 C968.075999,848.606999 967.962,848.382001 967.95,848.118 L967.914,847.236 C967.541998,847.848003 967.047003,848.324998 966.429,848.667 C965.810997,849.009002 965.160003,849.18 964.476,849.18 Z M964.854,847.812 C965.142001,847.812 965.438998,847.758001 965.745,847.65 C966.051002,847.541999 966.338999,847.392001 966.609,847.2 C966.879001,847.007999 967.112999,846.783001 967.311,846.525 C967.509001,846.266999 967.638,845.994001 967.698,845.706 L967.698,843.006 C967.589999,842.705998 967.428001,842.421001 967.212,842.151 C966.995999,841.880999 966.753001,841.647001 966.483,841.449 C966.212999,841.250999 965.925002,841.095001 965.619,840.981 C965.312998,840.866999 965.010002,840.81 964.71,840.81 C964.241998,840.81 963.819002,840.908999 963.441,841.107 C963.062998,841.305001 962.739001,841.568998 962.469,841.899 C962.198999,842.229002 961.992001,842.606998 961.848,843.033 C961.703999,843.459002 961.632,843.893998 961.632,844.338 C961.632,844.806002 961.715999,845.252998 961.884,845.679 C962.052001,846.105002 962.279999,846.473998 962.568,846.786 C962.856001,847.098002 963.194998,847.346999 963.585,847.533 C963.975002,847.719001 964.397998,847.812 964.854,847.812 Z M976.14,849.18 C975.431996,849.18 974.784003,849.051001 974.196,848.793 C973.607997,848.534999 973.104002,848.184002 972.684,847.74 C972.263998,847.295998 971.937001,846.777003 971.703,846.183 C971.468999,845.588997 971.352,844.962003 971.352,844.302 C971.352,843.641997 971.468999,843.018003 971.703,842.43 C971.937001,841.841997 972.266998,841.326002 972.693,840.882 C973.119002,840.437998 973.625997,840.087001 974.214,839.829 C974.802003,839.570999 975.449996,839.442 976.158,839.442 C976.866004,839.442 977.510997,839.573999 978.093,839.838 C978.675003,840.102001 979.169998,840.452998 979.578,840.891 C979.986002,841.329002 980.300999,841.838997 980.523,842.421 C980.745001,843.003003 980.856,843.605997 980.856,844.23 C980.856,844.362001 980.853,844.481999 980.847,844.59 C980.841,844.698001 980.832,844.782 980.82,844.842 L973.026,844.842 C973.062,845.310002 973.169999,845.735998 973.35,846.12 C973.530001,846.504002 973.763999,846.833999 974.052,847.11 C974.340001,847.386001 974.666998,847.601999 975.033,847.758 C975.399002,847.914001 975.785998,847.992 976.194,847.992 C976.482001,847.992 976.763999,847.953 977.04,847.875 C977.316001,847.797 977.573999,847.692001 977.814,847.56 C978.054001,847.427999 978.266999,847.266001 978.453,847.074 C978.639001,846.881999 978.78,846.666001 978.876,846.426 L980.244,846.804 C980.087999,847.152002 979.875001,847.469999 979.605,847.758 C979.334999,848.046001 979.023002,848.294999 978.669,848.505 C978.314998,848.715001 977.922002,848.879999 977.49,849 C977.057998,849.120001 976.608002,849.18 976.14,849.18 Z M979.362,843.672 C979.326,843.227998 979.215001,842.817002 979.029,842.439 C978.842999,842.060998 978.609001,841.740001 978.327,841.476 C978.044999,841.211999 977.718002,841.005001 977.346,840.855 C976.973998,840.704999 976.578002,840.63 976.158,840.63 C975.737998,840.63 975.342002,840.704999 974.97,840.855 C974.597998,841.005001 974.271001,841.214999 973.989,841.485 C973.706999,841.755001 973.479001,842.075998 973.305,842.448 C973.130999,842.820002 973.026,843.227998 972.99,843.672 L979.362,843.672 Z M987.552,840.99 C986.759996,841.014 986.061003,841.217998 985.455,841.602 C984.848997,841.986002 984.420001,842.519997 984.168,843.204 L984.168,849 L982.584,849 L982.584,839.604 L984.06,839.604 L984.06,841.782 C984.384002,841.133997 984.809997,840.597002 985.338,840.171 C985.866003,839.744998 986.429997,839.532 987.03,839.532 L987.336,839.532 C987.42,839.532 987.492,839.538 987.552,839.55 L987.552,840.99 Z M997.254,849 L995.67,849 L995.67,843.744 C995.67,842.735995 995.517002,842.004002 995.211,841.548 C994.904998,841.091998 994.440003,840.864 993.816,840.864 C993.491998,840.864 993.168002,840.926999 992.844,841.053 C992.519998,841.179001 992.214001,841.349999 991.926,841.566 C991.637999,841.782001 991.386001,842.039999 991.17,842.34 C990.953999,842.640002 990.792001,842.969998 990.684,843.33 L990.684,849 L989.1,849 L989.1,839.604 L990.54,839.604 L990.54,841.62 C990.912002,840.959997 991.448996,840.432002 992.151,840.036 C992.853004,839.639998 993.617996,839.442 994.446,839.442 C994.986003,839.442 995.435998,839.540999 995.796,839.739 C996.156002,839.937001 996.443999,840.212998 996.66,840.567 C996.876001,840.921002 997.029,841.337998 997.119,841.818 C997.209,842.298002 997.254,842.819997 997.254,843.384 L997.254,849 Z M1009.044,848.532 C1008.948,848.58 1008.822,848.637 1008.666,848.703 C1008.51,848.769 1008.333,848.835 1008.135,848.901 C1007.937,848.967 1007.721,849.021 1007.487,849.063 C1007.253,849.105 1007.01,849.126 1006.758,849.126 C1006.182,849.126 1005.684,848.967002 1005.264,848.649 C1004.844,848.330998 1004.634,847.836003 1004.634,847.164 L1004.634,840.846 L1003.356,840.846 L1003.356,839.604 L1004.634,839.604 L1004.634,836.472 L1006.218,836.472 L1006.218,839.604 L1008.324,839.604 L1008.324,840.846 L1006.218,840.846 L1006.218,846.678 C1006.242,847.026002 1006.356,847.277999 1006.56,847.434 C1006.764,847.590001 1007.004,847.668 1007.28,847.668 C1007.592,847.668 1007.877,847.617001 1008.135,847.515 C1008.393,847.412999 1008.57,847.332 1008.666,847.272 L1009.044,848.532 Z M1010.826,851.574 C1011.15,851.61 1011.438,851.628 1011.69,851.628 C1011.798,851.628 1011.9,851.604 1011.996,851.556 C1012.092,851.508 1012.2,851.394001 1012.32,851.214 C1012.44,851.033999 1012.578,850.770002 1012.734,850.422 C1012.89,850.073998 1013.082,849.600003 1013.31,849 L1009.332,839.604 L1010.97,839.604 L1014.174,847.578 L1017.09,839.604 L1018.602,839.604 L1013.994,851.466 C1013.778,852.030003 1013.466,852.434999 1013.058,852.681 C1012.65,852.927001 1012.17,853.05 1011.618,853.05 C1011.486,853.05 1011.354,853.044 1011.222,853.032 C1011.09,853.02 1010.958,852.996 1010.826,852.96 L1010.826,851.574 Z M1025.244,849.18 C1024.464,849.18 1023.777,848.988002 1023.183,848.604 C1022.589,848.219998 1022.118,847.734003 1021.77,847.146 L1021.77,852.834 L1020.186,852.834 L1020.186,839.604 L1021.59,839.604 L1021.59,841.368 C1021.962,840.791997 1022.445,840.327002 1023.039,839.973 C1023.633,839.618998 1024.29,839.442 1025.01,839.442 C1025.658,839.442 1026.252,839.573999 1026.792,839.838 C1027.332,840.102001 1027.8,840.458998 1028.196,840.909 C1028.592,841.359002 1028.901,841.877997 1029.123,842.466 C1029.345,843.054003 1029.456,843.665997 1029.456,844.302 C1029.456,844.974003 1029.354,845.606997 1029.15,846.201 C1028.946,846.795003 1028.658,847.310998 1028.286,847.749 C1027.914,848.187002 1027.47,848.534999 1026.954,848.793 C1026.438,849.051001 1025.868,849.18 1025.244,849.18 Z M1024.758,847.812 C1025.226,847.812 1025.649,847.713001 1026.027,847.515 C1026.405,847.316999 1026.729,847.053002 1026.999,846.723 C1027.269,846.392998 1027.476,846.018002 1027.62,845.598 C1027.764,845.177998 1027.836,844.746002 1027.836,844.302 C1027.836,843.833998 1027.752,843.387002 1027.584,842.961 C1027.416,842.534998 1027.188,842.163002 1026.9,841.845 C1026.612,841.526998 1026.273,841.275001 1025.883,841.089 C1025.493,840.902999 1025.07,840.81 1024.614,840.81 C1024.326,840.81 1024.029,840.866999 1023.723,840.981 C1023.417,841.095001 1023.129,841.244999 1022.859,841.431 C1022.589,841.617001 1022.355,841.838999 1022.157,842.097 C1021.959,842.355001 1021.83,842.627999 1021.77,842.916 L1021.77,845.598 C1021.902,845.910002 1022.07,846.200999 1022.274,846.471 C1022.478,846.741001 1022.712,846.974999 1022.976,847.173 C1023.24,847.371001 1023.522,847.526999 1023.822,847.641 C1024.122,847.755001 1024.434,847.812 1024.758,847.812 Z M1035.54,849.18 C1034.832,849.18 1034.184,849.051001 1033.596,848.793 C1033.008,848.534999 1032.504,848.184002 1032.084,847.74 C1031.664,847.295998 1031.337,846.777003 1031.103,846.183 C1030.869,845.588997 1030.752,844.962003 1030.752,844.302 C1030.752,843.641997 1030.869,843.018003 1031.103,842.43 C1031.337,841.841997 1031.667,841.326002 1032.093,840.882 C1032.519,840.437998 1033.026,840.087001 1033.614,839.829 C1034.202,839.570999 1034.85,839.442 1035.558,839.442 C1036.266,839.442 1036.911,839.573999 1037.493,839.838 C1038.075,840.102001 1038.57,840.452998 1038.978,840.891 C1039.386,841.329002 1039.701,841.838997 1039.923,842.421 C1040.145,843.003003 1040.256,843.605997 1040.256,844.23 C1040.256,844.362001 1040.253,844.481999 1040.247,844.59 C1040.241,844.698001 1040.232,844.782 1040.22,844.842 L1032.426,844.842 C1032.462,845.310002 1032.57,845.735998 1032.75,846.12 C1032.93,846.504002 1033.164,846.833999 1033.452,847.11 C1033.74,847.386001 1034.067,847.601999 1034.433,847.758 C1034.799,847.914001 1035.186,847.992 1035.594,847.992 C1035.882,847.992 1036.164,847.953 1036.44,847.875 C1036.716,847.797 1036.974,847.692001 1037.214,847.56 C1037.454,847.427999 1037.667,847.266001 1037.853,847.074 C1038.039,846.881999 1038.18,846.666001 1038.276,846.426 L1039.644,846.804 C1039.488,847.152002 1039.275,847.469999 1039.005,847.758 C1038.735,848.046001 1038.423,848.294999 1038.069,848.505 C1037.715,848.715001 1037.322,848.879999 1036.89,849 C1036.458,849.120001 1036.008,849.18 1035.54,849.18 Z M1038.762,843.672 C1038.726,843.227998 1038.615,842.817002 1038.429,842.439 C1038.243,842.060998 1038.009,841.740001 1037.727,841.476 C1037.445,841.211999 1037.118,841.005001 1036.746,840.855 C1036.374,840.704999 1035.978,840.63 1035.558,840.63 C1035.138,840.63 1034.742,840.704999 1034.37,840.855 C1033.998,841.005001 1033.671,841.214999 1033.389,841.485 C1033.107,841.755001 1032.879,842.075998 1032.705,842.448 C1032.531,842.820002 1032.426,843.227998 1032.39,843.672 L1038.762,843.672 Z M1042.524,849 L1042.524,841.944 L1041.246,841.944 L1041.246,840.702 L1042.524,840.702 L1042.524,839.406 C1042.524,838.241994 1042.782,837.330003 1043.298,836.67 C1043.814,836.009997 1044.516,835.68 1045.404,835.68 C1045.776,835.68 1046.142,835.730999 1046.502,835.833 C1046.862,835.935001 1047.186,836.075999 1047.474,836.256 L1047.078,837.426 C1046.91,837.305999 1046.703,837.21 1046.457,837.138 C1046.211,837.066 1045.968,837.03 1045.728,837.03 C1045.2,837.03 1044.798,837.227998 1044.522,837.624 C1044.246,838.020002 1044.108,838.595996 1044.108,839.352 L1044.108,840.702 L1046.61,840.702 L1046.61,841.944 L1044.108,841.944 L1044.108,849 L1042.524,849 Z M1050.93,849.18 C1050.462,849.18 1050.03,849.105001 1049.634,848.955 C1049.238,848.804999 1048.896,848.601001 1048.608,848.343 C1048.32,848.084999 1048.095,847.779002 1047.933,847.425 C1047.771,847.070998 1047.69,846.696002 1047.69,846.3 C1047.69,845.855998 1047.786,845.451002 1047.978,845.085 C1048.17,844.718998 1048.443,844.407001 1048.797,844.149 C1049.151,843.890999 1049.571,843.693001 1050.057,843.555 C1050.543,843.416999 1051.074,843.348 1051.65,843.348 C1052.106,843.348 1052.568,843.39 1053.036,843.474 C1053.504,843.558 1053.918,843.671999 1054.278,843.816 L1054.278,843.06 C1054.278,842.291996 1054.062,841.689002 1053.63,841.251 C1053.198,840.812998 1052.586,840.594 1051.794,840.594 C1050.846,840.594 1049.85001,840.959996 1048.806,841.692 L1048.284,840.666 C1048.896,840.257998 1049.502,839.952001 1050.102,839.748 C1050.702,839.543999 1051.326,839.442 1051.974,839.442 C1053.17401,839.442 1054.122,839.771997 1054.818,840.432 C1055.514,841.092003 1055.862,842.021994 1055.862,843.222 L1055.862,847.056 C1055.862,847.428002 1056.03,847.62 1056.366,847.632 L1056.366,849 C1056.246,849.024 1056.132,849.042 1056.024,849.054 C1055.916,849.066 1055.814,849.072 1055.718,849.072 C1055.454,849.072 1055.196,849.000001 1054.944,848.856 C1054.692,848.711999 1054.554,848.466002 1054.53,848.118 L1054.494,847.452 C1054.278,847.740001 1054.032,847.991999 1053.756,848.208 C1053.48,848.424001 1053.186,848.603999 1052.874,848.748 C1052.562,848.892001 1052.241,849 1051.911,849.072 C1051.581,849.144 1051.254,849.18 1050.93,849.18 Z M1051.326,847.992 C1051.83,847.992 1052.322,847.884001 1052.802,847.668 C1053.282,847.451999 1053.66,847.188002 1053.936,846.876 C1054.164,846.611999 1054.278,846.366001 1054.278,846.138 L1054.278,844.752 C1053.906,844.607999 1053.513,844.497 1053.099,844.419 C1052.685,844.341 1052.286,844.302 1051.902,844.302 C1051.086,844.302 1050.432,844.466998 1049.94,844.797 C1049.448,845.127002 1049.202,845.579997 1049.202,846.156 C1049.202,846.396001 1049.25,846.626999 1049.346,846.849 C1049.442,847.071001 1049.58,847.265999 1049.76,847.434 C1049.94,847.602001 1050.162,847.736999 1050.426,847.839 C1050.69,847.941001 1050.99,847.992 1051.326,847.992 Z M1057.824,844.284 C1057.824,843.623997 1057.938,843.000003 1058.166,842.412 C1058.394,841.823997 1058.718,841.311002 1059.138,840.873 C1059.558,840.434998 1060.059,840.087001 1060.641,839.829 C1061.223,839.570999 1061.874,839.442 1062.594,839.442 C1063.53,839.442 1064.337,839.648998 1065.015,840.063 C1065.693,840.477002 1066.206,841.031997 1066.554,841.728 L1065.006,842.214 C1064.766,841.769998 1064.43,841.425001 1063.998,841.179 C1063.566,840.932999 1063.086,840.81 1062.558,840.81 C1062.126,840.81 1061.718,840.896999 1061.334,841.071 C1060.95,841.245001 1060.62,841.487998 1060.344,841.8 C1060.068,842.112002 1059.849,842.477998 1059.687,842.898 C1059.525,843.318002 1059.444,843.779997 1059.444,844.284 C1059.444,844.776002 1059.528,845.237998 1059.696,845.67 C1059.864,846.102002 1060.089,846.476998 1060.371,846.795 C1060.653,847.113002 1060.983,847.361999 1061.361,847.542 C1061.739,847.722001 1062.144,847.812 1062.576,847.812 C1062.852,847.812 1063.125,847.773 1063.395,847.695 C1063.665,847.617 1063.911,847.512001 1064.133,847.38 C1064.355,847.247999 1064.55,847.095001 1064.718,846.921 C1064.886,846.746999 1065.006,846.558001 1065.078,846.354 L1066.626,846.822 C1066.482,847.170002 1066.281,847.487999 1066.023,847.776 C1065.765,848.064001 1065.462,848.309999 1065.114,848.514 C1064.766,848.718001 1064.379,848.879999 1063.953,849 C1063.527,849.120001 1063.08,849.18 1062.612,849.18 C1061.904,849.18 1061.256,849.048001 1060.668,848.784 C1060.08,848.519999 1059.576,848.166002 1059.156,847.722 C1058.736,847.277998 1058.409,846.759003 1058.175,846.165 C1057.941,845.570997 1057.824,844.944003 1057.824,844.284 Z M1072.584,849.18 C1071.876,849.18 1071.228,849.051001 1070.64,848.793 C1070.052,848.534999 1069.548,848.184002 1069.128,847.74 C1068.708,847.295998 1068.381,846.777003 1068.147,846.183 C1067.913,845.588997 1067.796,844.962003 1067.796,844.302 C1067.796,843.641997 1067.913,843.018003 1068.147,842.43 C1068.381,841.841997 1068.711,841.326002 1069.137,840.882 C1069.563,840.437998 1070.07,840.087001 1070.658,839.829 C1071.246,839.570999 1071.894,839.442 1072.602,839.442 C1073.31,839.442 1073.955,839.573999 1074.537,839.838 C1075.119,840.102001 1075.614,840.452998 1076.022,840.891 C1076.43,841.329002 1076.745,841.838997 1076.967,842.421 C1077.189,843.003003 1077.3,843.605997 1077.3,844.23 C1077.3,844.362001 1077.297,844.481999 1077.291,844.59 C1077.285,844.698001 1077.276,844.782 1077.264,844.842 L1069.47,844.842 C1069.506,845.310002 1069.614,845.735998 1069.794,846.12 C1069.974,846.504002 1070.208,846.833999 1070.496,847.11 C1070.784,847.386001 1071.111,847.601999 1071.477,847.758 C1071.843,847.914001 1072.23,847.992 1072.638,847.992 C1072.926,847.992 1073.208,847.953 1073.484,847.875 C1073.76,847.797 1074.018,847.692001 1074.258,847.56 C1074.498,847.427999 1074.711,847.266001 1074.897,847.074 C1075.083,846.881999 1075.224,846.666001 1075.32,846.426 L1076.688,846.804 C1076.532,847.152002 1076.319,847.469999 1076.049,847.758 C1075.779,848.046001 1075.467,848.294999 1075.113,848.505 C1074.759,848.715001 1074.366,848.879999 1073.934,849 C1073.502,849.120001 1073.052,849.18 1072.584,849.18 Z M1075.806,843.672 C1075.77,843.227998 1075.659,842.817002 1075.473,842.439 C1075.287,842.060998 1075.053,841.740001 1074.771,841.476 C1074.489,841.211999 1074.162,841.005001 1073.79,840.855 C1073.418,840.704999 1073.022,840.63 1072.602,840.63 C1072.182,840.63 1071.786,840.704999 1071.414,840.855 C1071.042,841.005001 1070.715,841.214999 1070.433,841.485 C1070.151,841.755001 1069.923,842.075998 1069.749,842.448 C1069.575,842.820002 1069.47,843.227998 1069.434,843.672 L1075.806,843.672 Z" id="Raleway-Easy-reading" fill="#FFFFFF"></path>
            <path d="M828.568,767.92 L824.648,767.92 L824.648,778 L823.208,778 L823.208,767.92 L819.288,767.92 L819.288,766.64 L828.568,766.64 L828.568,767.92 Z M830.328,780.288 C830.616001,780.32 830.871999,780.336 831.096,780.336 C831.192,780.336 831.282666,780.314667 831.368,780.272 C831.453334,780.229333 831.549333,780.128001 831.656,779.968 C831.762667,779.807999 831.885333,779.573335 832.024,779.264 C832.162667,778.954665 832.333332,778.533336 832.536,778 L829,769.648 L830.456,769.648 L833.304,776.736 L835.896,769.648 L837.24,769.648 L833.144,780.192 C832.951999,780.693336 832.674668,781.053332 832.312,781.272 C831.949332,781.490668 831.522669,781.6 831.032,781.6 C830.914666,781.6 830.797334,781.594667 830.68,781.584 C830.562666,781.573333 830.445334,781.552 830.328,781.52 L830.328,780.288 Z M843.144,778.16 C842.450663,778.16 841.840003,777.989335 841.312,777.648 C840.783997,777.306665 840.365335,776.874669 840.056,776.352 L840.056,781.408 L838.648,781.408 L838.648,769.648 L839.896,769.648 L839.896,771.216 C840.226668,770.703997 840.655997,770.290668 841.184,769.976 C841.712003,769.661332 842.295997,769.504 842.936,769.504 C843.512003,769.504 844.039998,769.621332 844.52,769.856 C845.000002,770.090668 845.415998,770.407998 845.768,770.808 C846.120002,771.208002 846.394666,771.669331 846.592,772.192 C846.789334,772.714669 846.888,773.258664 846.888,773.824 C846.888,774.421336 846.797334,774.983997 846.616,775.512 C846.434666,776.040003 846.178668,776.498665 845.848,776.888 C845.517332,777.277335 845.122669,777.586666 844.664,777.816 C844.205331,778.045334 843.698669,778.16 843.144,778.16 Z M842.712,776.944 C843.128002,776.944 843.503998,776.856001 843.84,776.68 C844.176002,776.503999 844.463999,776.269335 844.704,775.976 C844.944001,775.682665 845.127999,775.349335 845.256,774.976 C845.384001,774.602665 845.448,774.218669 845.448,773.824 C845.448,773.407998 845.373334,773.010669 845.224,772.632 C845.074666,772.253331 844.872001,771.922668 844.616,771.64 C844.359999,771.357332 844.058668,771.133334 843.712,770.968 C843.365332,770.802666 842.989335,770.72 842.584,770.72 C842.327999,770.72 842.064001,770.770666 841.792,770.872 C841.519999,770.973334 841.264001,771.106666 841.024,771.272 C840.783999,771.437334 840.576001,771.634666 840.4,771.864 C840.223999,772.093334 840.109334,772.335999 840.056,772.592 L840.056,774.976 C840.173334,775.253335 840.322666,775.511999 840.504,775.752 C840.685334,775.992001 840.893332,776.199999 841.128,776.376 C841.362668,776.552001 841.613332,776.690666 841.88,776.792 C842.146668,776.893334 842.423999,776.944 842.712,776.944 Z M852.248,778.16 C851.618664,778.16 851.045336,778.042668 850.528,777.808 C850.010664,777.573332 849.568002,777.258669 849.2,776.864 C848.831998,776.469331 848.546668,776.010669 848.344,775.488 C848.141332,774.965331 848.04,774.416003 848.04,773.84 C848.04,773.25333 848.143999,772.698669 848.352,772.176 C848.560001,771.653331 848.847998,771.194669 849.216,770.8 C849.584002,770.405331 850.026664,770.090668 850.544,769.856 C851.061336,769.621332 851.62933,769.504 852.248,769.504 C852.86667,769.504 853.437331,769.621332 853.96,769.856 C854.482669,770.090668 854.927998,770.405331 855.296,770.8 C855.664002,771.194669 855.951999,771.653331 856.16,772.176 C856.368001,772.698669 856.472,773.25333 856.472,773.84 C856.472,774.416003 856.370668,774.965331 856.168,775.488 C855.965332,776.010669 855.677335,776.469331 855.304,776.864 C854.930665,777.258669 854.485336,777.573332 853.968,777.808 C853.450664,778.042668 852.877336,778.16 852.248,778.16 Z M849.48,773.856 C849.48,774.293336 849.551999,774.698665 849.696,775.072 C849.840001,775.445335 850.037332,775.770665 850.288,776.048 C850.538668,776.325335 850.831998,776.543999 851.168,776.704 C851.504002,776.864001 851.863998,776.944 852.248,776.944 C852.632002,776.944 852.991998,776.864001 853.328,776.704 C853.664002,776.543999 853.959999,776.322668 854.216,776.04 C854.472001,775.757332 854.671999,775.426669 854.816,775.048 C854.960001,774.669331 855.032,774.261336 855.032,773.824 C855.032,773.397331 854.960001,772.994669 854.816,772.616 C854.671999,772.237331 854.472001,771.906668 854.216,771.624 C853.959999,771.341332 853.664002,771.120001 853.328,770.96 C852.991998,770.799999 852.632002,770.72 852.248,770.72 C851.863998,770.72 851.504002,770.802666 851.168,770.968 C850.831998,771.133334 850.538668,771.357332 850.288,771.64 C850.037332,771.922668 849.840001,772.253331 849.696,772.632 C849.551999,773.010669 849.48,773.418664 849.48,773.856 Z M861.48,778.096 C860.914664,778.096 860.394669,777.978668 859.92,777.744 C859.445331,777.509332 859.037335,777.194669 858.696,776.8 C858.354665,776.405331 858.090668,775.952003 857.904,775.44 C857.717332,774.927997 857.624,774.394669 857.624,773.84 C857.624,773.25333 857.717332,772.696003 857.904,772.168 C858.090668,771.639997 858.354665,771.178669 858.696,770.784 C859.037335,770.389331 859.445331,770.077334 859.92,769.848 C860.394669,769.618666 860.919997,769.504 861.496,769.504 C862.200004,769.504 862.807997,769.674665 863.32,770.016 C863.832003,770.357335 864.263998,770.789331 864.616,771.312 L864.616,769.648 L865.864,769.648 L865.864,777.904 C865.864,778.501336 865.752001,779.026664 865.528,779.48 C865.303999,779.933336 865.000002,780.314665 864.616,780.624 C864.231998,780.933335 863.781336,781.167999 863.264,781.328 C862.746664,781.488001 862.19467,781.568 861.608,781.568 C860.658662,781.568 859.888003,781.405335 859.296,781.08 C858.703997,780.754665 858.210669,780.304003 857.816,779.728 L858.632,779.008 C858.962668,779.498669 859.389331,779.866665 859.912,780.112 C860.434669,780.357335 860.999997,780.48 861.608,780.48 C861.992002,780.48 862.357332,780.426667 862.704,780.32 C863.050668,780.213333 863.351999,780.053334 863.608,779.84 C863.864001,779.626666 864.069333,779.360002 864.224,779.04 C864.378667,778.719998 864.456,778.341336 864.456,777.904 L864.456,776.432 C864.295999,776.688001 864.106668,776.919999 863.888,777.128 C863.669332,777.336001 863.432001,777.511999 863.176,777.656 C862.919999,777.800001 862.648001,777.909333 862.36,777.984 C862.071999,778.058667 861.778668,778.096 861.48,778.096 Z M861.912,776.944 C862.210668,776.944 862.498665,776.890667 862.776,776.784 C863.053335,776.677333 863.309332,776.536001 863.544,776.36 C863.778668,776.183999 863.975999,775.984001 864.136,775.76 C864.296001,775.535999 864.402666,775.306668 864.456,775.072 L864.456,772.672 C864.338666,772.383999 864.186668,772.122668 864,771.888 C863.813332,771.653332 863.602668,771.448001 863.368,771.272 C863.133332,771.095999 862.880001,770.96 862.608,770.864 C862.335999,770.768 862.061335,770.72 861.784,770.72 C861.357331,770.72 860.976002,770.810666 860.64,770.992 C860.303998,771.173334 860.018668,771.413332 859.784,771.712 C859.549332,772.010668 859.368001,772.349331 859.24,772.728 C859.111999,773.106669 859.048,773.487998 859.048,773.872 C859.048,774.288002 859.122666,774.682665 859.272,775.056 C859.421334,775.429335 859.623999,775.754665 859.88,776.032 C860.136001,776.309335 860.437332,776.530666 860.784,776.696 C861.130668,776.861334 861.506665,776.944 861.912,776.944 Z M872.488,770.88 C871.783996,770.901333 871.162669,771.082665 870.624,771.424 C870.085331,771.765335 869.704001,772.239997 869.48,772.848 L869.48,778 L868.072,778 L868.072,769.648 L869.384,769.648 L869.384,771.584 C869.672001,771.007997 870.050664,770.530669 870.52,770.152 C870.989336,769.773331 871.490664,769.584 872.024,769.584 L872.296,769.584 C872.370667,769.584 872.434666,769.589333 872.488,769.6 L872.488,770.88 Z M876.12,778.16 C875.703998,778.16 875.320002,778.093334 874.968,777.96 C874.615998,777.826666 874.312001,777.645334 874.056,777.416 C873.799999,777.186666 873.600001,776.914668 873.456,776.6 C873.311999,776.285332 873.24,775.952002 873.24,775.6 C873.24,775.205331 873.325332,774.845335 873.496,774.52 C873.666668,774.194665 873.909332,773.917334 874.224,773.688 C874.538668,773.458666 874.911998,773.282667 875.344,773.16 C875.776002,773.037333 876.247997,772.976 876.76,772.976 C877.165335,772.976 877.575998,773.013333 877.992,773.088 C878.408002,773.162667 878.775998,773.263999 879.096,773.392 L879.096,772.72 C879.096,772.03733 878.904002,771.501335 878.52,771.112 C878.135998,770.722665 877.592004,770.528 876.888,770.528 C876.045329,770.528 875.160005,770.85333 874.232,771.504 L873.768,770.592 C874.312003,770.229332 874.850664,769.957334 875.384,769.776 C875.917336,769.594666 876.471997,769.504 877.048,769.504 C878.114672,769.504 878.95733,769.79733 879.576,770.384 C880.19467,770.97067 880.504,771.797328 880.504,772.864 L880.504,776.272 C880.504,776.602668 880.653332,776.773333 880.952,776.784 L880.952,778 C880.845333,778.021333 880.744,778.037333 880.648,778.048 C880.552,778.058667 880.461334,778.064 880.376,778.064 C880.141332,778.064 879.912001,778.000001 879.688,777.872 C879.463999,777.743999 879.341333,777.525335 879.32,777.216 L879.288,776.624 C879.095999,776.880001 878.877335,777.103999 878.632,777.296 C878.386665,777.488001 878.125335,777.647999 877.848,777.776 C877.570665,777.904001 877.285335,778 876.992,778.064 C876.698665,778.128 876.408001,778.16 876.12,778.16 Z M876.472,777.104 C876.920002,777.104 877.357331,777.008001 877.784,776.816 C878.210669,776.623999 878.546665,776.389335 878.792,776.112 C878.994668,775.877332 879.096,775.658668 879.096,775.456 L879.096,774.224 C878.765332,774.095999 878.416002,773.997334 878.048,773.928 C877.679998,773.858666 877.325335,773.824 876.984,773.824 C876.258663,773.824 875.677336,773.970665 875.24,774.264 C874.802664,774.557335 874.584,774.959997 874.584,775.472 C874.584,775.685334 874.626666,775.890666 874.712,776.088 C874.797334,776.285334 874.919999,776.458666 875.08,776.608 C875.240001,776.757334 875.437332,776.877333 875.672,776.968 C875.906668,777.058667 876.173332,777.104 876.472,777.104 Z M887.272,778.16 C886.578663,778.16 885.968003,777.989335 885.44,777.648 C884.911997,777.306665 884.493335,776.874669 884.184,776.352 L884.184,781.408 L882.776,781.408 L882.776,769.648 L884.024,769.648 L884.024,771.216 C884.354668,770.703997 884.783997,770.290668 885.312,769.976 C885.840003,769.661332 886.423997,769.504 887.064,769.504 C887.640003,769.504 888.167998,769.621332 888.648,769.856 C889.128002,770.090668 889.543998,770.407998 889.896,770.808 C890.248002,771.208002 890.522666,771.669331 890.72,772.192 C890.917334,772.714669 891.016,773.258664 891.016,773.824 C891.016,774.421336 890.925334,774.983997 890.744,775.512 C890.562666,776.040003 890.306668,776.498665 889.976,776.888 C889.645332,777.277335 889.250669,777.586666 888.792,777.816 C888.333331,778.045334 887.826669,778.16 887.272,778.16 Z M886.84,776.944 C887.256002,776.944 887.631998,776.856001 887.968,776.68 C888.304002,776.503999 888.591999,776.269335 888.832,775.976 C889.072001,775.682665 889.255999,775.349335 889.384,774.976 C889.512001,774.602665 889.576,774.218669 889.576,773.824 C889.576,773.407998 889.501334,773.010669 889.352,772.632 C889.202666,772.253331 889.000001,771.922668 888.744,771.64 C888.487999,771.357332 888.186668,771.133334 887.84,770.968 C887.493332,770.802666 887.117335,770.72 886.712,770.72 C886.455999,770.72 886.192001,770.770666 885.92,770.872 C885.647999,770.973334 885.392001,771.106666 885.152,771.272 C884.911999,771.437334 884.704001,771.634666 884.528,771.864 C884.351999,772.093334 884.237334,772.335999 884.184,772.592 L884.184,774.976 C884.301334,775.253335 884.450666,775.511999 884.632,775.752 C884.813334,775.992001 885.021332,776.199999 885.256,776.376 C885.490668,776.552001 885.741332,776.690666 886.008,776.792 C886.274668,776.893334 886.551999,776.944 886.84,776.944 Z M899.944,778 L898.536,778 L898.536,773.328 C898.536,772.463996 898.386668,771.821335 898.088,771.4 C897.789332,770.978665 897.352003,770.768 896.776,770.768 C896.498665,770.768 896.221335,770.823999 895.944,770.936 C895.666665,771.048001 895.408001,771.199999 895.168,771.392 C894.927999,771.584001 894.714668,771.813332 894.528,772.08 C894.341332,772.346668 894.2,772.639998 894.104,772.96 L894.104,778 L892.696,778 L892.696,766.32 L894.104,766.32 L894.104,771.44 C894.434668,770.831997 894.882664,770.357335 895.448,770.016 C896.013336,769.674665 896.631997,769.504 897.304,769.504 C897.794669,769.504 898.210665,769.594666 898.552,769.776 C898.893335,769.957334 899.165332,770.202665 899.368,770.512 C899.570668,770.821335 899.717333,771.191998 899.808,771.624 C899.898667,772.056002 899.944,772.517331 899.944,773.008 L899.944,778 Z M902.44,780.288 C902.728001,780.32 902.983999,780.336 903.208,780.336 C903.304,780.336 903.394666,780.314667 903.48,780.272 C903.565334,780.229333 903.661333,780.128001 903.768,779.968 C903.874667,779.807999 903.997333,779.573335 904.136,779.264 C904.274667,778.954665 904.445332,778.533336 904.648,778 L901.112,769.648 L902.568,769.648 L905.416,776.736 L908.008,769.648 L909.352,769.648 L905.256,780.192 C905.063999,780.693336 904.786668,781.053332 904.424,781.272 C904.061332,781.490668 903.634669,781.6 903.144,781.6 C903.026666,781.6 902.909334,781.594667 902.792,781.584 C902.674666,781.573333 902.557334,781.552 902.44,781.52 L902.44,780.288 Z" id="Typography" fill="#8A8A8A"></path>
        </g>
    </g>
</svg>
