
<svg width="531px" height="650px" viewBox="0 0 531 650" version="1.1" xmlns="http://www.w3.org/2000/svg" xmlns:xlink="http://www.w3.org/1999/xlink">
    <defs>
        <polygon id="path-1" points="0 0 650 0 650 650 0 650"></polygon>
    </defs>
    <g id="Page-1" stroke="none" stroke-width="1" fill="none" fill-rule="evenodd" opacity="0.0876116071">
        <g id="NewsOK-Now" transform="translate(-909.000000, -1041.000000)">
            <g id="Group-3" transform="translate(909.000000, 1041.000000)">
                <mask id="mask-2" fill="white">
                    <use xlink:href="#path-1"></use>
                </mask>
                <g id="Clip-2"></g>
                <path d="M428.793869,17.0341832 C396.191166,6.04453354 361.308173,0 325,0 C251.885972,0 184.422898,24.150988 130.130302,64.8972972 L127.614745,68.910397 L428.793869,234.81384 L428.793869,17.0341832 Z M454.324962,26.8113067 L454.324962,376.045995 L644.923642,268.072348 C625.735734,159.492437 552.694096,69.5392818 454.324962,26.8113067 Z M648.525051,294.503609 L345.423065,469.632205 L529.886682,577.234856 C603.154539,517.640098 650,426.809219 650,324.997738 C650,314.713887 649.466123,304.552194 648.525051,294.503609 Z M209.293431,628.712926 C245.248702,642.421711 284.230785,650 325,650 C391.816087,650 453.904194,629.812344 505.545501,595.250823 L209.293431,421.98626 L209.293431,628.712926 Z M183.771386,617.777569 L183.771386,277.360841 L4.98587,381.439022 C23.2779502,485.81581 91.2749015,573.076977 183.771386,617.777569 Z M111.055504,80.4701149 L287.56978,187.17242 L1.49757075,355.876436 C0.542925953,345.710219 0,335.417319 0,324.997738 C0,227.475342 43.017833,140.037726 111.055504,80.4701149 Z" id="Fill-1" fill="#C5D1EA" mask="url(#mask-2)"></path>
            </g>
        </g>
    </g>
</svg>
