
<svg width="355px" height="303px" viewBox="0 0 355 303" version="1.1" xmlns="http://www.w3.org/2000/svg" xmlns:xlink="http://www.w3.org/1999/xlink">
    <defs>
        <rect id="path-1" x="0" y="0" width="355" height="303" rx="8"></rect>
    </defs>
    <g id="Page-1" stroke="none" stroke-width="1" fill="none" fill-rule="evenodd">
        <g id="ditto-writer" transform="translate(-543.000000, -77.000000)">
            <g id="Group-2" transform="translate(543.000000, 77.000000)">
                <g id="Group">
                    <g id="Rectangle-Copy">
                        <mask id="mask-2" fill="white">
                            <use xlink:href="#path-1"></use>
                        </mask>
                        <use id="Mask" fill-opacity="0.5" fill="#FFFFFF" xlink:href="#path-1"></use>
                        <rect fill-opacity="0.5" fill="#FFFFFF" mask="url(#mask-2)" x="8" y="20" width="340" height="276"></rect>
                    </g>
                    <circle id="Oval" fill-opacity="0.3" fill="#C4C4C4" cx="16.5" cy="9.5" r="4.5"></circle>
                    <circle id="Oval-Copy" fill-opacity="0.3" fill="#C4C4C4" cx="29.5" cy="9.5" r="4.5"></circle>
                    <circle id="Oval-Copy-2" fill-opacity="0.3" fill="#C4C4C4" cx="43.5" cy="9.5" r="4.5"></circle>
                </g>
                <g id="DittoAbstractLogo" transform="translate(114.000000, 75.000000)">
                    <polygon id="Path" fill="#A4D5DC" points="114 43.5740599 53 11 53 56.6046402 113.852046 92"></polygon>
                    <polygon id="Path" fill="#C8188D" points="45 34 44.4063984 86.8599886 7.20419895 109 7 54.750332"></polygon>
                    <polygon id="Path" fill="#6A66AD" points="127 118.4032 65.8632945 154 25 130.0384 86.6449793 94"></polygon>
                    <polygon id="Path" fill="#2E3192" opacity="0.85" points="123.966643 0 124 111.249515 84.0571837 135 84 23.0082819"></polygon>
                    <polygon id="Path" fill="#EB68A7" points="95 41.9333953 43.5309712 70 2 46.872093 52.6774177 19"></polygon>
                    <polygon id="Path" fill="#965BA6" points="62 96.2744622 0 63 0 108.93374 62 143"></polygon>
                </g>
            </g>
        </g>
    </g>
</svg>
