<?xml version="1.0" encoding="utf-8"?>
<!-- Generator: Adobe Illustrator 16.0.4, SVG Export Plug-In . SVG Version: 6.00 Build 0)  -->
<!DOCTYPE svg PUBLIC "-//W3C//DTD SVG 1.1//EN" "http://www.w3.org/Graphics/SVG/1.1/DTD/svg11.dtd">
<svg version="1.1" xmlns="http://www.w3.org/2000/svg" xmlns:xlink="http://www.w3.org/1999/xlink" x="0px" y="0px"
	 width="298.667px" height="298.667px" viewBox="0 0 298.667 298.667" enable-background="new 0 0 298.667 298.667"
	 xml:space="preserve">
<g id="Layer_1">
	<path fill="#FFFFFF" d="M265.267,94.102l-0.809-1.663l-19.976,9.709c-17.534-34.198-53.141-57.601-94.214-57.601
		c-58.438,0-105.811,47.373-105.811,105.811c0,15.818,3.477,30.823,9.699,44.3l-20.582,10.004l0.808,1.662l20.559-9.992
		c17.108,35.409,53.364,59.837,95.327,59.837c58.438,0,105.811-47.373,105.811-105.811c0-16.707-3.877-32.505-10.772-46.555
		L265.267,94.102z"/>
	<polygon fill-rule="evenodd" clip-rule="evenodd" fill="#231F20" points="150.007,146.06 149.421,149.382 144.406,152.378 
		149.291,150.945 149.748,153.485 150.269,150.358 155.675,147.036 150.333,148.926 	"/>
	<polygon fill-rule="evenodd" clip-rule="evenodd" fill="#FBB040" points="150.041,136.834 148.473,148.553 138.31,155.309 
		148.332,151.886 149.431,163.126 151.291,150.312 161.771,144.126 151.122,146.871 	"/>
	<g>
		<path d="M131.793,131.211v26.665l4.169-2.55v-24.115c0.014-3.262-1.209-5.976-3.125-7.743c-1.91-1.775-4.396-2.619-6.846-2.619
			c-2.472,0-4.974,0.855-6.902,2.631c-1.934,1.765-3.186,4.479-3.17,7.731l-0.018,72.483h0.025l-0.013,2.131
			c-0.016,2.254-0.765,3.68-1.829,4.68c-1.069,0.99-2.562,1.527-4.075,1.525c-1.502,0.002-2.958-0.523-4.003-1.5
			c-1.039-0.986-1.783-2.412-1.797-4.691v-87.182c1.096-0.693,1.825-1.911,1.825-3.304c0-2.159-1.749-3.907-3.908-3.909
			c-2.16,0.002-3.909,1.75-3.91,3.909c0.001,1.392,0.729,2.608,1.823,3.302v87.184c-0.014,3.262,1.208,5.975,3.125,7.74
			c1.91,1.775,4.395,2.621,6.846,2.621c2.471-0.002,4.974-0.855,6.901-2.631c1.936-1.764,3.187-4.479,3.172-7.73l0.016-2.635h-0.027
			l0.016-71.992c0.016-2.242,0.766-3.668,1.83-4.668c1.068-0.992,2.561-1.528,4.074-1.526c1.502-0.001,2.959,0.523,4.004,1.501
			C131.035,127.504,131.778,128.93,131.793,131.211z M103.37,116.68h-0.715l-0.481,25.271l-0.564-25.271h-0.727
			c-0.354-0.333-0.579-0.802-0.58-1.326c0.001-1.007,0.817-1.821,1.824-1.824c1.007,0.003,1.822,0.817,1.823,1.824
			C103.949,115.878,103.725,116.347,103.37,116.68z"/>
		<path d="M149.421,178.834l-1.758-21.835l0,0v40.84c-0.016,2.279-0.758,3.705-1.798,4.691c-1.045,0.977-2.503,1.502-4.003,1.5
			c-1.514,0.002-3.006-0.535-4.074-1.525c-1.064-1-1.814-2.426-1.83-4.666l-0.014-2.145h0.018v-37.943l-4.169,1.352v36.102h-0.021
			l0.018,2.646c-0.016,3.24,1.236,5.955,3.17,7.719c1.93,1.775,4.431,2.629,6.902,2.631c2.45,0,4.936-0.846,6.846-2.621
			c1.916-1.766,3.139-4.479,3.125-7.74v-44.131l0,0L149.421,178.834z"/>
	</g>
	<g>
		<path d="M199.535,180.849V94.707c0.014-3.263-1.211-5.976-3.127-7.743c-1.91-1.775-4.395-2.619-6.846-2.619
			c-2.471,0-4.973,0.855-6.902,2.631c-1.932,1.766-3.184,4.479-3.17,7.731l-0.016,2.636h0.027l-0.018,80.949
			c-0.014,2.242-0.764,3.668-1.826,4.668c-1.07,0.992-2.562,1.527-4.076,1.525c-1.502,0-2.959-0.523-4.004-1.5
			c-1.039-0.986-1.783-2.412-1.797-4.693v-35.999l-4.17,2.677v33.322c-0.016,3.262,1.207,5.975,3.125,7.744
			c1.91,1.775,4.395,2.619,6.846,2.619c2.471-0.002,4.973-0.857,6.902-2.631c1.934-1.766,3.186-4.479,3.17-7.732l0.018-81.439
			h-0.025l0.014-2.133c0.014-2.254,0.764-3.68,1.828-4.681c1.068-0.991,2.561-1.526,4.074-1.526c1.502,0,2.959,0.523,4.004,1.502
			c1.039,0.986,1.783,2.412,1.797,4.692v86.14c-1.096,0.693-1.824,1.912-1.824,3.305c0,2.158,1.75,3.906,3.908,3.908
			c2.16-0.002,3.908-1.75,3.908-3.908C201.355,182.759,200.626,181.542,199.535,180.849z M197.447,185.974
			c-1.008-0.002-1.822-0.816-1.824-1.822c0.002-0.525,0.227-0.994,0.58-1.326h0.674l0.523-25.494l0.632,25.494h0.659
			c0.354,0.332,0.578,0.801,0.58,1.326C199.269,185.157,198.455,185.972,197.447,185.974z"/>
		<path d="M150.269,123.084l1.641,20.496l0,0v-37.873c0.014-2.28,0.758-3.706,1.797-4.692c1.045-0.978,2.502-1.502,4.004-1.502
			c1.512,0,3.006,0.535,4.074,1.527c1.064,1,1.814,2.426,1.828,4.667l0.014,2.146h-0.016v34.086l4.17-1.438v-32.158h0.02
			l-0.018-2.648c0.016-3.239-1.236-5.953-3.17-7.719c-1.93-1.774-4.432-2.631-6.902-2.632c-2.451,0.001-4.936,0.845-6.846,2.62
			c-1.916,1.768-3.139,4.48-3.125,7.743v41.164l0,0L150.269,123.084z"/>
	</g>
	<path fill="none" stroke="#000000" stroke-miterlimit="3.8637" d="M149.353,188.938"/>
	<path fill="none" stroke="#000000" stroke-miterlimit="3.8637" d="M149.832,121.245"/>
</g>
<g id="mask" display="none">
	<g display="inline">
		<path fill="#FFFFFF" d="M110.01,217.2c-2.85,0-5.523-1.026-7.526-2.889c-2.234-2.059-3.458-5.07-3.444-8.477v-86.668
			c-1.15-0.928-1.822-2.316-1.823-3.813c0.001-2.705,2.204-4.907,4.909-4.91c2.708,0.002,4.909,2.205,4.909,4.909
			c0,1.499-0.673,2.888-1.825,3.816v86.669c0.011,1.752,0.483,3.015,1.486,3.966c0.831,0.777,2.039,1.226,3.307,1.226
			c1.305,0,2.54-0.459,3.404-1.259c1.016-0.954,1.497-2.212,1.509-3.953l0.008-1.309l-0.021-0.815l0.018-72.483
			c-0.016-3.388,1.225-6.398,3.496-8.47c2.025-1.864,4.717-2.892,7.577-2.892c2.851,0,5.524,1.025,7.526,2.887
			c2.234,2.061,3.458,5.074,3.444,8.48v23.473l-6.169,3.812v-27.29c-0.012-1.754-0.484-3.017-1.486-3.967
			c-0.832-0.778-2.041-1.227-3.312-1.227c-1.303,0-2.537,0.459-3.398,1.259c-1.018,0.956-1.499,2.209-1.511,3.942l-0.016,70.985
			h0.006l0.021,1.006l-0.016,2.635c0.015,3.385-1.227,6.395-3.499,8.464C115.564,216.17,112.873,217.198,110.01,217.2L110.01,217.2z
			"/>
		<path fill="#FFFFFF" d="M141.862,209.2c-2.86-0.002-5.552-1.03-7.579-2.895c-2.234-2.039-3.509-5.123-3.493-8.46l-0.024-3.642
			l0.027,1.489v-36.255l6.169-1.938v39.193h-0.011l0.007,1.138c0.012,1.731,0.493,2.984,1.515,3.944
			c0.858,0.795,2.093,1.254,3.381,1.254c1.285,0,2.492-0.448,3.329-1.23c0.996-0.945,1.468-2.207,1.48-3.968v-40.833h1l1.758,21.835
			l2.412-25.126h1v44.131c0.015,3.402-1.21,6.414-3.447,8.476C147.385,208.175,144.712,209.2,141.862,209.2L141.862,209.2z"/>
	</g>
	<g display="inline">
		<path fill="#FFFFFF" d="M173.582,189.655c-2.851,0-5.523-1.025-7.526-2.887c-2.236-2.063-3.461-5.076-3.444-8.481v-32.661
			l6.17-3.961v36.627c0.011,1.753,0.482,3.017,1.485,3.968c0.831,0.777,2.042,1.226,3.315,1.226c1.299,0,2.533-0.459,3.396-1.259
			c1.015-0.955,1.495-2.209,1.506-3.94l0.018-79.943h-0.006l-0.021-1.006l0.016-2.636c-0.015-3.381,1.228-6.391,3.495-8.464
			c2.026-1.864,4.719-2.893,7.577-2.893c2.851,0,5.523,1.025,7.526,2.887c2.235,2.062,3.461,5.075,3.446,8.48v85.626
			c1.149,0.929,1.82,2.316,1.82,3.813c0,2.704-2.201,4.905-4.907,4.908c-2.708-0.003-4.909-2.204-4.909-4.908
			c0-1.499,0.673-2.889,1.824-3.816V94.707c-0.011-1.753-0.482-3.015-1.485-3.967c-0.831-0.778-2.041-1.227-3.315-1.227
			c-1.294,0-2.531,0.459-3.395,1.259c-1.017,0.957-1.497,2.214-1.508,3.954l-0.009,1.324l0.021,0.803l-0.018,81.439
			c0.017,3.388-1.226,6.397-3.496,8.471C179.132,188.625,176.441,189.653,173.582,189.655L173.582,189.655z"/>
		<path fill="#FFFFFF" d="M146.74,146.871v-41.164c-0.014-3.402,1.21-6.415,3.447-8.478c2-1.858,4.672-2.884,7.524-2.885
			c2.858,0.001,5.55,1.029,7.579,2.896c2.268,2.071,3.51,5.076,3.493,8.46l0.024,3.644h-0.026v30.846l-6.17,2.128v-35.464h0.009
			l-0.007-1.139c-0.011-1.731-0.491-2.985-1.513-3.944c-0.858-0.797-2.095-1.256-3.39-1.256c-1.273,0-2.483,0.449-3.32,1.232
			c-0.998,0.947-1.47,2.209-1.48,3.968v37.867h-1l-1.672-20.203l-2.498,23.494H146.74z"/>
	</g>
</g>
</svg>
