<?xml version="1.0" encoding="utf-8"?>
<!-- Generator: Adobe Illustrator 16.0.4, SVG Export Plug-In . SVG Version: 6.00 Build 0)  -->
<!DOCTYPE svg PUBLIC "-//W3C//DTD SVG 1.1//EN" "http://www.w3.org/Graphics/SVG/1.1/DTD/svg11.dtd">
<svg version="1.1" id="Layer_1" xmlns="http://www.w3.org/2000/svg" xmlns:xlink="http://www.w3.org/1999/xlink" x="0px" y="0px"
	 width="600px" height="600px" viewBox="0 0 600 600" enable-background="new 0 0 600 600" xml:space="preserve">
<g>
	
		<rect x="298.832" y="170.025" transform="matrix(0.437 0.8994 -0.8994 0.437 437.1275 -101.6361)" width="1.848" height="256.711"/>
	<circle cx="300.604" cy="299.357" r="105.811"/>
</g>
<polygon fill-rule="evenodd" clip-rule="evenodd" fill="#231F20" points="300.342,295.059 299.756,298.381 294.74,301.377 
	299.625,299.944 300.082,302.484 300.604,299.357 306.01,296.035 300.668,297.925 "/>
<polygon fill-rule="evenodd" clip-rule="evenodd" fill="#FBB040" points="300.375,285.833 298.807,297.552 288.645,304.308 
	298.667,300.885 299.765,312.125 301.625,299.311 312.105,293.125 301.456,295.87 "/>
<g>
	<path fill="#FFFFFF" d="M282.128,280.21v26.665l4.169-2.55V280.21c0.014-3.262-1.209-5.976-3.125-7.743
		c-1.91-1.775-4.396-2.619-6.846-2.619c-2.472,0-4.974,0.855-6.902,2.631c-1.934,1.765-3.186,4.479-3.17,7.731l-0.018,72.483h0.025
		l-0.013,2.131c-0.016,2.254-0.765,3.68-1.829,4.68c-1.069,0.99-2.562,1.527-4.075,1.525c-1.502,0.002-2.958-0.523-4.003-1.5
		c-1.039-0.986-1.783-2.412-1.797-4.691v-87.182c1.096-0.693,1.825-1.911,1.825-3.304c0-2.159-1.749-3.907-3.908-3.909
		c-2.16,0.002-3.909,1.75-3.91,3.909c0.001,1.392,0.729,2.608,1.823,3.302v87.184c-0.014,3.262,1.208,5.975,3.125,7.74
		c1.91,1.775,4.395,2.621,6.846,2.621c2.471-0.002,4.974-0.855,6.901-2.631c1.936-1.764,3.187-4.479,3.172-7.73l0.016-2.635h-0.027
		l0.016-71.992c0.016-2.242,0.766-3.668,1.83-4.668c1.068-0.992,2.561-1.528,4.074-1.526c1.502-0.001,2.959,0.523,4.004,1.501
		C281.369,276.503,282.112,277.929,282.128,280.21z M253.705,265.679h-0.715l-0.481,25.271l-0.564-25.271h-0.727
		c-0.354-0.333-0.579-0.802-0.58-1.326c0.001-1.007,0.817-1.821,1.824-1.824c1.007,0.003,1.822,0.817,1.823,1.824
		C254.284,264.877,254.059,265.346,253.705,265.679z"/>
	<path fill="#FFFFFF" d="M299.756,327.833l-1.758-21.835l0,0v40.84c-0.016,2.279-0.758,3.705-1.798,4.691
		c-1.045,0.977-2.503,1.502-4.003,1.5c-1.514,0.002-3.006-0.535-4.074-1.525c-1.064-1-1.814-2.426-1.83-4.666l-0.014-2.145h0.018
		V306.75l-4.169,1.352v36.102h-0.021l0.018,2.646c-0.016,3.24,1.236,5.955,3.17,7.719c1.93,1.775,4.431,2.629,6.902,2.631
		c2.45,0,4.936-0.846,6.846-2.621c1.916-1.766,3.139-4.479,3.125-7.74v-44.131l0,0L299.756,327.833z"/>
</g>
<g>
	<path fill="#FFFFFF" d="M349.869,329.848v-86.142c0.014-3.263-1.211-5.976-3.127-7.743c-1.91-1.775-4.395-2.619-6.846-2.619
		c-2.471,0-4.973,0.855-6.902,2.631c-1.932,1.766-3.184,4.479-3.17,7.731l-0.016,2.636h0.027l-0.018,80.949
		c-0.014,2.242-0.764,3.668-1.826,4.668c-1.07,0.992-2.562,1.527-4.076,1.525c-1.502,0-2.959-0.523-4.004-1.5
		c-1.039-0.986-1.783-2.412-1.797-4.693v-35.999l-4.17,2.677v33.322c-0.016,3.262,1.207,5.975,3.125,7.744
		c1.91,1.775,4.395,2.619,6.846,2.619c2.471-0.002,4.973-0.857,6.902-2.631c1.934-1.766,3.186-4.479,3.17-7.732l0.018-81.439h-0.025
		l0.014-2.133c0.014-2.254,0.764-3.68,1.828-4.681c1.068-0.991,2.561-1.526,4.074-1.526c1.502,0,2.959,0.523,4.004,1.502
		c1.039,0.986,1.783,2.412,1.797,4.692v86.14c-1.096,0.693-1.824,1.912-1.824,3.305c0,2.158,1.75,3.906,3.908,3.908
		c2.16-0.002,3.908-1.75,3.908-3.908C351.689,331.758,350.961,330.541,349.869,329.848z M347.781,334.973
		c-1.008-0.002-1.822-0.816-1.824-1.822c0.002-0.525,0.227-0.994,0.58-1.326h0.674l0.523-25.494l0.632,25.494h0.659
		c0.354,0.332,0.578,0.801,0.58,1.326C349.604,334.156,348.789,334.971,347.781,334.973z"/>
	<path fill="#FFFFFF" d="M300.604,272.083l1.641,20.496l0,0v-37.873c0.014-2.28,0.758-3.706,1.797-4.692
		c1.045-0.978,2.502-1.502,4.004-1.502c1.512,0,3.006,0.535,4.074,1.527c1.064,1,1.814,2.426,1.828,4.667l0.014,2.146h-0.016v34.086
		l4.17-1.438v-32.158h0.02l-0.018-2.648c0.016-3.239-1.236-5.953-3.17-7.719c-1.93-1.774-4.432-2.631-6.902-2.632
		c-2.451,0.001-4.936,0.845-6.846,2.62c-1.916,1.768-3.139,4.48-3.125,7.743v41.164l0,0L300.604,272.083z"/>
</g>
<path fill="none" stroke="#000000" stroke-miterlimit="3.8637" d="M299.688,337.938"/>
<path fill="none" stroke="#000000" stroke-miterlimit="3.8637" d="M300.166,270.244"/>
</svg>
