<?xml version="1.0" encoding="utf-8"?>
<!-- Generator: Adobe Illustrator 16.0.4, SVG Export Plug-In . SVG Version: 6.00 Build 0)  -->
<!DOCTYPE svg PUBLIC "-//W3C//DTD SVG 1.1//EN" "http://www.w3.org/Graphics/SVG/1.1/DTD/svg11.dtd">
<svg version="1.1" xmlns="http://www.w3.org/2000/svg" xmlns:xlink="http://www.w3.org/1999/xlink" x="0px" y="0px"
	 width="264.529px" height="70px" viewBox="0 0 264.529 70" enable-background="new 0 0 264.529 70" xml:space="preserve">
<g id="wittmason.com" display="none">
	<path display="inline" fill="#FFFFFF" d="M18.833,9.548l7.066,18.141L33.282,8.23l7.066,19.459l7.506-18.141h4.446L40.172,38.412
		l-6.979-19.231L25.917,38.43L14.385,9.548H18.833z"/>
	<path display="inline" fill="#FFFFFF" d="M61.932,9.548v27.142h-4.097V9.548H61.932z"/>
	<polygon display="inline" fill="#FFFFFF" points="88.325,9.548 87.293,9.548 68.766,9.548 68.766,13.398 75.006,13.398 
		75.006,36.689 79.102,36.689 79.102,13.398 87.293,13.398 88.325,13.398 96.533,13.398 96.533,36.689 100.629,36.689 
		100.629,13.398 106.852,13.398 106.852,9.548 	"/>
	<path display="inline" fill="#FFFFFF" d="M110.719,36.689l5.713-29.181l9.315,21.094l9.65-21.094l5.133,29.181h-4.201
		l-2.619-16.383l-8.032,17.631l-7.806-17.649l-2.918,16.401H110.719z"/>
	<path display="inline" fill="#FFFFFF" d="M162.383,30.097h-11.618l-3.023,6.592h-4.412l13.43-28.847l12.955,28.847h-4.481
		L162.383,30.097z M160.713,26.248l-4.024-9.229l-4.219,9.229H160.713z"/>
	<path display="inline" fill="#FFFFFF" d="M188.892,13.591l-3.322,1.969c-0.621-1.078-1.213-1.781-1.775-2.109
		c-0.586-0.375-1.342-0.562-2.268-0.562c-1.137,0-2.08,0.322-2.83,0.967c-0.75,0.633-1.125,1.43-1.125,2.391
		c0,1.324,0.984,2.391,2.953,3.199l2.707,1.107c2.203,0.891,3.813,1.978,4.834,3.261c1.02,1.283,1.529,2.856,1.529,4.72
		c0,2.496-0.832,4.559-2.496,6.188c-1.677,1.641-3.757,2.461-6.24,2.461c-2.355,0-4.301-0.697-5.836-2.093
		c-1.512-1.395-2.455-3.357-2.83-5.889l4.147-0.914c0.188,1.594,0.517,2.695,0.984,3.305c0.844,1.172,2.074,1.758,3.691,1.758
		c1.276,0,2.338-0.428,3.182-1.283s1.266-1.939,1.266-3.252c0-0.527-0.072-1.011-0.22-1.45c-0.146-0.439-0.375-0.844-0.686-1.213
		c-0.312-0.369-0.712-0.715-1.204-1.037c-0.492-0.322-1.078-0.63-1.758-0.923l-2.619-1.09c-3.715-1.57-5.572-3.867-5.572-6.891
		c0-2.039,0.779-3.744,2.338-5.115c1.559-1.383,3.498-2.074,5.818-2.074C184.69,9.021,187.134,10.544,188.892,13.591z"/>
	<path display="inline" fill="#FFFFFF" d="M194.341,22.996c0-3.82,1.4-7.102,4.201-9.844c2.789-2.742,6.142-4.113,10.056-4.113
		c3.866,0,7.184,1.383,9.948,4.148c2.777,2.766,4.166,6.088,4.166,9.967c0,3.902-1.395,7.213-4.184,9.932
		c-2.801,2.73-6.182,4.096-10.144,4.096c-3.504,0-6.649-1.213-9.438-3.639C195.876,30.859,194.341,27.343,194.341,22.996z
		 M198.472,23.048c0,3,1.008,5.467,3.022,7.4c2.004,1.934,4.318,2.9,6.943,2.9c2.848,0,5.25-0.984,7.207-2.953
		c1.957-1.992,2.936-4.418,2.936-7.277c0-2.895-0.967-5.32-2.899-7.277c-1.923-1.969-4.302-2.953-7.138-2.953
		c-2.823,0-5.209,0.984-7.153,2.953C199.444,17.787,198.472,20.189,198.472,23.048z"/>
	<path display="inline" fill="#FFFFFF" d="M228.582,36.689V7.703l19.793,20.707V9.548h4.097v28.793l-19.793-20.655v19.001h-4.097
		V36.689z"/>
	<path display="inline" fill="#FFFFFF" d="M112.937,60.74c0-0.383,0.14-0.713,0.42-0.994c0.28-0.279,0.615-0.42,1.005-0.42
		s0.725,0.141,1.005,0.42c0.28,0.281,0.42,0.615,0.42,1.004c0,0.398-0.14,0.736-0.42,1.016c-0.273,0.273-0.608,0.41-1.005,0.41
		c-0.403,0-0.742-0.137-1.015-0.41C113.074,61.493,112.937,61.15,112.937,60.74z"/>
	<path display="inline" fill="#FFFFFF" d="M126.831,52.332v3.066c-0.525-0.644-0.998-1.084-1.415-1.322
		c-0.41-0.246-0.892-0.369-1.445-0.369c-0.868,0-1.59,0.305-2.164,0.912c-0.574,0.609-0.861,1.371-0.861,2.287
		c0,0.936,0.277,1.705,0.831,2.307c0.561,0.602,1.274,0.902,2.143,0.902c0.555,0,1.042-0.119,1.466-0.359
		c0.41-0.232,0.893-0.684,1.446-1.354v3.045c-0.937,0.486-1.873,0.729-2.81,0.729c-1.545,0-2.837-0.498-3.876-1.496
		c-1.039-1.006-1.56-2.252-1.56-3.744c0-1.487,0.526-2.748,1.579-3.772s2.345-1.537,3.876-1.537
		C125.026,51.625,125.956,51.861,126.831,52.332z"/>
	<path display="inline" fill="#FFFFFF" d="M129.595,56.824c0-1.443,0.516-2.67,1.548-3.682c1.031-1.013,2.29-1.519,3.773-1.519
		c1.49,0,2.754,0.51,3.793,1.526c1.025,1.021,1.539,2.271,1.539,3.754c0,1.496-0.517,2.753-1.549,3.763
		c-1.039,1.006-2.313,1.508-3.824,1.508c-1.498,0-2.752-0.512-3.764-1.536C130.101,59.627,129.595,58.355,129.595,56.824z
		 M131.953,56.865c0,0.998,0.268,1.787,0.8,2.367c0.547,0.59,1.269,0.883,2.164,0.883c0.902,0,1.623-0.291,2.163-0.871
		c0.54-0.582,0.811-1.357,0.811-2.328s-0.271-1.746-0.811-2.328c-0.547-0.588-1.269-0.881-2.163-0.881
		c-0.883,0-1.597,0.293-2.144,0.881S131.953,55.936,131.953,56.865z"/>
	<path display="inline" fill="#FFFFFF" d="M142.689,51.902h2.308v0.922c0.443-0.465,0.823-0.779,1.138-0.943
		c0.336-0.17,0.756-0.256,1.262-0.256c1.129,0,2.021,0.492,2.677,1.477c0.725-0.983,1.705-1.477,2.942-1.477
		c2.249,0,3.374,1.363,3.374,4.092v6.172h-2.317v-5.547c0-0.957-0.116-1.633-0.349-2.031c-0.239-0.401-0.634-0.604-1.18-0.604
		c-0.637,0-1.1,0.238-1.39,0.717c-0.291,0.479-0.438,1.248-0.438,2.307v5.158h-2.315v-5.516c0-1.777-0.514-2.666-1.539-2.666
		c-0.649,0-1.122,0.242-1.42,0.727c-0.297,0.486-0.445,1.252-0.445,2.297v5.158h-2.308V51.902z"/>
</g>
<g id="timwatson">
	<path fill="#FFFFFF" d="M44.866,9.531v27.142h-4.097V9.531H44.866z"/>
	<path fill="#FFFFFF" d="M160.876,13.381v23.292h-4.097V13.381h-6.239v-3.85h16.559v3.85H160.876z"/>
	<path fill="#FFFFFF" d="M26.916,13.381v23.292H22.82V13.381h-6.24v-3.85h16.56v3.85H26.916z"/>
	<path fill="#FFFFFF" d="M52.14,36.673l5.713-29.181l9.315,21.095l9.65-21.095l5.133,29.181H77.75l-2.619-16.384l-8.032,17.632
		l-7.806-17.65l-2.918,16.402H52.14z"/>
	<path fill="#FFFFFF" d="M141.628,30.081H130.01l-3.023,6.592h-4.412l13.43-28.847l12.955,28.847h-4.481L141.628,30.081z
		 M139.958,26.231l-4.024-9.229l-4.219,9.229H139.958z"/>
	<path fill="#FFFFFF" d="M188.892,13.574l-3.322,1.969c-0.621-1.078-1.213-1.781-1.775-2.109c-0.586-0.375-1.342-0.562-2.268-0.562
		c-1.137,0-2.08,0.322-2.83,0.967c-0.75,0.633-1.125,1.43-1.125,2.391c0,1.324,0.984,2.391,2.953,3.199l2.707,1.107
		c2.203,0.891,3.813,1.978,4.834,3.261c1.02,1.284,1.529,2.856,1.529,4.72c0,2.495-0.832,4.559-2.496,6.188
		c-1.677,1.641-3.757,2.461-6.24,2.461c-2.355,0-4.301-0.697-5.836-2.093c-1.512-1.396-2.455-3.356-2.83-5.889l4.147-0.914
		c0.188,1.594,0.517,2.694,0.984,3.305c0.844,1.173,2.074,1.759,3.691,1.759c1.276,0,2.338-0.429,3.182-1.283
		c0.844-0.855,1.266-1.939,1.266-3.252c0-0.527-0.072-1.012-0.22-1.45c-0.146-0.439-0.375-0.845-0.686-1.214
		c-0.312-0.368-0.712-0.715-1.204-1.036c-0.492-0.322-1.078-0.63-1.758-0.923l-2.619-1.09c-3.715-1.57-5.572-3.867-5.572-6.891
		c0-2.039,0.779-3.744,2.338-5.115c1.559-1.383,3.498-2.074,5.818-2.074C184.69,9.004,187.134,10.527,188.892,13.574z"/>
	<path fill="#FFFFFF" d="M194.341,22.979c0-3.82,1.4-7.102,4.201-9.844c2.789-2.742,6.142-4.113,10.056-4.113
		c3.866,0,7.184,1.383,9.948,4.148c2.777,2.766,4.166,6.088,4.166,9.967c0,3.903-1.395,7.213-4.184,9.932
		c-2.801,2.731-6.182,4.096-10.144,4.096c-3.504,0-6.649-1.213-9.438-3.639C195.876,30.842,194.341,27.326,194.341,22.979z
		 M198.472,23.031c0,3,1.008,5.468,3.022,7.4c2.004,1.934,4.318,2.899,6.943,2.899c2.848,0,5.25-0.983,7.207-2.953
		c1.957-1.992,2.936-4.418,2.936-7.276c0-2.895-0.967-5.32-2.899-7.277c-1.923-1.969-4.302-2.953-7.138-2.953
		c-2.823,0-5.209,0.984-7.153,2.953C199.444,17.77,198.472,20.172,198.472,23.031z"/>
	<path fill="#FFFFFF" d="M227.582,36.673V7.686l19.793,20.707V9.531h4.097v28.792l-19.793-20.654v19.002h-4.097V36.673z"/>
	<path fill="#FFFFFF" d="M91.046,9.531l7.066,18.142l7.383-19.459l7.066,19.459l7.505-18.142h4.447l-12.129,28.864l-6.979-19.23
		L98.13,38.412L86.597,9.531H91.046z"/>
</g>
</svg>
