<?xml version="1.0" encoding="utf-8"?>
<!-- Generator: Adobe Illustrator 16.0.4, SVG Export Plug-In . SVG Version: 6.00 Build 0)  -->
<!DOCTYPE svg PUBLIC "-//W3C//DTD SVG 1.1//EN" "http://www.w3.org/Graphics/SVG/1.1/DTD/svg11.dtd">
<svg version="1.1" id="Layer_1" xmlns="http://www.w3.org/2000/svg" xmlns:xlink="http://www.w3.org/1999/xlink" x="0px" y="0px"
	 width="600px" height="450px" viewBox="100 75 600 450" enable-background="new 100 75 600 450" xml:space="preserve">
<rect x="100" y="75" fill="#FFFFFF" width="600" height="450"/>
<g>
	<g>
		<g>
			<polygon fill="#BDDFEF" points="373.458,441.578 373.458,396.226 371.539,396.226 371.539,441.578 371.539,442.538 
				371.539,443.5 406.18,443.5 406.18,441.578 			"/>
			<path fill="#BDDFEF" d="M419.518,408.887v-0.672h-20.11v-5.654h12.85v-0.67h-12.85v-7.426h-0.671v7.426h-19.198v-3.023h-0.671
				v3.023h-1.123v0.67h1.123v5.654h-6.299v0.672h6.299v5.726h-6.353v0.671h6.353v5.728h-6.325v0.672h6.325v5.726h-6.325v0.672h6.325
				v14.458h0.671V428.08h5.951v14.458h0.672V428.08h5.954v14.458h0.671V428.08h5.95v10.463h0.671V428.08h4.137v-0.672h-4.137v-5.726
				h9.129v-0.672h-9.129v-5.728h16.15v-0.671h-16.15v-5.726H419.518z M379.539,402.561h19.198v5.654h-5.95v-3.509h-0.671v3.509
				h-5.954v-3.189h-0.672v3.189h-5.951V402.561z M386.162,414.612v-5.726h5.954v5.726H386.162z M392.116,415.283v5.728h-5.954
				v-5.728H392.116z M379.539,408.887h5.951v5.726h-5.951V408.887z M379.539,415.283h5.951v5.728h-5.951V415.283z M379.539,427.408
				v-5.726h5.951v5.726H379.539z M386.162,427.408v-5.726h5.954v5.726H386.162z M398.737,427.408h-5.95v-5.726h5.95V427.408z
				 M398.737,421.011h-5.95v-5.728h5.95V421.011z M398.737,414.612h-5.95v-5.726h5.95V414.612z"/>
		</g>
		<path fill="#7CBFE0" d="M473.881,350.283c0,0-7.013,11.037-6.678,19.881c0.48,12.757-5.569,9.433-12.711,27.646l-11.972-15.195
			l-9.893,22.499c-0.105-0.014-0.208-0.036-0.317-0.036c-0.188,0-0.367,0.022-0.545,0.064l-11.097-27.137
			c0.356-0.437,0.575-0.991,0.575-1.6c0-1.419-1.152-2.569-2.567-2.569c-1.419,0-2.57,1.15-2.57,2.569
			c0,0.787,0.36,1.483,0.918,1.952l-23.472,47.167c-0.018,0-0.033-0.007-0.048-0.007c-0.553,0-1.06,0.181-1.48,0.476l-5.684-4.585
			c0.062-0.224,0.108-0.454,0.108-0.696c0-1.419-1.152-2.567-2.569-2.567c-1.416,0-2.569,1.148-2.569,2.567
			c0,0.936,0.503,1.745,1.25,2.198l-9.079,18.676l1.678-0.009l9.079-18.33c0.413-0.056,0.795-0.209,1.119-0.442l5.687,4.591
			c-0.064,0.223-0.108,0.451-0.108,0.694c0,1.418,1.151,2.565,2.569,2.565c1.416,0,2.569-1.147,2.569-2.565
			c0-0.789-0.363-1.481-0.92-1.957l23.471-47.16c0.019,0,0.036,0.001,0.053,0.001c0.187,0,0.369-0.023,0.546-0.059l11.093,27.135
			c-0.351,0.443-0.569,0.993-0.569,1.602c0,1.419,1.151,2.565,2.567,2.565c1.418,0,2.57-1.146,2.57-2.565
			c0-0.69-0.278-1.316-0.717-1.775l8.592-19.917l12.028,15.272c4.517-12.295,16.763-20.869,16.763-26.798
			C471.544,370.251,473.881,350.283,473.881,350.283L473.881,350.283z"/>
		<path fill="#736357" d="M372.759,442.747h-0.004H372.759z M473.797,349.857c0,0-1.612,5.121-5.213,9.902
			c-4.222,5.612-10.578,9.427-11.3,16.771c-0.566,5.768-14.705,19.446-14.705,19.446l-7.496-6.634
			c-0.07-1.357-1.185-2.434-2.555-2.434c-1.417,0-2.57,1.15-2.57,2.566c0,0.307,0.063,0.595,0.161,0.867l-20.958,21.768
			c-0.385-0.235-0.833-0.376-1.319-0.376c-1.416,0-2.565,1.15-2.565,2.567c0,0.751,0.32,1.413,0.831,1.884l-11.762,17.384
			c-0.051-0.014-0.1-0.036-0.154-0.045c-1.334-0.267-2.628,0.557-2.972,1.858l-17.736,6.194l4.699,0.004l13.08-4.177
			c0.329,0.731,1.08,0.985,1.923,1.155c1.39,0.278,2.744-0.624,3.023-2.018c0.146-0.732-0.041-1.447-0.449-2.006l11.925-17.683
			c0.056,0.009,0.105,0.019,0.16,0.019c1.417,0,2.568-1.153,2.568-2.57c0-0.306-0.062-0.598-0.161-0.869l20.956-21.762
			c0.389,0.233,0.837,0.374,1.321,0.374c0.854,0,1.604-0.421,2.071-1.062l8.154,7.289c0,0,16.513-12.679,18.393-19.246
			c1.005-3.518,7.368-11.578,10.208-16.355C474.194,357.897,473.797,349.857,473.797,349.857L473.797,349.857z"/>
		
			<linearGradient id="SVGID_1_" gradientUnits="userSpaceOnUse" x1="607.8945" y1="76.9951" x2="660.9666" y2="13.7464" gradientTransform="matrix(1 0 0 -1 -149 330)">
			<stop  offset="0.1429" style="stop-color:#E5F2F9"/>
			<stop  offset="0.9066" style="stop-color:#B0D9EC"/>
			<stop  offset="1" style="stop-color:#7CBFE0"/>
		</linearGradient>
		<path fill="url(#SVGID_1_)" d="M473.812,348.269c0,0-2.715-64.788-24.243-87.439c32.686-6.411,53.958-32.114,53.958-32.114
			s8.256,33.239,22.575,48.31C515.491,291.05,473.812,348.269,473.812,348.269L473.812,348.269z"/>
		<g>
			<defs>
				<path id="SVGID_2_" d="M526.257,277.792c-9.923-1.298-18.361-2.327-28.239-4.136c0.219-1.016,0.428-2.006,0.611-2.947
					c4.758-24.378,6.144-41.633,4.849-43.308c0.031-1.474-1.369,12.198-1.369,12.198s-3.466,17.403-8.311,33.044
					c0,0-25.541-5.522-47.097-12.011c0,0-1.895,0.332-0.097,1.089c23.581,5.424,30.443,11.65,45.756,14.912
					c-5.042,32.25-10.867,45.894-12.162,53.779c-0.223,0.5-5.887,17.329-5.201,15.9c6.296-15.203,17.255-47.562,22.301-68.635
					c9.885,1.296,25.702-0.451,28.393,0.734C526.808,278.434,527.157,278.487,526.257,277.792L526.257,277.792z"/>
			</defs>
			<clipPath id="SVGID_3_">
				<use xlink:href="#SVGID_2_"  overflow="visible"/>
			</clipPath>
			<path clip-path="url(#SVGID_3_)" fill="#7CBFE0" d="M473.812,348.269c0,0-2.715-64.788-24.243-87.439
				c32.686-6.411,53.958-32.114,53.958-32.114s8.256,33.239,22.575,48.31C515.491,291.05,473.812,348.269,473.812,348.269
				L473.812,348.269z"/>
		</g>
		
			<linearGradient id="SVGID_4_" gradientUnits="userSpaceOnUse" x1="638.6035" y1="-17.374" x2="638.6035" y2="103.27" gradientTransform="matrix(1 0 0 -1 -149 330)">
			<stop  offset="0" style="stop-color:#B9B1AB"/>
			<stop  offset="0.1285" style="stop-color:#B2A9A2"/>
			<stop  offset="0.3315" style="stop-color:#9F948C"/>
			<stop  offset="0.467" style="stop-color:#8F8279"/>
			<stop  offset="0.6232" style="stop-color:#B0A7A0"/>
			<stop  offset="0.7809" style="stop-color:#CCC6C2"/>
			<stop  offset="0.9122" style="stop-color:#DDD9D6"/>
			<stop  offset="1" style="stop-color:#E3E0DD"/>
		</linearGradient>
		<path fill="url(#SVGID_4_)" d="M497.02,267.486c-13.072,58.923-21.453,71.111-22.83,79.487c-0.223,0.5,1.224,0.769,1.911-0.66
			c7.068-17.074,19.701-55.466,23.631-75.604c4.759-24.378,6.145-41.633,4.849-43.308c0.03-1.474-1.397-0.064-1.397-0.064
			S503.313,239.107,497.02,267.486z"/>
		
			<ellipse transform="matrix(0.0256 -0.9997 0.9997 0.0256 113.4468 814.2748)" fill="#8F8279" cx="474.434" cy="348.941" rx="2.191" ry="2.08"/>
		
			<linearGradient id="SVGID_5_" gradientUnits="userSpaceOnUse" x1="596.2314" y1="60.8164" x2="677.1387" y2="60.8164" gradientTransform="matrix(1 0 0 -1 -149 330)">
			<stop  offset="0" style="stop-color:#C7C1BC"/>
			<stop  offset="0.8462" style="stop-color:#8F8279"/>
			<stop  offset="1" style="stop-color:#C7C1BC"/>
		</linearGradient>
		<path fill="url(#SVGID_5_)" d="M527.38,278.851c-2.971-1.308-19.762-1.452-29.026-3.464c-19.77-4.296-26.396-7.658-50.238-13.145
			c-1.799-0.759-0.295-2.726-0.295-2.726c41.983,12.634,56.899,14.194,79.557,17.159C528.279,277.368,528.498,278.87,527.38,278.851
			L527.38,278.851z"/>
	</g>
	<g>
		<path fill="#BDDFEF" d="M425.043,217.067c-2.611,0-5.086,0.522-7.266,1.28l0.375,1.893c2.424-0.982,5.326-1.679,8.386-1.679
			c2.084,0,3.603,0.373,4.676,1.002C430.389,218.016,428.434,217.067,425.043,217.067L425.043,217.067z M364.054,218.275
			c1.881,0,3.502,0.509,4.789,1.433c-1.368-1.886-3.564-2.93-6.282-2.93c-6.013,0-10.471,6.187-10.471,11.627
			c0,3.056,1.143,5.312,3.017,6.661c-0.958-1.322-1.521-3.045-1.521-5.165C353.584,224.462,358.038,218.275,364.054,218.275
			L364.054,218.275z M405.396,221.154c0.437,0.521,0.832,1.085,1.211,1.689l5.438-3.703c-0.792-1.407-1.834-2.744-3.171-3.864
			c0.646,0.747,1.208,1.542,1.675,2.37L405.396,221.154z M403.482,234.782l2.374,2.931c-3.18,2.896-6.589,4.86-11.74,4.86
			c-3.699,0-7.001-1.177-9.478-3.276c2.541,3.039,6.472,4.771,10.975,4.771c5.15,0,8.562-1.964,11.742-4.859l-3.703-4.569
			C403.595,234.691,403.538,234.732,403.482,234.782z M374.14,215.478c2.031,2.413,3.166,5.596,3.166,9.226
			c0,9.307-8.099,17.868-17.816,17.868c-3.955,0-7.26-1.221-9.705-3.292c2.499,2.977,6.367,4.788,11.198,4.788
			c9.719,0,17.816-8.561,17.816-17.866C378.803,221.756,377.106,217.986,374.14,215.478L374.14,215.478z M417.759,242.516
			c-2.461,0-4.636-0.744-6.273-2.034c1.645,2.229,4.466,3.532,7.768,3.532c2.948,0,5.345-0.914,7.441-2.449l0.953-3.674
			C424.989,240.723,421.922,242.516,417.759,242.516z M397.588,216.779c-5.493,0-10.471,5.668-10.471,12.146
			c0,2.853,1.177,4.991,2.95,6.272c-0.9-1.242-1.456-2.838-1.456-4.779c0-6.476,4.979-12.146,10.473-12.146
			c2.167,0,3.728,0.613,4.971,1.585C402.596,218.036,400.718,216.779,397.588,216.779L397.588,216.779z M436.985,214.826
			c1.124,1.481,1.71,3.34,1.71,5.538c0,1.447-0.231,2.836-0.635,4.342l-4.573,17.176h-4.997l-0.392,1.496h6.883l4.572-17.176
			c0.405-1.506,0.636-2.895,0.636-4.343C440.191,218.841,439.096,216.455,436.985,214.826L436.985,214.826z M323.935,235.403
			l8.734-32.511h-1.898l-8.736,32.511H323.935z M457.714,201.153l-10.934,40.73h-5.113l-0.398,1.496h7.006l11.336-42.226H457.714z
			 M341.527,241.883h-26.506l-0.4,1.496h28.403l1.789-6.481h-1.907L341.527,241.883z M424.633,229.207
			c1.938,0,3.657,0.299,5.179,0.677l0.268-1.016c-1.918-0.575-4.221-1.156-6.941-1.156c-4.684,0-7.521,2.31-7.521,5.493
			c0,1.653,0.72,2.859,1.986,3.536c-0.309-0.578-0.491-1.253-0.491-2.04C417.109,231.519,419.948,229.207,424.633,229.207
			L424.633,229.207z M426.692,241.564l-0.085,0.316h1.883l0.651-2.496C428.365,240.21,427.553,240.937,426.692,241.564
			L426.692,241.564z M405.11,221.35l0.285-0.195c-0.405-0.483-0.854-0.915-1.341-1.297
			C404.428,220.324,404.781,220.818,405.11,221.35z"/>
		<path fill="#736357" d="M323.193,200.592h7.175l-9.137,34.007h21.281l-1.79,6.48h-28.405L323.193,200.592z M344.34,227.834
			c0-9.313,7.987-17.93,17.817-17.93c8.73,0,14.343,5.897,14.343,13.998c0,9.305-8.098,17.865-17.816,17.865
			C349.955,241.77,344.34,235.874,344.34,227.834z M369.561,224.073c0-5.143-3.183-8.096-7.807-8.096
			c-6.014,0-10.47,6.189-10.47,11.628c0,5.145,3.18,8.095,7.809,8.095C364.988,235.698,369.561,229.624,369.561,224.073
			L369.561,224.073z M379.313,228.182c0-10.007,8.332-18.278,18.044-18.278c6.538,0,10.299,3.237,12.382,6.938l-5.437,3.704
			c-1.625-2.606-3.591-4.572-7.521-4.572c-5.494,0-10.472,5.668-10.472,12.146c0,4.801,3.297,7.638,7.234,7.638
			c3.068,0,5.378-1.274,7.805-3.416l3.701,4.569c-3.181,2.895-6.589,4.859-11.742,4.859
			C385.45,241.77,379.313,236.51,379.313,228.182L379.313,228.182z M407.643,233.33c0-7.057,5.726-10.994,13.59-10.994
			c3.355,0,6.418,0.578,9.139,1.507l0.171-0.635c0.234-0.925,0.352-1.506,0.352-2.43c0-2.72-1.968-4.514-6.654-4.514
			c-3.066,0-5.962,0.696-8.387,1.678l-1.155-5.779c3.117-1.273,6.767-2.086,10.926-2.086c8.044,0,12.266,3.526,12.266,9.483
			c0,1.449-0.23,2.837-0.638,4.343l-4.569,17.176h-6.879l1.038-3.992c-2.656,2.832-5.726,4.627-9.893,4.627
			C411.691,241.717,407.643,238.415,407.643,233.33z M428.926,229.394l0.349-1.33c-1.915-0.574-4.224-1.156-6.942-1.156
			c-4.685,0-7.521,2.31-7.521,5.493c0,2.656,1.854,4.163,4.856,4.163C424.014,236.564,427.944,233.156,428.926,229.394
			L428.926,229.394z M450.307,198.854h7.003l-11.334,42.226h-7.006L450.307,198.854z"/>
	</g>
	<g>
		<path fill="#B0D9EC" d="M357.439,342.103h3.127l-0.868,3.218h-3.127L357.439,342.103z"/>
		<path fill="#B0D9EC" d="M363.481,340.084c0-4.063,3.38-7.419,7.326-7.419c2.653,0,4.177,1.313,5.022,2.816l-2.208,1.501
			c-0.657-1.057-1.454-1.854-3.052-1.854c-2.229,0-4.248,2.305-4.248,4.933c0,1.951,1.335,3.099,2.931,3.099
			c1.245,0,2.186-0.515,3.171-1.384l1.507,1.855c-1.298,1.176-2.68,1.972-4.768,1.972
			C365.969,345.602,363.481,343.464,363.481,340.084L363.481,340.084z"/>
		<path fill="#B0D9EC" d="M376.383,339.942c0-3.781,3.237-7.277,7.228-7.277c3.546,0,5.821,2.392,5.821,5.683
			c0,3.779-3.285,7.254-7.23,7.254C378.657,345.602,376.383,343.209,376.383,339.942z M386.615,338.418
			c0-2.091-1.289-3.289-3.168-3.289c-2.44,0-4.249,2.513-4.249,4.721c0,2.092,1.29,3.287,3.169,3.287
			C384.759,343.137,386.615,340.669,386.615,338.418z"/>
		<path fill="#B0D9EC" d="M392.988,332.923h2.84l-0.424,1.599c0.984-1.012,2.064-1.856,3.639-1.856c1.832,0,2.962,1.082,3.38,2.488
			c1.08-1.478,2.657-2.488,4.654-2.488c2.226,0,3.686,1.452,3.686,3.711c0,0.656-0.211,1.454-0.399,2.185l-1.809,6.762h-2.842
			l1.855-6.879c0.094-0.403,0.164-0.892,0.164-1.247c0-1.244-0.725-1.947-2.02-1.947c-1.55,0-2.817,1.269-3.29,3.101l-1.874,6.973
			h-2.841l1.853-6.879c0.097-0.403,0.161-0.892,0.161-1.247c0-1.244-0.727-1.947-2.014-1.947c-1.572,0-2.819,1.269-3.314,3.101
			l-1.874,6.973h-2.847L392.988,332.923z"/>
		<path fill="#BDDFEF" d="M352.518,287.321c0.538-0.615,1.461-1.672,2.745-3.155c1.293-1.487,2.738-3.174,4.338-5.069
			c1.602-1.891,3.283-3.894,5.062-6.005c1.771-2.111,3.383-4.135,4.828-6.072c1.451-1.938,2.646-3.645,3.604-5.13
			c0.953-1.479,1.447-2.547,1.499-3.205c0.045-0.59-0.166-1.042-0.639-1.343c-0.282-0.182-0.567-0.3-0.858-0.387
			c0.009,0.098,0.051,0.174,0.044,0.28c-0.049,0.66-0.546,1.727-1.498,3.206c-0.958,1.484-2.154,3.193-3.605,5.133
			c-1.445,1.936-3.058,3.958-4.829,6.069c-1.777,2.112-3.458,4.112-5.06,6.007c-1.601,1.897-3.047,3.585-4.34,5.069
			c-1.282,1.485-2.206,2.542-2.746,3.156c-1.63,1.926-3.283,3.848-4.938,5.767c-1.678,1.921-3.297,3.877-4.875,5.871
			c0.492,0.469,1.043,0.878,1.552,1.329c1.548-1.951,3.132-3.868,4.772-5.75c1.654-1.917,3.309-3.84,4.939-5.768H352.518z
			 M357.575,315.003c-1.225-0.098-3.118-0.745-5.68-1.943c-2.551-1.193,0,0-2.808-1.575c-2.81-1.577-5.43-3.159-7.869-4.745
			c-2.434-1.584-4.146-2.837-5.115-3.774c-0.249,0.771-0.529,1.842-0.856,3.208c-0.328,1.359-0.607,2.8-0.854,4.303
			c-0.243,1.5-0.463,2.961-0.662,4.363c-0.201,1.414-0.341,2.507-0.398,3.296c-0.065,0.854-0.104,1.662-0.104,2.425
			c0,0.761-0.085,1.454-0.256,2.064c-0.167,0.617-0.478,1.173-0.914,1.666c-0.437,0.497-1.688,0.996-2.646,1.389
			c-0.32,0.116-0.794,0.083-1.252-0.045c0.039,0.155,0.048,0.322,0.102,0.474c0.241,0.781,1.844,1.29,2.601,1.017
			c0.958-0.388,2.208-0.893,2.647-1.388c0.436-0.494,0.744-1.049,0.914-1.665c0.17-0.61,0.255-1.305,0.255-2.065
			c0-0.759,0.039-1.565,0.104-2.424c0.059-0.788,0.201-1.881,0.399-3.296c0.201-1.406,0.42-2.862,0.663-4.365
			c0.246-1.503,0.527-2.94,0.855-4.303c0.325-1.363,0.606-2.434,0.853-3.205c0.973,0.934,2.681,2.193,5.116,3.772
			c2.44,1.586,5.058,3.166,7.87,4.746c2.809,1.579,0.254,0.382,2.809,1.579c2.561,1.191,4.453,1.842,5.679,1.94
			c1.415,0.108,2.603-0.261,3.569-1.111c0.958-0.854,1.497-2.028,1.612-3.548c0.037-0.391-0.139-0.717-0.515-0.982
			c-0.266-0.184-0.59-0.324-0.937-0.45c-0.119,1.508-0.656,2.679-1.61,3.528C360.177,314.746,358.988,315.113,357.575,315.003
			L357.575,315.003z M389.05,307.075c-1.35,1.691-2.85,3.309-4.481,4.847c-1.632,1.537-3.307,2.847-5.032,3.92
			c-1.722,1.083-3.407,1.617-5.076,1.617c-1.356,0-2.506-0.311-3.447-0.926c0.178,0.216,0.319,0.469,0.51,0.669
			c1.082,1.141,2.544,1.707,4.387,1.707c1.668,0,3.355-0.538,5.077-1.614c1.725-1.075,3.398-2.386,5.031-3.923
			c1.631-1.538,3.131-3.157,4.482-4.849c0.605-0.759,1.129-1.438,1.623-2.095c-0.204-0.886-0.39-1.769-0.551-2.65
			C390.848,304.765,390.035,305.834,389.05,307.075z M390.156,274.806c-0.256,0-0.46-0.052-0.673-0.098
			c0.215,1.012,0.9,1.546,2.122,1.546c0.064,0,0.126-0.01,0.19-0.015c0.105-0.566,0.181-1.145,0.297-1.709
			C391.479,274.711,390.829,274.806,390.156,274.806L390.156,274.806z M417.204,269.543c-0.244,0.127-0.71,0.291-1.385,0.509
			c-0.679,0.215-1.42,0.43-2.214,0.647c-0.808,0.216-1.57,0.414-2.31,0.6c-0.741,0.183-1.294,0.303-1.665,0.365
			c-0.732,2.833-1.813,5.682-3.228,8.54c-1.419,2.864-2.896,5.556-4.435,8.081c-0.371,0.681-0.765,1.309-1.194,1.892
			c-0.437,0.588-0.862,1.187-1.299,1.804c-0.244,0.306-0.504,0.627-0.777,0.968c-0.287,0.337-0.484,0.659-0.605,0.965
			c-0.125,0.25-0.184,0.592-0.184,1.02v1.014c0,0.919,0.072,2.354,0.23,4.292c0.151,1.938,0.43,3.894,0.83,5.862
			c0.393,1.974,0.984,3.695,1.756,5.172c0.476,0.916,1.056,1.518,1.714,1.862c-0.085-0.14-0.182-0.256-0.266-0.415
			c-0.77-1.477-1.359-3.198-1.754-5.168c-0.399-1.969-0.678-3.929-0.831-5.865c-0.158-1.939-0.231-3.371-0.231-4.29v-1.013
			c0-0.432,0.061-0.77,0.182-1.02c0.125-0.303,0.323-0.631,0.608-0.963c0.274-0.34,0.534-0.662,0.778-0.972
			c0.436-0.613,0.858-1.215,1.3-1.803c0.428-0.582,0.823-1.213,1.191-1.892c1.541-2.523,3.017-5.216,4.438-8.08
			c1.414-2.859,2.492-5.707,3.229-8.54c0.37-0.06,0.92-0.182,1.663-0.367c0.74-0.188,1.505-0.385,2.31-0.597
			c0.797-0.217,1.534-0.434,2.213-0.649c0.675-0.215,1.143-0.383,1.386-0.509c0.371-0.242,0.659-0.475,0.878-0.691
			c0.215-0.213,0.322-0.564,0.322-1.061c0-0.799-0.438-1.199-1.293-1.199c-0.062,0-0.13,0.007-0.192,0.007
			c-0.036,0.351-0.118,0.636-0.288,0.805C417.863,269.067,417.574,269.298,417.204,269.543L417.204,269.543z M433.596,288.823
			c-0.956,1.88-2.159,3.699-3.601,5.463c-1.451,1.759-3.001,3.315-4.664,4.673c-1.263,1.033-2.434,1.733-3.556,2.266
			c-0.199,0.364-0.386,0.732-0.603,1.093c-0.217,0.377-0.508,0.811-0.765,1.223c-0.098,0.731-0.159,1.432-0.159,2.085
			c0,2.101,0.464,3.748,1.392,4.952c0.311,0.404,0.715,0.717,1.166,0.988c-0.723-1.158-1.103-2.64-1.103-4.491
			c0-0.649,0.062-1.352,0.159-2.083c0.255-0.409,0.545-0.843,0.763-1.223c0.216-0.362,0.403-0.729,0.6-1.091
			c1.123-0.533,2.293-1.233,3.558-2.267c1.662-1.358,3.214-2.916,4.663-4.675c1.444-1.762,2.646-3.581,3.604-5.461
			c0.953-1.882,1.426-3.599,1.426-5.139c0-1.603-0.446-2.933-1.34-3.983c-0.297-0.347-0.65-0.618-1.034-0.847
			c0.604,0.941,0.921,2.061,0.921,3.379C435.021,285.223,434.548,286.939,433.596,288.823L433.596,288.823z M412.77,250.387
			c0.063,0.953,0.098,1.772,0.098,2.449c0,2.399-0.17,4.832-0.508,7.292c-0.34,2.46-0.851,4.863-1.524,7.202
			c0.623-0.073,1.255-0.183,1.882-0.279c0.448-1.793,0.834-3.61,1.09-5.474c0.339-2.46,0.51-4.891,0.51-7.292
			c0-0.677-0.031-1.494-0.098-2.448c-0.053-0.952-0.223-1.863-0.502-2.724c-0.28-0.86-0.693-1.598-1.251-2.213
			c-0.229-0.253-0.518-0.424-0.821-0.572c0.245,0.41,0.464,0.85,0.621,1.334C412.543,248.525,412.714,249.435,412.77,250.387
			L412.77,250.387z M414.605,311.26c-0.515,0.559-1.014,1.131-1.553,1.676c-1.729,1.724-3.544,3.187-5.453,4.386
			c-1.905,1.202-3.785,1.797-5.631,1.797c-1.562,0-2.922-0.475-4.104-1.411c0.428,0.498,0.862,0.984,1.354,1.387
			c1.201,0.982,2.598,1.473,4.196,1.473c1.848,0,3.726-0.596,5.631-1.799c1.912-1.198,3.729-2.659,5.456-4.382
			c0.426-0.431,0.826-0.887,1.231-1.334c-0.073-0.093-0.167-0.162-0.236-0.258C415.153,312.325,414.867,311.796,414.605,311.26
			L414.605,311.26z M376.449,288.603c-0.222,0.835-0.476,1.698-0.788,2.586c-0.308,0.899-0.612,1.792-0.92,2.683
			c-0.31,0.892-0.554,1.675-0.739,2.356c-0.555,2.64-0.834,5.384-0.834,8.214c0,0.551,0.021,1.293,0.048,2.212
			c0.032,0.928,0.153,1.848,0.373,2.777c0.215,0.92,0.532,1.722,0.971,2.397c0.297,0.472,0.695,0.769,1.176,0.911
			c-0.29-0.561-0.536-1.165-0.695-1.86c-0.218-0.927-0.341-1.85-0.372-2.774c-0.031-0.924-0.047-1.662-0.047-2.216
			c0-2.825,0.278-5.572,0.833-8.214c0.187-0.677,0.429-1.464,0.737-2.354c0.311-0.891,0.612-1.781,0.923-2.682
			c0.31-0.89,0.563-1.75,0.787-2.584c0.216-0.829,0.323-1.554,0.323-2.169c0-1.131-0.528-1.764-1.526-1.949
			c0.03,0.166,0.075,0.311,0.075,0.499C376.772,287.053,376.661,287.778,376.449,288.603L376.449,288.603z M378.803,277.165
			c-0.867,1.012-1.911,1.519-3.143,1.519c-0.444,0-0.835-0.082-1.195-0.227c0.11,0.208,0.187,0.425,0.333,0.616
			c0.562,0.708,1.332,1.065,2.313,1.065c1.23,0,2.274-0.509,3.143-1.524c0.854-1.018,1.285-2.139,1.285-3.373
			c0-0.921-0.292-1.737-0.874-2.445c-0.307-0.373-0.67-0.64-1.084-0.816c0.303,0.554,0.506,1.146,0.506,1.809
			C380.091,275.019,379.661,276.143,378.803,277.165L378.803,277.165z M448.984,298.872c-0.279-0.185-0.57-0.275-0.879-0.275
			c-0.068,0-0.118,0.038-0.184,0.041c-0.025,0.391-0.071,0.738-0.158,1.005c-0.12,0.369-0.339,0.798-0.644,1.293
			c-1.173,2.092-2.608,4.094-4.295,5.999c-1.689,1.909-3.557,3.577-5.587,5.011c-2.033,1.429-4.217,2.575-6.549,3.419
			c-2.345,0.84-4.779,1.267-7.305,1.267c-1.843,0-3.407-0.364-4.7-1.063c-0.526-0.29-0.982-0.636-1.432-0.994
			c0.788,0.979,1.729,1.81,2.885,2.444c1.292,0.702,2.856,1.06,4.7,1.06c2.526,0,4.958-0.425,7.302-1.266
			c2.335-0.844,4.519-1.982,6.549-3.415c2.031-1.434,3.896-3.102,5.589-5.013c1.686-1.903,3.123-3.905,4.296-5.999
			c0.302-0.491,0.522-0.923,0.644-1.294c0.122-0.371,0.188-0.862,0.188-1.473C449.401,299.305,449.257,299.06,448.984,298.872
			L448.984,298.872z M401.806,265.64c0.579-2.153,1.306-4.358,2.165-6.602c0.868-2.246,1.82-4.215,2.864-5.909
			c0.85-1.379,1.702-2.167,2.555-2.421c-0.017-0.126-0.011-0.248-0.038-0.37c-0.061-0.303-0.153-0.582-0.273-0.829
			c-0.123-0.244-0.311-0.369-0.556-0.369c-1.049,0-2.099,0.846-3.144,2.541c-1.041,1.689-1.994,3.661-2.862,5.91
			c-0.86,2.245-1.584,4.446-2.165,6.603c-0.589,2.152-0.94,3.691-1.062,4.618c0.572-0.089,1.174-0.131,1.763-0.196
			C401.237,267.802,401.482,266.823,401.806,265.64L401.806,265.64z M399.13,282.58c0.15-2.494,0.503-4.938,1.056-7.34
			c1.05-0.306,2.129-0.506,3.234-0.599c0.435-0.036,0.871-0.14,1.305-0.198c0.227-0.628,0.418-1.213,0.568-1.759
			c-1.103,0.245-2.215,0.414-3.324,0.507c-1.104,0.09-2.187,0.294-3.235,0.597c-0.553,2.403-0.905,4.847-1.057,7.344
			c-0.158,2.492-0.326,4.969-0.508,7.433c0.52-0.666,1.104-1.524,1.721-2.486C398.969,284.913,399.055,283.755,399.13,282.58
			L399.13,282.58z M423.46,295.758c0.553-1.763,1.224-3.526,2.028-5.289c0.8-1.769,1.663-3.316,2.582-4.649
			c0.927-1.326,1.854-1.997,2.774-1.997c0.018,0,0.023,0.011,0.041,0.011c-0.052-0.259-0.133-0.513-0.246-0.762
			c-0.213-0.465-0.633-0.697-1.244-0.697c-0.923,0-1.849,0.667-2.775,1.994c-0.921,1.339-1.782,2.88-2.582,4.648
			c-0.805,1.767-1.474,3.529-2.028,5.291c-0.562,1.764-0.892,3.052-1.017,3.859c0.691-0.444,1.447-1.013,2.233-1.65
			C423.305,296.267,423.376,296.029,423.46,295.758L423.46,295.758z M348.862,255.12c-0.32,1.033-0.703,2.111-1.134,3.233
			c-0.426,1.127-0.855,2.233-1.28,3.325c-0.423,1.093-0.757,1.999-1,2.702c-1.521,4.452-2.884,8.946-4.07,13.484
			c-1.195,4.54-2.193,9.158-2.998,13.864l2.239-2.628c0.649-3.297,1.362-6.571,2.207-9.787c1.189-4.542,2.551-9.035,4.073-13.481
			c0.241-0.709,0.576-1.611,0.998-2.704c0.426-1.09,0.856-2.198,1.283-3.324c0.429-1.125,0.812-2.204,1.133-3.235
			c0.328-1.037,0.523-1.879,0.572-2.535c0.125-1.585-0.256-2.592-1.149-3.021c-0.221-0.11-0.367-0.211-0.479-0.303
			c0.174,0.493,0.237,1.115,0.177,1.875C349.385,253.237,349.191,254.081,348.862,255.12L348.862,255.12z M394.093,309.952
			c-0.439-1.579-0.781-3.155-1.066-4.727c-0.282,0.383-0.591,0.793-0.903,1.203c0.157,0.692,0.325,1.381,0.52,2.072
			c0.554,1.97,1.25,3.74,2.081,5.312c0.828,1.568,1.843,2.842,3.045,3.834c0.029,0.024,0.064,0.041,0.098,0.063
			c-0.623-0.726-1.201-1.517-1.691-2.448C395.344,313.692,394.648,311.922,394.093,309.952L394.093,309.952z M416.056,312.706
			c-0.107,0.115-0.216,0.229-0.319,0.346c0.445,0.562,0.952,1.07,1.517,1.521c-0.093-0.115-0.215-0.21-0.3-0.33
			C416.604,313.771,416.32,313.246,416.056,312.706L416.056,312.706z M415.426,268.314c0.983-0.168,1.961-0.255,2.946-0.267
			c0.009-0.088,0.035-0.158,0.035-0.257c0-0.799-0.438-1.199-1.292-1.199c-1.051,0-2.097,0.094-3.14,0.276
			c-0.419,0.072-0.839,0.12-1.259,0.184c-0.145,0.574-0.269,1.161-0.43,1.728C413.328,268.655,414.377,268.501,415.426,268.314
			L415.426,268.314z"/>
		
			<linearGradient id="SVGID_6_" gradientUnits="userSpaceOnUse" x1="535.2637" y1="86.4468" x2="535.2637" y2="5.2222" gradientTransform="matrix(1 0 0 -1 -149 330)">
			<stop  offset="0.0879" style="stop-color:#ABA19A"/>
			<stop  offset="0.2995" style="stop-color:#968A81"/>
			<stop  offset="0.5546" style="stop-color:#83756A"/>
			<stop  offset="0.794" style="stop-color:#77675C"/>
			<stop  offset="1" style="stop-color:#736357"/>
		</linearGradient>
		<path fill="url(#SVGID_6_)" d="M446.564,296.454c-0.278-0.187-0.569-0.275-0.879-0.275c-0.675,0-1.227,0.275-1.663,0.828
			c-0.43,0.557-0.8,1.081-1.109,1.573c-0.924,1.534-1.999,3.076-3.224,4.609c-1.239,1.545-2.59,2.914-4.065,4.116
			c-1.479,1.196-3.076,2.186-4.805,2.95c-1.714,0.771-3.565,1.158-5.538,1.158c-2.152,0-3.688-0.601-4.612-1.808
			c-0.927-1.2-1.39-2.854-1.39-4.953c0-0.65,0.06-1.353,0.156-2.083c0.256-0.409,0.552-0.844,0.765-1.225
			c0.219-0.36,0.406-0.728,0.603-1.092c1.123-0.53,2.293-1.229,3.555-2.264c1.663-1.36,3.217-2.916,4.664-4.674
			c1.446-1.762,2.646-3.581,3.605-5.461c0.952-1.883,1.427-3.598,1.427-5.141c0-1.602-0.45-2.931-1.342-3.98
			c-0.894-1.05-2.166-1.571-3.828-1.571c-2.465,0-4.727,0.953-6.788,2.857c-2.059,1.91-3.829,4.236-5.303,6.972
			c-1.482,2.74-2.623,5.583-3.417,8.537c-0.8,2.957-1.202,5.485-1.202,7.569c0,1.002,0.095,1.968,0.226,2.914
			c-0.305,0.354-0.602,0.715-0.923,1.057c-1.382,1.48-2.83,2.759-4.337,3.833c-1.506,1.078-2.968,1.614-4.378,1.614
			c-1.235,0-2.234-0.733-3.003-2.215c-0.773-1.475-1.362-3.197-1.755-5.167c-0.4-1.971-0.679-3.928-0.832-5.864
			c-0.156-1.941-0.23-3.372-0.23-4.292v-1.015c0-0.43,0.061-0.768,0.18-1.018c0.125-0.303,0.323-0.631,0.608-0.964
			c0.275-0.339,0.538-0.66,0.778-0.971c0.437-0.613,0.86-1.214,1.298-1.8c0.429-0.584,0.825-1.216,1.195-1.895
			c1.54-2.524,3.017-5.215,4.436-8.08c1.415-2.86,2.493-5.706,3.229-8.54c0.37-0.059,0.92-0.182,1.663-0.367
			c0.739-0.187,1.504-0.385,2.31-0.597c0.797-0.217,1.535-0.434,2.214-0.649c0.673-0.215,1.141-0.382,1.383-0.509
			c0.372-0.242,0.66-0.474,0.881-0.69c0.212-0.213,0.32-0.563,0.32-1.062c0-0.798-0.438-1.199-1.293-1.199
			c-1.05,0-2.093,0.095-3.138,0.276c-1.049,0.187-2.098,0.34-3.141,0.462c0.672-2.336,1.183-4.739,1.521-7.201
			c0.339-2.46,0.51-4.892,0.51-7.292c0-0.676-0.031-1.495-0.098-2.448c-0.054-0.953-0.223-1.864-0.502-2.725
			c-0.281-0.864-0.692-1.599-1.25-2.213c-0.556-0.612-1.323-0.924-2.307-0.924c-2.153,0-4.105,0.984-5.865,2.953
			c-1.749,1.971-3.302,4.327-4.661,7.066c-1.353,2.734-2.485,5.509-3.41,8.305c-0.928,2.805-1.63,5.034-2.13,6.693
			c-0.983,0.068-2.013,0.282-3.087,0.647c-1.081,0.373-1.618,1.17-1.618,2.397c0,1.482,0.737,2.217,2.218,2.217
			c0.673,0,1.324-0.094,1.938-0.277c-0.614,2.955-1.033,5.956-1.245,9.003c-0.218,3.049-0.321,6.081-0.321,9.09
			c0,1.171,0.06,2.636,0.182,4.387c0.037,0.485,0.134,1.044,0.178,1.546c-0.603,0.954-1.398,2.15-2.441,3.671
			c-1.133,1.665-2.397,3.276-3.779,4.849c-1.39,1.564-2.804,2.924-4.255,4.06c-1.441,1.14-2.776,1.709-4.012,1.709
			c-0.8,0-1.417-0.338-1.844-1.015c-0.438-0.675-0.759-1.479-0.971-2.398c-0.218-0.925-0.339-1.85-0.371-2.773
			c-0.031-0.922-0.047-1.662-0.047-2.216c0-2.825,0.278-5.57,0.832-8.214c0.186-0.677,0.43-1.462,0.738-2.353
			c0.31-0.893,0.61-1.783,0.92-2.684c0.308-0.89,0.562-1.75,0.789-2.584c0.213-0.829,0.323-1.554,0.323-2.168
			c0-1.351-0.71-2.031-2.129-2.031c-1.966,0-3.428,0.569-4.379,1.71c-0.955,1.138-1.703,2.537-2.265,4.197
			c-0.495,1.603-0.941,3.464-1.34,5.586c-0.398,2.122-0.593,4.044-0.593,5.766c0,1.357,0.091,2.939,0.274,4.755
			c0.186,1.818,0.581,3.544,1.201,5.171c0.613,1.63,1.46,3.018,2.535,4.155c1.082,1.14,2.544,1.707,4.387,1.707
			c1.669,0,3.355-0.537,5.078-1.616c1.725-1.075,3.396-2.383,5.031-3.921c1.63-1.539,3.128-3.155,4.481-4.847
			c0.985-1.24,1.797-2.31,2.526-3.3c0.286,1.575,0.627,3.15,1.067,4.729c0.556,1.968,1.253,3.741,2.081,5.309
			c0.831,1.569,1.846,2.845,3.048,3.831c1.202,0.982,2.597,1.475,4.196,1.475c1.847,0,3.726-0.594,5.631-1.796
			c1.909-1.2,3.727-2.66,5.454-4.386c0.541-0.543,1.038-1.112,1.55-1.678c0.263,0.539,0.551,1.066,0.898,1.536
			c0.828,1.142,1.893,2.064,3.185,2.773c1.292,0.704,2.858,1.062,4.7,1.062c2.526,0,4.959-0.426,7.301-1.267
			c2.333-0.844,4.52-1.983,6.551-3.415c2.032-1.434,3.897-3.104,5.589-5.013c1.687-1.904,3.123-3.905,4.295-5.999
			c0.302-0.491,0.523-0.924,0.644-1.295c0.12-0.37,0.188-0.863,0.188-1.473C446.982,296.886,446.835,296.64,446.564,296.454
			L446.564,296.454z M421.041,293.338c0.553-1.762,1.223-3.525,2.027-5.291c0.801-1.768,1.663-3.313,2.582-4.647
			c0.928-1.327,1.854-1.997,2.777-1.997c0.609,0,1.029,0.23,1.244,0.698c0.214,0.468,0.318,0.945,0.318,1.439
			c0,1.238-0.331,2.525-1.013,3.852c-0.678,1.333-1.511,2.633-2.486,3.9c-0.989,1.271-2.068,2.414-3.232,3.438
			c-1.173,1.02-2.252,1.84-3.237,2.466C420.148,296.391,420.481,295.104,421.041,293.338L421.041,293.338z M399.385,263.222
			c0.58-2.155,1.306-4.358,2.167-6.601c0.868-2.248,1.82-4.218,2.862-5.911c1.045-1.692,2.095-2.542,3.146-2.542
			c0.242,0,0.431,0.126,0.553,0.371c0.123,0.246,0.214,0.526,0.274,0.829c0.064,0.307,0.095,0.618,0.095,0.922v0.647
			c0,2.465-0.246,5.141-0.738,8.034c-0.488,2.894-1.109,5.508-1.844,7.845c-1.233,0.307-2.494,0.507-3.788,0.6
			c-1.289,0.091-2.551,0.23-3.784,0.421C398.447,266.913,398.797,265.375,399.385,263.222L399.385,263.222z M396.202,287.593
			c0.181-2.464,0.35-4.938,0.508-7.432c0.15-2.495,0.503-4.939,1.056-7.341c1.049-0.306,2.129-0.506,3.235-0.598
			c1.108-0.094,2.219-0.265,3.326-0.506c-0.309,1.104-0.77,2.385-1.384,3.827c-0.619,1.452-1.31,2.927-2.073,4.438
			c-0.778,1.505-1.572,2.935-2.403,4.288C397.637,285.623,396.874,286.732,396.202,287.593L396.202,287.593z M350.094,284.902
			c0.542-0.617,1.464-1.673,2.748-3.158c1.292-1.486,2.738-3.17,4.338-5.067c1.603-1.891,3.282-3.892,5.061-6.005
			c1.772-2.113,3.385-4.135,4.83-6.073c1.451-1.939,2.645-3.645,3.603-5.129c0.954-1.48,1.449-2.547,1.499-3.206
			c0.047-0.59-0.164-1.042-0.637-1.342c-0.47-0.303-0.946-0.471-1.437-0.511c-1.045-0.084-1.973,0.34-2.785,1.268l-29.904,35.073
			c0.807-4.706,1.801-9.325,2.995-13.864c1.188-4.54,2.55-9.033,4.07-13.479c0.243-0.708,0.578-1.611,1-2.704
			c0.425-1.09,0.854-2.197,1.28-3.325c0.432-1.125,0.813-2.204,1.134-3.235c0.329-1.038,0.523-1.88,0.573-2.535
			c0.125-1.586-0.255-2.592-1.148-3.021c-0.895-0.439-0.554-0.763-1.784-0.86c-0.31-0.024-0.645-0.029-1.008-0.029
			c-0.376,0.004-0.727,0.091-1.049,0.261c-0.508,0.228-1.02,0.782-1.521,1.671c-0.505,0.893-0.967,1.861-1.384,2.918
			c-0.426,1.062-0.813,2.111-1.169,3.136c-0.366,1.032-0.632,1.838-0.793,2.422c-3.474,10.251-6.201,20.609-8.198,31.079
			c-2.002,10.462-3.979,21.187-4.835,32.044c-0.073,0.855,0.018,1.675,0.268,2.455c0.241,0.779,1.844,1.289,2.602,1.015
			c0.958-0.387,2.208-0.893,2.646-1.385c0.435-0.494,0.744-1.052,0.915-1.668c0.169-0.611,0.255-1.306,0.255-2.064
			c0-0.76,0.038-1.567,0.104-2.425c0.059-0.789,0.2-1.882,0.398-3.295c0.201-1.406,0.419-2.863,0.662-4.366
			c0.246-1.503,0.528-2.94,0.854-4.302c0.326-1.364,0.605-2.436,0.854-3.204c0.973,0.935,2.682,2.191,5.115,3.771
			c2.442,1.584,5.059,3.165,7.87,4.746c2.81,1.577,0.254,0.381,2.81,1.577c2.56,1.192,4.451,1.844,5.68,1.941
			c1.414,0.11,2.601-0.259,3.567-1.11c0.958-0.854,1.498-2.029,1.613-3.549c0.037-0.39-0.139-0.719-0.516-0.982
			c-0.383-0.261-0.85-0.463-1.394-0.608c-0.544-0.139-1.087-0.23-1.64-0.275c-0.496-0.042-0.862-0.1-1.099-0.19
			c-0.483-0.105-0.921-0.23-1.309-0.394c-0.395-0.166-0.796-0.329-1.214-0.499c-3.464-1.464-1.651-0.654-5.033-2.742
			c-3.384-2.091-6.491-4.471-9.298-7.14c1.578-1.993,3.198-3.951,4.874-5.872C346.812,288.752,348.465,286.829,350.094,284.902
			L350.094,284.902z M372.381,276.651c0.561,0.708,1.331,1.063,2.313,1.063c1.231,0,2.274-0.509,3.142-1.521
			c0.854-1.017,1.288-2.141,1.288-3.374c0-0.922-0.294-1.737-0.876-2.447c-0.588-0.709-1.371-1.062-2.353-1.062
			c-1.233,0-2.263,0.523-3.094,1.569c-0.829,1.048-1.244,2.158-1.244,3.325C371.557,275.131,371.83,275.945,372.381,276.651
			L372.381,276.651z"/>
	</g>
</g>
</svg>
