<?xml version="1.0" encoding="utf-8"?>
<!-- Generator: Adobe Illustrator 16.0.4, SVG Export Plug-In . SVG Version: 6.00 Build 0)  -->
<!DOCTYPE svg PUBLIC "-//W3C//DTD SVG 1.1//EN" "http://www.w3.org/Graphics/SVG/1.1/DTD/svg11.dtd">
<svg version="1.1" id="Layer_1" xmlns="http://www.w3.org/2000/svg" xmlns:xlink="http://www.w3.org/1999/xlink" x="0px" y="0px"
	 width="600px" height="450px" viewBox="0 0 600 450" enable-background="new 0 0 600 450" xml:space="preserve">
<rect fill="#3C2415" width="600" height="450"/>
<g>
	<path fill="#3C2415" d="M353.003,218.423c11.578-12.682,18.643-29.554,18.643-48.08c0-39.395-31.936-71.329-71.33-71.329
		c-39.396,0-71.331,31.934-71.331,71.329c0,18.526,7.064,35.398,18.643,48.08H353.003z"/>
	<g>
		<g>
			<path fill="#FFFFFF" d="M257.976,255.586v23.435h-9.662v-49.678h10.484l5.411,20.968l5.414-20.968h10.553v49.678h-9.662v-23.435
				l-6.305,19.871L257.976,255.586z"/>
			<path fill="#FFFFFF" d="M300.662,272.854l-0.892,6.167h-10.003l8.974-49.678h10.62l8.979,49.678h-10.005l-0.891-6.167H300.662z
				 M301.755,264.974h4.593l-2.261-17.611L301.755,264.974z"/>
			<path fill="#FFFFFF" d="M353.283,271.346c0,5.481-2.056,7.675-7.742,7.675h-17.61v-49.678h19.46c3.904,0,5.893,2.397,5.893,6.029
				V271.346z M337.796,238.043v32.273h4.661c0.82,0,0.96-0.273,0.96-1.026v-30.286c0-0.617-0.207-0.961-0.891-0.961H337.796z"/>
		</g>
		<g>
			<path fill="#FFFFFF" d="M268.709,302.86c0,1.99-0.663,3.535-2.763,4.09c2.211,0.11,3.151,1.77,3.151,3.537v10.393
				c0,4.422-1.659,6.19-6.248,6.19h-14.536v-40.074h15.642c3.151,0,4.753,1.934,4.753,4.863V302.86z M256.272,294.015v10.503h3.76
				c0.552,0,0.995-0.331,0.995-1.051v-8.677c0-0.498-0.167-0.775-0.719-0.775H256.272z M261.137,311.759
				c0-0.884-0.497-1.16-1.216-1.16h-3.649v9.451h4.037c0.662,0,0.829-0.221,0.829-0.829V311.759z"/>
			<path fill="#FFFFFF" d="M277.939,286.996h15.588l1.382,7.462h-8.733v9.51h6.631v6.907h-6.631v8.733h8.4l-1.381,7.462h-15.256
				V286.996z"/>
			<path fill="#FFFFFF" d="M310.551,322.095l-0.718,4.976h-8.07l7.24-40.074h8.568l7.24,40.074h-8.068l-0.718-4.976H310.551z
				 M311.438,315.738h3.702l-1.824-14.204L311.438,315.738z"/>
			<path fill="#FFFFFF" d="M353.171,310.764c0,1.769-1.272,3.538-3.592,3.538l4.199,12.769h-8.291l-3.87-12.769h-1.049v12.769
				h-8.016v-40.074h15.201c3.758,0,5.417,2.045,5.417,5.195V310.764z M340.568,294.015v13.819h3.925c0.606,0,0.773-0.22,0.773-0.827
				v-12.163c0-0.497-0.223-0.829-0.773-0.829H340.568z"/>
		</g>
		<g>
			<path fill="#BE1E2D" d="M258.43,346.642l0.062-7.728h-0.046l-2.837,7.728h-1.851l-2.763-7.728h-0.045l0.061,7.728h-2.483v-10.921
				h3.754l2.487,7.004h0.061l2.379-7.004h3.812v10.921H258.43z"/>
			<path fill="#BE1E2D" d="M272.206,346.642l-0.849-2.143h-4.226l-0.802,2.143h-2.87l4.582-10.921h2.56l4.537,10.921H272.206z
				 M269.275,338.637l-1.389,3.748h2.747L269.275,338.637z"/>
			<path fill="#BE1E2D" d="M283.437,346.642l-2.372-4.335h-0.899v4.335h-2.576v-10.921h4.165c0.526,0,1.035,0.054,1.535,0.161
				c0.499,0.108,0.946,0.292,1.342,0.548c0.396,0.257,0.713,0.598,0.949,1.019c0.237,0.421,0.354,0.946,0.354,1.573
				c0,0.739-0.2,1.361-0.6,1.867c-0.401,0.502-0.957,0.864-1.668,1.082l2.855,4.671H283.437z M283.328,339.069
				c0-0.259-0.054-0.467-0.163-0.627c-0.109-0.159-0.248-0.282-0.418-0.371c-0.17-0.085-0.362-0.146-0.573-0.175
				c-0.212-0.032-0.416-0.048-0.614-0.048h-1.408v2.545h1.253c0.218,0,0.441-0.017,0.667-0.053c0.227-0.036,0.435-0.101,0.621-0.192
				c0.186-0.095,0.337-0.228,0.457-0.402C283.269,339.572,283.328,339.346,283.328,339.069z"/>
			<path fill="#BE1E2D" d="M296.022,346.642l-4.056-5.028h-0.032v5.028h-2.575v-10.921h2.575v4.442h0.047l3.903-4.442h3.3
				l-4.705,5.029l4.983,5.892H296.022z"/>
			<path fill="#BE1E2D" d="M301.87,346.642v-10.921h7.341v2.222h-4.796v2.066h4.534v2.113h-4.534v2.268h5.074v2.252H301.87z"/>
			<path fill="#BE1E2D" d="M317.45,337.973v8.669h-2.637v-8.669h-3.088v-2.252h8.809v2.252H317.45z"/>
			<path fill="#BE1E2D" d="M323.28,346.642v-10.921h2.654v10.921H323.28z"/>
			<path fill="#BE1E2D" d="M336.672,346.642l-4.396-7.143h-0.047l0.062,7.143h-2.561v-10.921h3.008l4.381,7.127h0.046l-0.061-7.127
				h2.56v10.921H336.672z"/>
			<path fill="#BE1E2D" d="M351.285,346.656c-0.714,0.176-1.494,0.262-2.336,0.262c-0.876,0-1.679-0.137-2.417-0.415
				c-0.733-0.278-1.367-0.668-1.895-1.172c-0.53-0.505-0.944-1.108-1.242-1.812s-0.447-1.487-0.447-2.354
				c0-0.872,0.151-1.666,0.455-2.374c0.304-0.709,0.722-1.314,1.257-1.812c0.533-0.499,1.161-0.883,1.883-1.149
				c0.719-0.268,1.496-0.399,2.328-0.399c0.863,0,1.667,0.129,2.407,0.39c0.741,0.265,1.343,0.617,1.806,1.06l-1.668,1.896
				c-0.255-0.3-0.596-0.543-1.017-0.734c-0.424-0.188-0.899-0.284-1.436-0.284c-0.464,0-0.891,0.084-1.28,0.256
				c-0.39,0.168-0.731,0.406-1.018,0.707c-0.289,0.305-0.512,0.663-0.672,1.082c-0.16,0.416-0.239,0.87-0.239,1.363
				c0,0.505,0.072,0.966,0.217,1.389c0.143,0.421,0.358,0.784,0.64,1.09c0.284,0.303,0.633,0.538,1.05,0.708
				c0.416,0.169,0.892,0.254,1.425,0.254c0.31,0,0.602-0.023,0.881-0.069c0.278-0.045,0.533-0.122,0.771-0.222v-1.992h-2.081v-2.129
				h4.504v5.785C352.625,346.256,352,346.482,351.285,346.656z"/>
		</g>
	</g>
	<path fill="#3C2415" d="M279.581,122.358c6.001,5.718,6.778,3.177,10.025,3.953c1.173,0.282,3.6,0.373,7.271,1.343
		c3.671,0.97,5.436,3.459,6.706,3.882c1.271,0.424,4.943,2.259,6.778,2.541c1.836,0.282,8.754,7.484,11.156,7.766
		c2.398,0.283,4.605-4.094,8.868,0c4.263,4.095,2.933,9.696,2.608,12.049c-0.325,2.353,0.521,3.625,0.452,5.883
		s1.312,2.418,1.681,7.069c0.366,4.65,1.307,5.78,2.954,7.615c1.648,1.836,0.52,3.812,1.437,5.789
		c0.919,1.976,2.358,5.16,4.18,7.098c1.822,1.939,1.331,2.311,2.212,4.737c0.88,2.426,3.177,4.112,3.019,5.739
		c-0.162,1.628-1.328,2.476-1.662,4.734c-0.334,2.258-1.994,4.236-4.13,5.648c-2.135,1.412-5.852-0.283-6.888,0.989
		c-1.037,1.271-1.694,2.117-4.473,1.694c-2.778-0.422-4.47,0.705-7.577,1.554c-3.105,0.847-2.87,2.677-6.071,1.176
		c-3.199-1.501-4.094-1.506-5.79,0c-1.693,1.507-1.632,0.363-5.224,0.571c-3.59,0.209-1.922,1.907-5.056,0.502
		c-3.132-1.402-6.098-2.815-6.804-1.685c-0.706,1.129-6.071-1.427-4.8-1.347c1.271,0.076-2.259,2.052-4.376,0.641
		c-2.119-1.412-2.684,0.693-4.66-0.641c-1.977-1.337-1.271-2.607-3.388-3.312c-2.118-0.707-2.684,0.659-4.942-0.941
		c-2.258-1.601,0.847-2.966-1.977-3.059c-2.825-0.096-2.542-0.521-4.236-1.506c-1.694-0.988-0.705-1.553-1.694-2.825
		c-0.988-1.271,5.083-0.801,7.907-4.33c2.824-3.53,5.053-4.917,5.506-8.34c0.476-3.594-1.357-1.384-7.248-5.732
		c-1.978-1.459-3.154-1.978-3.954-6.26c-0.336-1.81,0.895-5.001,0.895-5.001s-1.905-3.377-1.693-4.367
		c0.211-0.987,1.977,2.638,3.106,2.448c0.706-0.188,4.236-11.06,4.236-11.06l-5.931-15.037c-1.342,0.565-1.552,6.001-1.552,6.001
		s-0.781,1.47-1.365-0.283c-0.47-1.413-1.106-5.295-0.401-9.601c0.275-1.674-1.482-2.825-1.765-5.226
		c-0.282-2.399,0.142-4.482,0-6.053c-0.141-1.572-0.987-5.596,2.048-7.854c3.051-2.269,6.624-2.428,9.034-1.469
		C277.162,119.111,278.098,120.17,279.581,122.358"/>
	<path fill="#BE1E2D" d="M300.401,98.75c-39.424,0-71.384,31.958-71.384,71.382c0,17.454,6.266,33.445,16.668,45.849
		c0.422,0.504,10.813-5.44,22.426-12.323c-0.318-0.214-0.665-0.482-1.239-0.817c-1.694-0.988-0.705-1.553-1.694-2.825
		c-0.988-1.271,5.083-0.801,7.907-4.33c2.824-3.53,5.053-4.917,5.506-8.34c0.476-3.594-1.357-1.384-7.248-5.732
		c-1.978-1.459-3.154-1.978-3.954-6.26c-0.336-1.81,0.895-5.001,0.895-5.001s-1.905-3.377-1.693-4.367
		c0.211-0.987,1.977,2.638,3.106,2.448c0.706-0.188,4.236-11.06,4.236-11.06l-5.931-15.037c-1.342,0.565-1.552,6.001-1.552,6.001
		s-0.781,1.47-1.365-0.283c-0.47-1.413-1.106-5.295-0.401-9.601c0.275-1.674-1.482-2.825-1.765-5.226
		c-0.282-2.399,0.142-4.482,0-6.053c-0.141-1.572-0.987-5.596,2.048-7.854c3.051-2.269,6.624-2.428,9.034-1.469
		c3.16,1.257,4.097,2.316,5.58,4.505c6.001,5.718,6.778,3.177,10.025,3.953c1.173,0.282,3.6,0.373,7.271,1.343
		c3.671,0.97,5.436,3.459,6.706,3.882c1.271,0.424,4.943,2.259,6.778,2.541c1.836,0.282,8.754,7.484,11.156,7.766
		c2.398,0.283,4.605-4.094,8.868,0c4.263,4.095,2.933,9.696,2.608,12.049c-0.325,2.353,0.521,3.625,0.452,5.883
		s1.312,2.418,1.681,7.069c0.366,4.65,1.307,5.78,2.954,7.615c1.648,1.836,0.52,3.812,1.437,5.789
		c0.919,1.976,2.358,5.16,4.18,7.098c1.822,1.939,1.331,2.311,2.212,4.737c0.88,2.426,3.177,4.112,3.019,5.739
		c-0.091,0.93-0.512,1.608-0.916,2.436l4.991,18.165c12.196-12.808,18.781-29.206,18.781-48.292
		C371.784,130.708,339.825,98.75,300.401,98.75z"/>
	<path fill="#FFFFFF" d="M271.251,169.283c0,0,1.083,1.952,1.976,2.151c0.896,0.2,4.19,0.954,5.131,0.296
		c0.941-0.661,0.188-2.12,0.188-2.12s-0.706,1.027-3.504,0.519C272.697,169.703,271.251,169.283,271.251,169.283z"/>
	<path fill="#FFFFFF" d="M279.581,171.635c0,0,0.423-1.41,0.33-3.106c-0.05-0.896,0.422-2.118,0.893-2.917
		c0.471-0.8,1.46-2.542,1.695-1.977s-0.611,1.553-0.47,3.575c0.141,2.026,0.423,3.061-0.424,3.766
		C280.757,171.684,279.581,171.635,279.581,171.635z"/>
	<path fill="#FFFFFF" d="M267.862,134.147c0,0,3.53-1.057,4.519-1.129c0.989-0.07,3.071-0.105,3.67,0
		c0.591,0.104,0.777-0.67,1.342-0.246c0.564,0.423,0.67,0.716,0.458,1.847c-0.315,1.678-0.812,0.73-0.812,0.73
		s-0.354-0.635-2.752-0.142c-2.401,0.494-4.73,1.624-5.79,1.343C267.438,136.266,267.862,134.147,267.862,134.147z"/>
	<path fill="#FFFFFF" d="M281.17,142.479c-0.564-0.565,0.247,0.636,0.282-1.094c0.035-1.729-0.363-2.576-0.481-4.412
		c-0.12-1.836,0.354-1.696,0.242-2.648c-0.114-0.954-0.643-1.269-1.031-1.447c-0.388-0.177-1.306,0.6-1.448,1.129
		c-0.141,0.53,0.542,4.588,1.023,5.824C280.252,141.102,281.17,142.479,281.17,142.479z"/>
	<path fill="#BE1E2D" d="M291.831,134.619c0.812,0.412,2.307,0.128,3.267-0.474c0.594-0.373,2.097-0.067,2.097-0.067
		c-0.563-1.339-4.271-2.187-5.329-2.046c-1.059,0.141-0.812,0.914-0.601,1.286C291.477,133.689,291.831,134.619,291.831,134.619z"/>
</g>
</svg>
