<?xml version="1.0" encoding="utf-8"?>
<!-- Generator: Adobe Illustrator 16.0.4, SVG Export Plug-In . SVG Version: 6.00 Build 0)  -->
<!DOCTYPE svg PUBLIC "-//W3C//DTD SVG 1.1//EN" "http://www.w3.org/Graphics/SVG/1.1/DTD/svg11.dtd">
<svg version="1.1" id="Layer_1" xmlns="http://www.w3.org/2000/svg" xmlns:xlink="http://www.w3.org/1999/xlink" x="0px" y="0px"
	 width="600px" height="450px" viewBox="0 0 600 450" enable-background="new 0 0 600 450" xml:space="preserve">
<g>
	<path fill-rule="evenodd" clip-rule="evenodd" fill="#939598" d="M321.371,106.229c0,0.48-0.482,0.718-1.434,0.718h-1.363
		c-8.513,0-19.032,6.074-31.56,18.217c-12.528,12.146-21.874,25.317-28.042,39.519c4.781-7.746,10.351-13.985,16.712-18.719
		c6.405-4.781,12.43-7.17,18.073-7.172c4.78,0,8.654,1.484,11.618,4.448c3.014,2.917,4.52,6.718,4.52,11.403
		c0,8.463-4.661,16.736-13.985,24.816c-9.278,8.033-18.817,12.049-28.617,12.049c-5.357,0-9.637-1.721-12.838-5.164
		c-3.157-3.443-4.734-8.08-4.734-13.915c0-8.653,3.561-17.713,10.687-27.183c7.124-9.466,17.116-18.455,29.979-26.967
		c5.164-3.443,10.709-6.431,16.639-8.965c5.931-2.582,10.279-3.873,13.053-3.873C320.941,105.44,321.371,105.704,321.371,106.229
		L321.371,106.229z M303.727,149.406c0-6.455-3.562-9.682-10.687-9.682c-7.604,0-15.708,4.471-24.312,13.412
		c-8.561,8.894-12.839,17.285-12.839,25.174c0,3.729,0.932,6.72,2.797,8.965c1.865,2.249,4.35,3.369,7.459,3.371
		c7.409,0,15.514-4.828,24.313-14.488C299.301,166.453,303.727,157.535,303.727,149.406L303.727,149.406z"/>
	<path fill-rule="evenodd" clip-rule="evenodd" fill="#939598" d="M375.271,142.918c0,9.303-4.651,19.213-13.952,29.732
		c-11.333,12.794-21.814,19.192-31.44,19.192c-4.871,0-8.874-1.725-12.001-5.179c-3.089-3.492-4.629-7.96-4.629-13.404
		c0-10.925,6.702-22.034,20.105-33.327c11.572-9.707,20.817-14.56,27.721-14.561c4.304,0,7.736,1.604,10.294,4.813
		C373.969,133.396,375.269,137.64,375.271,142.918L375.271,142.918z M370.822,136.217c0-6.66-3.21-9.99-9.626-9.992
		c-5.238,0-11.29,3.089-18.155,9.262c-6.54,5.849-12.146,12.897-16.816,21.141c-4.871,8.651-7.31,16.288-7.31,22.908
		c0,7.637,3.611,11.454,10.846,11.454c8.935,0,17.908-6.233,26.927-18.704c4.266-5.889,7.679-12.123,10.237-18.704
		C369.523,147,370.822,141.213,370.822,136.217L370.822,136.217z"/>
	<g>
		<path fill="#939598" d="M175.451,307.359c0.058-0.25,0.145-0.469,0.253-0.66l-0.837-0.009v0.669H175.451z"/>
		<path fill="#939598" d="M214.213,303.711l-1.152-2.681l-2.443-5.684l-0.696-1.62h-0.411l-0.695,1.62l-2.443,5.684l-1.153,2.681
			c-0.935,2.189-1.225,2.541-3.006,2.541v0.438v0.172h5.518v-0.172v-0.438c-2.306,0-2.336-0.497-1.577-2.22l0.583-1.343h4.788
			l0.583,1.343c0.759,1.723,0.526,2.22-1.576,2.22v0.438v0.172h6.539v-0.172v-0.438C215.526,306.252,215.148,305.9,214.213,303.711z
			 M207.206,301.61l0.25-0.58l1.677-3.887l1.675,3.887l0.252,0.58H207.206z"/>
		<path fill="#939598" d="M260.421,303.916c-0.35,1.37-0.73,1.868-3.386,1.868h-0.352c-1.957,0-2.305-0.467-2.305-3.386v-1.368
			v-0.325h0.174c1.275,0,2.041,0.072,2.495,0.313l1.242,0.012v-3.713h-0.583c0,1.956-0.233,2.306-3.153,2.306h-0.174v-4.276v-0.072
			h1.955c0.58,0,1.053,0.025,1.44,0.078h0.028c1.353,0.198,1.642,0.749,1.889,1.791l0.147,0.582h0.612l-0.16-2.379l-0.074-1.124
			h-3.766h-6.453v0.583c0.938,0,1.51,0.108,1.847,0.544h0.001c0.363,0.475,0.458,1.329,0.458,2.845v2.836v1.834
			c0,2.92-0.35,3.416-2.306,3.416v0.41v0.172h10.919l0.01-0.172l0.223-3.36h-0.583L260.421,303.916z"/>
		<path fill="#939598" d="M247.579,303.916c-0.352,1.37-0.704,1.868-3.388,1.868h-1.022c-1.957,0-2.306-0.467-2.306-3.386v-1.368
			v-2.836c0-1.518,0.095-2.373,0.46-2.845l-1.496-0.002l1.496-0.001c0.338-0.433,0.907-0.541,1.846-0.541v-0.583h-6.687v0.583
			c0.942,0,1.511,0.108,1.848,0.544h0.002c0.365,0.475,0.459,1.329,0.459,2.845v2.836v1.834c0,2.92-0.352,3.416-2.309,3.416v0.41
			v0.172h11.651l0.009-0.172l0.194-3.36h-0.613L247.579,303.916z"/>
		<path fill="#939598" d="M257.706,303.011h0.583v-1.98h-1.242C257.63,301.332,257.706,301.926,257.706,303.011z"/>
		<path fill="#939598" d="M341.438,303.566c-0.378,1.546-0.699,2.218-3.357,2.218h-3.502c-2.424,0-2.773-0.467-2.773-3.386v-1.368
			v-5.684v-2.001c0-2.919,0.35-3.384,2.773-3.384v-0.614h-7.884v0.614c2.422,0,2.774,0.465,2.774,3.384v2.001v5.684v1.807
			c0,2.918-0.353,3.415-2.774,3.415v0.438v0.172h15.27l0.012-0.172l0.222-3.71h-0.61L341.438,303.566z"/>
		<path fill="#939598" d="M186.271,301.021c-0.302-1.256-1.167-2.472-2.909-3.354l-2.802-1.429c-0.627-0.323-1.162-0.614-1.61-0.897
			h-0.008c-1.342-0.844-1.915-1.589-1.915-2.725c0-1.459,1.198-2.597,2.832-2.597c3.388,0,4.262,2.772,4.467,5.107h0.613v-6.424
			h-0.584c-0.145,0.613-0.496,1.052-0.846,1.344c-0.877-0.641-1.839-1.196-3.563-1.196c-2.832,0-4.846,1.927-4.846,4.349
			c0,0.785,0.194,1.51,0.52,2.153h0.004c0.593,1.183,1.625,2.103,2.718,2.667l2.802,1.429c0.975,0.494,1.791,1.021,2.375,1.588
			h0.005c0.622,0.608,0.978,1.253,0.978,1.944c0,1.87-1.576,3.214-3.648,3.214c-4.906,0-5.358-4.43-5.397-5.156l-0.589-0.008v5.66
			h0.837c0.166-0.291,0.379-0.524,0.594-0.702c0.44,0.098,0.981,0.405,1.665,0.705h0.006c0.768,0.34,1.711,0.666,2.884,0.666
			c1.012,0,1.973-0.235,2.801-0.669h0.006c1.625-0.857,2.739-2.478,2.739-4.584c0-0.36-0.041-0.724-0.127-1.085H186.271z"/>
		<path fill="#939598" d="M202.221,295.347l-0.062-1.124h-13.023l-0.054,1.124l-0.121,2.468h0.585l0.145-0.586
			c0.352-1.371,0.584-1.868,3.27-1.868h1.694v5.67v1.834c0,2.92-0.379,3.416-2.336,3.416v0.41v0.172h6.716v-0.172v-0.41
			c-1.957,0-2.335-0.496-2.335-3.416v-1.834v-5.67h1.518c2.686,0,3.035,0.497,3.386,1.868l0.146,0.586h0.614L202.221,295.347z"/>
		<path fill="#939598" d="M175.451,300.938h-0.583v0.092h0.589C175.451,300.972,175.451,300.938,175.451,300.938z"/>
		<g>
			<path fill="#939598" d="M290.229,301.032c-0.636,1.094-0.952,2.26-0.952,3.494c0,0.719,0.127,1.446,0.378,2.164l1.399-0.003
				c-0.032-0.244-0.046-0.471-0.046-0.68c0-1.742,0.581-3.401,1.743-4.978L290.229,301.032z"/>
			<g>
				<path fill="#939598" d="M307.769,310.608c-0.696,0-1.379-0.133-2.05-0.398c1.415-1.047,2.446-2.216,3.1-3.511h0.006
					c0.551-1.093,0.829-2.272,0.829-3.541c0-0.783-0.105-1.492-0.316-2.128l-0.574,0.006c0.15,0.495,0.226,1.039,0.226,1.628
					c0,1.165-0.401,2.381-1.197,3.648c-0.079,0.124-0.154,0.247-0.237,0.373h-0.004c-0.758,1.118-1.737,2.128-2.936,3.029
					l-0.189-0.133c-0.571-0.43-0.945-0.741-1.12-0.932c0.799-0.467,1.521-1.113,2.164-1.938c0.009-0.008,0.014-0.017,0.023-0.022
					l-0.262-0.001l0.262-0.002c0.643-0.823,0.967-1.506,0.967-2.048c0-0.305-0.146-0.455-0.436-0.455
					c-0.255,0-0.383,0.178-0.383,0.531c-0.017,0.702-0.241,1.356-0.67,1.972h-0.002c-0.435,0.625-1.087,1.205-1.95,1.734
					c-0.469-0.524-0.847-1.098-1.135-1.731h-0.004c-0.342-0.74-0.557-1.552-0.648-2.431c1.115-0.968,2.111-2.04,2.985-3.222h0.006
					c0.688-0.927,1.302-1.921,1.838-2.975c1.412,0.681,2.312,1.671,2.702,2.967h0.574c-0.482-1.466-1.526-2.545-3.124-3.233
					c0.479-1.034,0.797-1.854,0.951-2.45c0.076-0.286,0.111-0.52,0.111-0.705c0-0.202-0.08-0.305-0.244-0.305
					c-0.178,0.003-0.295,0.18-0.345,0.533c-0.025,0.158-0.056,0.315-0.091,0.477c-0.165,0.733-0.444,1.498-0.839,2.298
					c-0.66-0.214-1.362-0.322-2.111-0.322c-0.533,0-1.151,0.064-1.864,0.188c0.203-0.761,0.433-1.479,0.695-2.161h0.001
					c0.217-0.563,0.455-1.097,0.713-1.601c1.315-0.736,2.418-1.427,3.308-2.074c2.212,0.981,3.999,2.205,5.356,3.672l0.466-0.006
					c-1.466-1.601-3.305-2.898-5.519-3.893c2.547-1.976,3.82-3.338,3.82-4.085c0-0.419-0.222-0.63-0.667-0.63
					c-0.519,0-1.278,0.383-2.279,1.141c-1.003,0.75-1.981,1.682-2.945,2.795c-2.181-0.672-4.348-1.008-6.5-1.008
					c-3.854,0.003-7.105,1.021-9.752,3.061c-1.05,0.805-1.892,1.683-2.526,2.625h1.795c0.549-0.674,1.204-1.32,1.965-1.939
					c2.725-2.217,5.868-3.327,9.428-3.327c1.775,0,3.562,0.285,5.363,0.854c-0.7,0.978-1.258,1.821-1.674,2.528
					c-1.922,0.73-3.505,1.353-4.757,1.876h-0.021c-1.454,0.596-2.453,1.049-2.998,1.356c-2.287,1.293-3.896,2.739-4.826,4.335
					l2.521-0.006c1.49-2.025,3.934-3.918,7.332-5.678l-0.507-0.002h0.507c0.123-0.064,0.247-0.125,0.37-0.189l2.033-1.026
					c-0.204,0.423-0.388,0.821-0.556,1.21h-0.005c-0.407,0.924-0.716,1.731-0.921,2.42c-1.799,0.585-3.27,1.534-4.41,2.852
					c-0.119,0.139-0.232,0.28-0.342,0.42l1.004-0.012c0.932-1.229,2.144-2.178,3.635-2.841c-0.306,1.023-0.508,1.975-0.616,2.853
					l0.703,0.002l-0.703,0.006c-0.059,0.489-0.089,0.952-0.089,1.396c0,0.597,0.077,1.281,0.229,2.053
					c-1.193,0.965-2.513,1.701-3.963,2.203l0.983-0.003c1.058-0.482,2.076-1.096,3.055-1.839c0.169,0.63,0.422,1.245,0.756,1.842
					l0.212,0.005l-0.212,0.001c0.365,0.655,0.829,1.296,1.393,1.917c-0.8,0.367-1.565,0.55-2.301,0.55
					c-1.901,0-3.224-0.677-3.971-2.034c0.36-0.133,0.716-0.28,1.069-0.438l-0.983,0.006c-0.091,0.031-0.183,0.061-0.277,0.092
					c-0.012-0.031-0.023-0.061-0.034-0.098h-0.002c-0.217-0.586-0.325-1.15-0.325-1.689c0-1.368,0.469-2.681,1.406-3.935
					c0.013-0.015,0.023-0.03,0.035-0.036h-1.004c-0.913,1.198-1.368,2.469-1.368,3.818c0,0.604,0.142,1.218,0.426,1.842
					c0.049,0.109,0.104,0.217,0.162,0.325c-1,0.267-1.919,0.399-2.755,0.399c-0.268,0-0.787-0.04-1.56-0.114
					c-0.044-0.217-0.079-0.419-0.104-0.61l-1.399,0.012c0.019,0.053,0.039,0.108,0.058,0.16c-0.127-0.05-0.252-0.105-0.373-0.172
					h-0.021c-2.46-1.15-3.691-3.024-3.691-5.624c0-0.015,0-0.025,0-0.036l-1.081,0.002c0.134,1.338,0.602,2.534,1.404,3.588
					c0.638,0.844,1.44,1.529,2.405,2.07h0.013c0.484,0.267,1.008,0.495,1.575,0.685c0.721,1.536,1.874,2.76,3.459,3.672
					c1.597,0.899,3.388,1.35,5.378,1.35c2.394,0,4.588-0.652,6.579-1.96c1.113,0.42,2.074,0.628,2.886,0.628
					c2.042,0,3.779-0.78,5.211-2.337c0.571-0.624,1.032-1.305,1.377-2.037h-1.213c-0.272,0.514-0.6,1.001-0.983,1.466
					C311.281,309.79,309.659,310.608,307.769,310.608z M307.886,288.179c0.975-0.746,1.665-1.12,2.069-1.12
					c0.203,0,0.306,0.103,0.306,0.305c0,0.328-0.394,0.899-1.18,1.71c-0.785,0.799-1.673,1.539-2.66,2.222l-0.247-0.074
					l-0.494-0.247l-0.549-0.188C306.001,289.795,306.923,288.93,307.886,288.179z M304.9,291.106c0.38,0.128,0.779,0.268,1.198,0.42
					c-1.09,0.76-1.97,1.304-2.642,1.633C303.911,292.4,304.395,291.715,304.9,291.106z M301.156,302.664
					c0-0.564,0.017-1.107,0.053-1.632c0.078-1.153,0.245-2.195,0.497-3.121c0.686-0.178,1.331-0.267,1.939-0.267
					c0.633,0.002,1.299,0.089,1.995,0.267c-0.521,1.097-1.153,2.136-1.901,3.119l0.242,0.004l-0.242,0.004
					c-0.737,0.979-1.587,1.909-2.544,2.786C301.168,303.494,301.156,303.108,301.156,302.664z M298.4,311.958
					c-1.622,0-3.093-0.392-4.41-1.178c-1.305-0.784-2.211-1.82-2.719-3.1c0.597,0.075,1.09,0.114,1.483,0.114
					c0.874,0,1.856-0.152,2.948-0.455c1.101,1.443,2.559,2.167,4.37,2.167c0.899,0,1.842-0.222,2.832-0.666
					c0.278,0.33,0.747,0.697,1.408,1.102C302.309,311.286,300.338,311.958,298.4,311.958z"/>
				<path fill="#939598" d="M315.6,303.045c0-0.683-0.066-1.356-0.205-2.015h-0.8c0.051,0.404,0.076,0.815,0.076,1.234
					c0,1.64-0.35,3.116-1.052,4.426l1.213-0.003C315.345,305.595,315.6,304.38,315.6,303.045z"/>
				<path fill="#939598" d="M313.205,296.41c-0.278-0.37-0.573-0.725-0.885-1.063l-0.466,0.003c0.24,0.265,0.472,0.533,0.686,0.813
					c1.154,1.493,1.84,3.115,2.055,4.867l0.8-0.006C315.064,299.426,314.335,297.889,313.205,296.41z"/>
			</g>
			<path fill="#939598" d="M284.504,300.211c0,0.281,0.014,0.552,0.042,0.819l1.081-0.004c0.007-2.066,0.717-3.959,2.12-5.68
				l-1.795,0.009C284.987,296.804,284.504,298.421,284.504,300.211z"/>
		</g>
		<path fill="#939598" d="M227.524,294.806c0.938,0,1.509,0.108,1.846,0.544h0.001c0.365,0.475,0.459,1.329,0.459,2.845v2.836v2.417
			l-2.038-2.417l-4.783-5.684l-0.947-1.124h-3.591v0.583c0.94,0,1.51,0.108,1.847,0.544h0.001c0.363,0.475,0.458,1.329,0.458,2.845
			v2.836v1.834c0,2.92-0.35,3.416-2.307,3.416v0.41v0.172h5.692v-0.172v-0.41c-1.953,0-2.305-0.496-2.305-3.416v-1.834v-3.887
			l3.24,3.887l4.722,5.66l0.533,0.641h0.555v-0.641v-5.66v-2.836c0-1.518,0.096-2.373,0.461-2.845l-1.001-0.002l1.001-0.001
			c0.336-0.433,0.906-0.541,1.846-0.541v-0.583h-5.692V294.806z"/>
		<path fill="#939598" d="M272.328,294.806c1.079,0,1.581,0.125,1.611,0.544c0.024,0.339-0.261,0.867-0.795,1.677l-2.247,3.356
			l-2.278-3.356c-0.543-0.788-0.795-1.324-0.725-1.671l-1.875-0.006l1.875-0.003c0.08-0.392,0.587-0.541,1.572-0.541v-0.583h-6.482
			v0.583c0.77,0,1.286,0.145,1.785,0.547h0.006c0.482,0.396,0.952,1.033,1.626,2.023l2.485,3.654l0.435,0.638v1.196
			c0,2.92-0.38,3.416-2.336,3.416v0.41v0.172h6.715v-0.172v-0.41c-1.956,0-2.334-0.496-2.334-3.416v-1.228l0.412-0.606l2.479-3.654
			c0.658-0.976,1.156-1.627,1.704-2.029h0.003c0.516-0.383,1.075-0.541,1.854-0.541v-0.583h-5.489V294.806z"/>
		<g>
			<path fill="#939598" d="M403.028,307.359c0.86,0,1.668-0.233,2.34-0.657l-4.926-0.012
				C401.078,307.016,401.982,307.359,403.028,307.359z"/>
			<path fill="#939598" d="M399.202,307.359c0.044-0.255,0.145-0.48,0.255-0.666l-0.782-0.003v0.669H399.202z"/>
			<path fill="#939598" d="M420.455,303.011h0.585v-1.98h-1.24C420.383,301.332,420.455,301.926,420.455,303.011z"/>
			<path fill="#939598" d="M423.315,303.33l-0.145,0.586c-0.353,1.37-0.729,1.868-3.388,1.868h-0.35
				c-1.956,0-2.307-0.467-2.307-3.386v-1.368v-0.325h0.176c1.278,0,2.042,0.072,2.497,0.313l1.24,0.012v-3.713h-0.585
				c0,1.956-0.233,2.306-3.152,2.306h-0.176v-4.276v-0.072h1.957c0.583,0,1.055,0.025,1.44,0.078h0.029
				c1.354,0.198,1.637,0.749,1.888,1.791l0.145,0.582h0.615l-0.157-2.379l-0.075-1.124H419.2h-6.451v0.583
				c0.94,0,1.506,0.108,1.846,0.544h0.002c0.364,0.475,0.458,1.329,0.458,2.845v2.836v1.834c0,2.92-0.35,3.416-2.306,3.416v0.41
				v0.172h10.919l0.01-0.172l0.224-3.36H423.315z"/>
			<path fill="#939598" d="M406.192,301.024c-0.334-0.354-0.762-0.682-1.296-0.963l-1.96-1.021
				c-1.779-0.936-2.537-1.489-2.537-2.511c0-0.498,0.205-0.896,0.538-1.183h0.006c0.39-0.336,0.95-0.511,1.559-0.511
				c0.635,0,1.15,0.188,1.567,0.503l2.081,0.008v-1.62h-0.583c-0.061,0.466-0.294,0.729-0.438,0.905
				c-0.614-0.439-1.55-0.878-2.773-0.878c-1.373,0-2.508,0.636-3.13,1.587l0.688,0.004l-0.688,0.002
				c-0.332,0.501-0.521,1.097-0.521,1.737c0,1.635,1.023,2.83,2.424,3.561l0.744,0.386l1.239,0.638
				c1.577,0.816,2.394,1.576,2.394,2.598c0,1.257-0.991,1.956-2.246,1.956c-2.191,0-3.767-1.401-4-3.882h-0.586v4.351h0.782
				c0.103-0.172,0.214-0.311,0.3-0.41c0.163,0.108,0.396,0.256,0.686,0.405l4.926,0.005c1.081-0.673,1.803-1.853,1.803-3.329
				c0-0.769-0.277-1.607-0.974-2.337H406.192z"/>
			<path fill="#939598" d="M405.567,298.66h0.583v-3.313h-2.081C405.026,296.06,405.445,297.438,405.567,298.66z"/>
			<path fill="#939598" d="M358.664,295.347h-2.453c1.859,0.988,2.597,3.277,2.597,5.181c0,0.167-0.005,0.333-0.017,0.503
				c-0.161,2.441-1.492,5.191-4.711,5.191c-3.22,0-4.555-2.75-4.715-5.184l-1.793-0.006l1.793-0.002
				c-0.012-0.165-0.017-0.333-0.017-0.503c0-1.898,0.737-4.18,2.587-5.181h0.012c0.593-0.324,1.3-0.511,2.133-0.511
				c0.831,0,1.536,0.187,2.131,0.503L358.664,295.347c-1.244-1.007-2.845-1.62-4.584-1.62c-1.743,0-3.348,0.613-4.588,1.62
				c-1.548,1.254-2.536,3.125-2.536,5.181c0,0.17,0.006,0.338,0.02,0.505c0.19,2.499,1.794,4.626,4.04,5.661h0.008
				c0.928,0.43,1.965,0.666,3.057,0.666c1.093,0,2.133-0.238,3.062-0.666l-3.062-0.002l3.062-0.001
				c2.242-1.028,3.849-3.16,4.04-5.658h-0.598l0.598-0.002c0.014-0.165,0.02-0.333,0.02-0.503
				C361.202,298.472,360.212,296.601,358.664,295.347z"/>
			<path fill="#939598" d="M385.894,294.806c0.94,0,1.51,0.108,1.849,0.544h0.001c0.365,0.475,0.459,1.329,0.459,2.845v2.836v1.834
				c0,2.92-0.353,3.416-2.309,3.416v0.41v0.172h6.685v-0.172v-0.41c-1.953,0-2.304-0.496-2.304-3.416v-1.834v-2.836
				c0-1.518,0.095-2.373,0.461-2.845l-1.496-0.002l1.496-0.001c0.336-0.433,0.905-0.541,1.843-0.541v-0.583h-6.685V294.806z"/>
			<path fill="#939598" d="M375.703,294.806c0.941,0,1.514,0.108,1.849,0.544h0.002c0.364,0.475,0.459,1.329,0.459,2.845v2.836v1.31
				c0,2.539-1.518,3.707-3.563,3.707c-2.042,0-3.445-1.168-3.445-3.707v-1.31v-2.836c0-1.518,0.104-2.373,0.471-2.845l-1.5-0.002
				l1.5-0.001c0.345-0.433,0.914-0.541,1.838-0.541v-0.583h-6.686v0.583c0.938,0,1.508,0.108,1.846,0.544h0.001
				c0.362,0.475,0.46,1.329,0.46,2.845v2.836v1.104c0,2.229,0.994,3.761,2.479,4.557c0.79,0.425,1.723,0.641,2.719,0.641
				c0.993,0,1.928-0.216,2.725-0.641c1.493-0.796,2.501-2.328,2.501-4.557v-1.104v-2.836c0-1.518,0.103-2.373,0.472-2.845
				l-1.139-0.002l1.139-0.001c0.338-0.433,0.906-0.541,1.833-0.541v-0.583h-5.958V294.806z"/>
		</g>
	</g>
	<g>
		<polygon fill="#9397CB" points="282.005,330.714 281.921,331.318 281.698,331.968 281.282,332.664 282.036,332.355 
			282.732,331.968 283.399,331.523 283.988,330.99 284.34,330.573 284.462,330.43 284.878,329.85 285.158,329.26 285.323,328.65 
			285.381,327.927 285.323,327.23 285.188,326.583 285.015,325.974 284.878,325.354 284.819,324.747 284.937,324.137 
			285.216,323.518 284.462,323.914 283.786,324.303 283.265,324.719 282.812,325.16 282.422,325.693 282.144,326.281 
			281.949,327.009 281.802,327.841 281.785,328.429 281.833,329.009 281.921,329.569 282.005,330.121 282.005,330.573 		"/>
		<polygon fill="#9397CB" points="264.561,322.097 265.486,322.407 266.405,322.66 267.352,322.852 268.25,323.046 269.141,323.19 
			269.973,323.295 270.785,323.385 271.54,323.411 272.234,323.442 272.854,323.463 273.413,323.442 273.859,323.411 
			274.244,323.354 274.496,323.268 275.028,322.969 275.532,322.716 275.974,322.494 276.42,322.291 276.873,322.127 
			277.396,321.905 278.015,321.681 278.738,321.403 278.072,321.181 277.366,321.046 276.623,320.957 275.84,320.957 
			275.028,320.986 274.159,321.073 273.239,321.15 272.293,321.265 271.289,321.372 270.226,321.488 269.112,321.595 
			267.941,321.653 266.744,321.681 265.46,321.653 264.115,321.567 262.721,321.403 263.611,321.77 		"/>
		<path fill="#9397CB" d="M277.116,322.688l-0.995,0.502l-0.978,0.58l-0.956,0.618l-0.919,0.696l-0.977,0.811
			c-2.209,2.134-4.532,3.956-5.67,4.676h-0.004c-0.222,0.143-0.4,0.239-0.52,0.289l0.854,0.657c0.444-0.253,0.951-0.596,1.438-0.944
			c1.04-0.739,1.979-1.506,1.979-1.506l1.109-0.755l0.958-0.58l0.773-0.424l0.678-0.28l0.551-0.167l0.472-0.075l0.396-0.027h0.33
			l0.281,0.027h0.279l0.253-0.058l0.248-0.146l0.311-0.221l0.337-0.33l0.271-0.312l0.252-0.308l0.283-0.277l0.25-0.271l0.252-0.28
			l0.278-0.281l0.283-0.28l0.278-0.282l0.309-0.277l0.301-0.272l0.366-0.281l0.358-0.311l0.426-0.276l0.415-0.303l0.475-0.308
			l0.502-0.34l-1.17,0.087l-1.122,0.194l-1.114,0.279l-1.062,0.339L277.116,322.688z"/>
		<path fill="#9397CB" d="M320.239,322.02l0.414,0.303l0.427,0.276l0.358,0.311l0.369,0.281l0.3,0.272l0.309,0.277l0.277,0.282
			l0.282,0.28l0.278,0.281l0.255,0.28l0.249,0.271l0.283,0.277l0.25,0.308l0.27,0.312l0.338,0.33l0.311,0.221l0.251,0.146
			l0.251,0.058h0.281l0.28-0.027h0.33l0.396,0.027l0.472,0.075l0.55,0.167l0.68,0.28l0.771,0.424l0.957,0.58l1.11,0.755
			c0,0,0.941,0.767,1.979,1.506c0.488,0.349,0.995,0.691,1.439,0.944l0.855-0.657c-0.12-0.05-0.299-0.146-0.521-0.289h-0.005
			c-1.136-0.72-3.458-2.542-5.671-4.676l-0.973-0.811l-0.922-0.696l-0.955-0.618l-0.977-0.58l-0.995-0.502l-1.063-0.417
			l-1.063-0.339l-1.115-0.279l-1.121-0.194l-1.168-0.087l0.503,0.34L320.239,322.02z"/>
		<polygon fill="#9397CB" points="324.558,321.905 325.09,322.127 325.564,322.291 325.98,322.494 326.426,322.716 326.931,322.969 
			327.457,323.268 327.709,323.354 328.106,323.411 328.551,323.442 329.103,323.463 329.719,323.442 330.416,323.411 
			331.173,323.385 331.983,323.295 332.812,323.19 333.711,323.046 334.603,322.852 335.549,322.66 336.479,322.407 
			337.396,322.097 338.343,321.77 339.233,321.403 337.841,321.567 336.497,321.653 335.221,321.681 334.022,321.653 
			332.841,321.595 331.732,321.488 330.67,321.372 329.663,321.265 328.714,321.15 327.798,321.073 326.931,320.986 
			326.122,320.957 325.344,320.957 324.588,321.046 323.891,321.181 323.217,321.403 323.941,321.681 		"/>
		<polygon fill="#9397CB" points="316.94,325.974 316.776,326.583 316.629,327.23 316.574,327.927 316.629,328.65 316.796,329.26 
			317.078,329.85 317.503,330.43 317.631,330.573 318.006,330.99 318.556,331.523 319.232,331.968 319.929,332.355 320.684,332.664 
			320.256,331.968 320.037,331.318 319.957,330.714 319.957,330.573 319.957,330.121 320.037,329.569 320.123,329.009 
			320.181,328.429 320.15,327.841 320.006,327.009 319.812,326.281 319.532,325.693 319.174,325.16 318.7,324.719 318.167,324.303 
			317.503,323.914 316.749,323.518 317.02,324.137 317.135,324.747 317.078,325.354 		"/>
		<path fill="#9397CB" d="M230.996,330.566c-0.698-1.454-0.84-3.223-0.229-5.341c0.538-2.299,3.763-4.791,6.059-2.885
			c2.183,1.819,0.134,4.866-1.62,3.466c2.146,1.827,4.729-2.283,2.059-4.492c-2.784-2.346-6.645,0.683-7.328,3.418
			c-0.665,2.334-0.579,4.266,0.065,5.841L230.996,330.566z"/>
		<path fill="#9397CB" d="M371.972,324.732c-0.683-2.735-4.543-5.764-7.328-3.418c-2.677,2.213-0.084,6.332,2.065,4.486
			c-1.754,1.41-3.811-1.639-1.628-3.46c2.298-1.906,5.523,0.586,6.062,2.885c0.61,2.118,0.468,3.887-0.231,5.348
			c-2.482,5.165-12.032,6.325-19.851,5.104c-2.34-0.363-4.685-0.963-7.046-1.712c0.544-0.827,0.803-1.775,0.688-2.854
			c-0.02-0.188-0.047-0.365-0.084-0.528c-0.688-3.236-4.17-2.022-7.325-0.01l1.326-0.007c0.559-0.395,1.124-0.752,1.672-1.024
			c1.639-0.818,3.01-0.865,3.439,1.031c0.053,0.247,0.092,0.518,0.117,0.819c0.066,0.902-0.091,1.692-0.441,2.378
			c-1.876-0.615-3.769-1.321-5.675-2.075l-0.796,0.69c1.931,0.767,3.912,1.49,5.99,2.132c-1.629,2.037-5.205,2.966-9.314,3.151
			c-0.947,0.045-1.924,0.048-2.911,0.018c0.009-0.009,0.017-0.02,0.024-0.02l-0.921-0.004l0.921-0.005
			c1.019-1.094,2.396-2.313,4.427-4.192c0.826-0.766,2.122-1.945,3.468-2.893l-1.326,0.007c-1.07,0.682-2.101,1.46-2.973,2.189
			c-2.461,2.052-4.038,3.727-5.428,4.889h-0.011c-0.008,0.009-0.019,0.017-0.03,0.028c-0.113-0.009-0.229-0.015-0.341-0.02
			l-1.641-0.003h1.641c-1.299-0.088-2.411-0.241-3.627-0.441c-4.648-0.774-8.136-2.378-10.869-4.096
			c-1.357-0.852-2.531-1.734-3.568-2.554l-0.571,0.007c1.076,0.969,2.291,2.051,3.739,3.102c2.165,1.567,4.843,3.062,8.339,3.985
			h0.04c0.742,0.192,1.515,0.36,2.33,0.497c1.146,0.188,2.395,0.313,3.69,0.368c-2.325,1.826-4.287,3.085-7.967,6.064l0.158,0.195
			c3.913-3.163,6.062-4.3,8.777-6.231c2.825,0.044,5.852-0.233,8.485-0.894c2.522-0.633,4.688-1.612,5.979-2.991
			c2.093,0.63,4.288,1.171,6.635,1.59c7.781,1.368,19.252,0.641,21.822-5.688C372.549,328.998,372.635,327.066,371.972,324.732z"/>
		<path fill="#9397CB" d="M310.447,330.571c-0.553-0.436-1.066-0.854-1.549-1.243l0.841-0.068l1.2-0.087l1.342-0.105l0.785-0.085
			l0.755-0.226l0.666-0.355l0.58-0.475l0.475-0.588l0.365-0.669l0.221-0.755l0.088-0.779l-0.027-0.478l-0.09-0.444l-0.105-0.413
			l-0.174-0.416l-0.223-0.37l-0.25-0.354l-0.299-0.312l-0.311-0.279l0.754,0.253l0.755,0.308l0.725,0.339l0.725,0.355l0.724,0.416
			l0.699,0.446l0.694,0.452l0.666,0.497l0.677,0.5l0.666,0.56l0.669,0.563l0.677,0.58l0.638,0.616l0.64,0.609l0.615,0.64
			l0.641,0.646l-0.283-0.56l-0.327-0.562l-0.339-0.552l-0.357-0.561l-0.397-0.53l-0.412-0.533l-0.417-0.521l-0.455-0.531
			l-0.443-0.505l-0.475-0.471l-0.506-0.503l-0.499-0.446l-0.502-0.444l-0.503-0.443l-0.502-0.417l-0.532-0.396l-0.39-0.28
			l-0.382-0.25l-0.427-0.194l-0.391-0.193l-0.385-0.134l-0.367-0.089l-0.385-0.086l-0.368-0.05h-0.359h-0.366l-0.337,0.05
			l-0.331,0.086l-0.309,0.089l-0.308,0.134l-0.312,0.163l-0.269,0.176l-0.202-0.031l-0.194-0.028l-0.194-0.027h-0.194l-0.782,0.087
			l-0.752,0.221l-0.669,0.358l-0.588,0.474l-0.475,0.59l-0.367,0.668l-0.222,0.755l-0.077,0.774l-0.147,0.779l-0.222,0.638
			l-0.328,0.562l-0.424,0.444l-0.476,0.368l-0.529,0.3l-0.555,0.222l-0.589,0.145l-0.589,0.105l-0.58,0.089l-0.59,0.03h-0.561
			h-0.502h-0.444h-0.386h-0.312h-0.309h-0.388h-0.473h-0.532h-0.561l-0.608-0.03l-0.618-0.089l-0.61-0.105l-0.617-0.145
			l-0.581-0.222l-0.562-0.3l-0.501-0.368l-0.414-0.444l-0.339-0.562l-0.251-0.638l-0.136-0.779l-0.085-0.774l-0.224-0.755
			l-0.367-0.668l-0.472-0.59l-0.581-0.474l-0.678-0.358l-0.754-0.221l-0.771-0.087h-0.205l-0.191,0.027l-0.194,0.028l-0.195,0.031
			l-0.278-0.176l-0.309-0.163l-0.312-0.134l-0.298-0.089l-0.338-0.086l-0.339-0.05h-0.359h-0.366l-0.356,0.05l-0.397,0.086
			l-0.356,0.089l-0.396,0.134l-0.39,0.193l-0.414,0.194l-0.396,0.25l-0.386,0.28l-0.533,0.396l-0.501,0.417l-0.502,0.443
			l-0.502,0.444l-0.502,0.446l-0.503,0.503l-0.473,0.471l-0.446,0.505l-0.443,0.531l-0.426,0.521l-0.415,0.533l-0.386,0.53
			l-0.369,0.561l-0.33,0.552l-0.337,0.562l-0.278,0.56l0.636-0.646l0.617-0.64l0.642-0.609l0.673-0.616l0.64-0.58l0.667-0.563
			l0.675-0.56l0.669-0.5l0.667-0.497l0.693-0.452l0.696-0.446l0.725-0.416l0.735-0.355l0.724-0.339l0.756-0.308l0.743-0.253
			l-0.3,0.279l-0.308,0.312l-0.252,0.354l-0.194,0.37l-0.191,0.416l-0.116,0.413l-0.088,0.444l-0.029,0.478l0.086,0.779l0.223,0.755
			l0.369,0.669l0.473,0.588l0.578,0.475l0.677,0.355l0.753,0.226l0.786,0.085l1.333,0.105l1.199,0.087l0.799,0.062
			c-0.481,0.391-0.995,0.81-1.547,1.249h-0.003c-1.038,0.821-2.211,1.701-3.571,2.556c-2.733,1.718-6.22,3.321-10.869,4.096
			c-1.215,0.2-2.513,0.35-3.843,0.444c-0.113,0.002-0.227,0.008-0.342,0.017c-0.008-0.009-0.016-0.015-0.025-0.021h-0.006
			c-1.39-1.157-2.998-2.596-5.187-4.727c-0.824-0.804-1.846-1.637-2.922-2.355c-3.118-2.085-6.708-3.222-7.408-0.007l0.444,0.005
			l-0.444,0.005c-0.036,0.163-0.063,0.34-0.084,0.528c-0.113,1.078,0.144,2.026,0.688,2.854c-2.361,0.749-4.706,1.349-7.045,1.712
			c-7.822,1.222-17.369,0.062-19.854-5.104l-0.993,0.004c2.571,6.329,14.042,7.057,21.822,5.688c2.348-0.419,4.542-0.96,6.634-1.59
			c1.295,1.379,3.46,2.358,5.981,2.991c2.635,0.66,5.661,0.938,8.486,0.894c2.715,1.932,4.864,3.068,8.777,6.231l0.159-0.195
			c-3.682-2.979-5.644-4.238-7.969-6.064c1.297-0.055,2.545-0.18,3.691-0.368c0.83-0.14,1.618-0.309,2.369-0.506
			c3.497-0.915,6.177-2.409,8.339-3.977c1.45-1.05,2.663-2.133,3.739-3.104h0.003c0.486-0.437,0.941-0.847,1.377-1.221l0.871,0.068
			l0.891,0.086l0.78,0.117l0.727,0.077l0.639,0.114l0.588,0.167l0.532,0.164l0.475,0.202l0.408,0.221l0.038,0.02l0.442,0.312
			l0.397,0.339l0.386,0.386l0.396,0.474l0.389-0.474l0.386-0.386l0.395-0.339l0.446-0.312l0.036-0.02l0.408-0.221l0.474-0.202
			l0.53-0.164l0.591-0.167l0.637-0.114l0.727-0.077l0.785-0.117l0.888-0.086l0.827-0.066c0.436,0.375,0.894,0.786,1.377,1.215
			L310.447,330.571z M268.177,337.675c-3.944-0.26-7.469-1.221-9.126-3.178c2.055-0.637,4.013-1.354,5.924-2.111l-0.799-0.69
			c-1.893,0.749-3.769,1.451-5.634,2.062c-0.372-0.686-0.548-1.469-0.481-2.365c0.024-0.3,0.062-0.564,0.116-0.81h0.001
			c0.43-1.906,1.801-1.859,3.441-1.041c0.546,0.272,1.113,0.63,1.668,1.031c1.347,0.947,2.643,2.127,3.469,2.893
			c2.011,1.856,3.583,3.164,4.956,4.203h0.004c0.027,0.021,0.051,0.041,0.077,0.062C270.574,337.77,269.358,337.753,268.177,337.675
			z"/>
	</g>
	<g>
		<g>
			<polygon fill="#D8D8D8" points="300.605,208.941 319.273,207.394 326.722,205.072 317.992,201.373 285.201,200.855 
				275.801,204.485 282,207.392 			"/>
			<g>
				<polygon fill="#D8D8D8" points="281.081,209.069 273.767,205.277 268.01,208.205 279.711,213.963 				"/>
				<polygon fill="#D8D8D8" points="294.869,241.479 278.788,215.594 268.419,210.324 268.04,210.803 294.366,241.845 				"/>
				<polygon fill="#D8D8D8" points="333.578,210.702 322.515,215.586 306.429,241.479 306.929,241.85 333.939,211.194 				"/>
				<polygon fill="#D8D8D8" points="321.583,213.944 334.036,208.6 328.84,206.149 320.206,209.028 				"/>
				<polygon fill="#D8D8D8" points="319.779,214.121 318.505,209.319 301.398,211.181 301.593,216.617 				"/>
				<polygon fill="#D8D8D8" points="299.536,211.178 282.794,209.318 281.52,214.121 299.731,216.62 				"/>
				<polygon fill="#D8D8D8" points="301.578,218.477 301.578,245.734 320.176,215.858 				"/>
				<polygon fill="#D8D8D8" points="299.717,218.477 281.123,215.858 299.717,245.734 				"/>
			</g>
		</g>
		<path fill="#9397CB" d="M448.456,241.129c-1.046,0.823-2.018,1.423-2.617,1.797c-0.749,0.448-1.723,0.972-3.146,1.121
			c0.749-1.495,1.722-4.042,1.647-5.538c-0.074-3.519-1.721-3.294,1.349-6.513l-0.524-0.374l-11.897,9.478l-0.021-0.021
			c0,0-4.415,3.746-6.438,4.942c-2.619,1.648-3.222,2.022-5.163,2.697c-0.675,0.222-1.573,0.222-1.726-0.228
			c-0.073-0.597,0.673-1.571,1.351-2.245c2.994-3.368,7.786-8.91,7.786-8.91l-0.749-2.245l-4.195,0.675
			c0.826-0.3,0.752-1.273,0.673-1.569c-0.221-0.9-0.596-0.976-1.12-1.2c-0.599-0.15-1.273,0.15-1.648,0.524
			c-0.371,0.297-0.6,0.822-0.6,1.347c0.075,0.673,0.45,1.348,0.899,1.572c-1.801,1.906-3.688,3.717-4.703,4.676l-0.036-0.036
			c-4.192,3.746-9.359,7.49-12.653,7.712c0,0-0.524-0.072-0.449-0.374c-0.15-0.223,0.524-1.122,0.974-1.722
			c2.619-3.668,9.656-11.454,9.656-11.454h-2.47c-0.524,0.449-1.944,1.944-2.473,2.395c0.153-1.795-0.821-2.245-1.87-2.47
			c-2.922-0.674-10.184,2.845-13.178,5.539c-0.884,0.789-1.582,1.6-2.14,2.403c-0.27,0.219-0.55,0.44-0.846,0.669
			c-2.096,1.57-3.219,2.544-4.568,3.068c-1.569,1.049-2.844,1.349-4.566,1.724c-0.897,0.149-1.646,0.222-2.242,0.222
			c-0.827,0-1.798-0.3-2.098-0.747c-0.15-0.674,0.3-1.273,0.898-2.097c0.6-0.824,1.271-1.724,1.724-2.095
			c0.296-0.3,0.972-1.125,1.271-1.275c0.523,0,1.645-0.149,2.771-0.299c2.541-0.376,6.212-1.795,7.259-4.268
			c0.524-1.199,0.225-1.796,0-2.096c-0.449-0.599-1.124-0.899-2.17-0.824c-2.77,0.075-9.21,4.118-11.308,7.188
			c-1.196,1.873-2.018,4.867-1.57,5.916c0.3,0.821,0.974,1.271,2.169,1.496c3.301,0.521,7.805-1.379,12.272-4.79
			c-0.445,1.062-0.624,2.064-0.525,2.919c0.152,0.972,0.526,1.496,1.124,1.796c2.996,1.124,8.086-2.396,11.305-4.492
			c-0.449,1.198-0.899,2.247-0.899,3.294c0,0.824,0.6,1.349,1.273,1.423c2.899,0.354,8.673-3.502,13.024-7.59l0.029,0.028
			c0.448-0.376,5.613-5.239,6.138-5.764c0.971-0.149,2.47-0.375,3.741-0.524c0,0-1.121,1.346-1.796,2.095
			c-3.069,3.519-8.161,7.562-6.963,10.109c0.375,0.821,0.899,1.271,1.871,1.421c2.639,0.44,9.353-3.994,13.147-7.831l9.479-7.317
			c-0.827,4.715-2.248,11.381-6.438,13.849c-0.676,0.45-1.797,0.75-2.622,0.75c-0.673,0-1.647-0.3-2.022-1.124
			c0,0-0.149-0.674,0.452-0.448c0.672,0.224,1.945-0.6,1.271-1.722c-0.374-0.6-1.198-0.524-1.873-0.15
			c-0.597,0.448-0.821,1.272-0.749,1.946c0,0.748,0.599,1.498,1.273,1.948c1.349,0.746,3.817,0.075,5.463-0.899
			c0.977-0.524,1.8-0.975,2.997-2.17c1.35-1.274,0.975-0.975,1.573-1.499c0.897,0,2.17-0.374,3.217-0.899
			c1.199-0.597,2.326-1.345,3.446-2.469L448.456,241.129z M387.414,237.485c0.898-0.747,1.57-1.196,2.17-1.347
			c0.523-0.225,1.648-0.449,2.17,0.15c0.375,0.749-0.446,2.02-0.821,2.47c-0.674,0.674-1.424,1.271-2.473,1.795
			c-1.87,0.974-3.368,0.824-5.239,1.2C385.391,239.357,386.814,238.01,387.414,237.485z M397.513,247.744
			c-0.75,0.372-1.722,0.672-2.398,0.824c-0.372,0.149-2.021,0.521-2.242-0.303c-0.675-2.545,4.939-6.888,7.185-8.833
			c2.022-1.648,3.219-2.395,4.567-2.844c0.746-0.225,1.573-0.45,2.319-0.45c0.452,0,2.096,0,2.173,0.75
			C408.143,241.678,400.656,246.32,397.513,247.744z"/>
		<path fill="#9397CB" d="M192.497,230.754c0,0,4.792-6.89,5.316-7.788c1.124-0.375,2.548-1.048,4.193-1.723
			c1.048-0.449,2.921-1.347,2.921-1.347c5.54-2.545,19.465-9.208,21.635-16.396c0.376-1.272,0.226-2.171-0.3-2.844
			c-0.672-0.974-1.87-1.273-3.217-1.273c-6.364-0.075-13.85,6.289-20.065,13.85l-2.619,3.219c-2.023,2.545-3.82,4.717-4.643,5.615
			c-1.646,0.374-2.696,0.673-6.29,1.198c-4.492,0.674-9.358,0.748-11.677,0.598c-3.37-0.299-8.611-1.796-10.933-5.839
			c-1.721-3.07-0.897-6.14,0.6-8.759c2.771-5.016,9.358-8.61,15.573-10.258c5.166-1.422,9.733-1.496,12.427-1.571v-0.749
			c-3.668,0-6.736,0.374-9.208,0.897c-5.766,1.124-17.819,5.017-20.738,13.626c-1.049,2.994-0.673,6.214,1.797,9.058
			c2.096,2.397,5.464,3.744,9.208,4.194c6.213,0.822,13.325-0.451,16.246-0.899l1.947-0.299l-4.192,5.539
			c-10.932,14.449-16.173,18.793-28.601,19.842c-2.77,0.224-7.036-0.601-9.209-3.22c-0.674-0.824-0.973-1.573-1.047-2.322
			c0-0.896,0.074-1.496,0.748-2.17c0.524,0.898,0.375,1.049,1.349,1.423c0.672,0.075,1.198-0.149,1.572-0.6
			c0.447-0.748,0.298-1.348,0.15-1.723c-0.226-0.524-0.974-0.896-1.722-0.972c-0.899,0-1.947,0.672-2.471,1.496
			c-0.899,1.348-0.75,2.919-0.078,4.343c1.798,3.594,6.217,4.268,8.538,4.418C170.263,250.142,182.84,244.902,192.497,230.754z
			 M201.034,218.174c1.048-1.646,2.17-3.443,3.443-5.09c5.316-7.112,12.053-13.026,18.342-12.953c1.272,0,2.322,0.375,2.771,1.348
			c0.374,0.674,0.225,1.647-0.825,3.369c-1.72,2.995-5.015,5.989-8.759,8.385c-5.688,3.594-12.501,6.215-16.768,7.711
			L201.034,218.174z"/>
		<polygon fill="#9397CB" points="212.7,227.459 214.197,225.661 212.7,223.79 211.202,225.661 		"/>
		<path fill="#9397CB" d="M332.812,276.061l0.83-0.732l0.832-0.734l0.178-0.179l0.652-0.654l0.782-0.779l0.735-0.832l0.732-0.877
			l0.705-0.863l0.199-0.255l0.486-0.625l0.638-0.877l0.61-0.924l0.541-0.913l0.561-0.927l0.009-0.02l0.452-0.907l-0.891,0.907
			l-0.163,0.164l-1.02,1.054l-1.057,1.008l-1.118,1.021l-1.055,0.957l-0.095,0.081l-1.01,0.846l-1.112,0.927l-1.102,0.827
			l-1.105,0.818l-1.148,0.75l-0.145,0.093l-1.004,0.642l-1.195,0.688l-1.219,0.589l-1.196,0.557l-1.245,0.511l-1.23,0.417
			l0.497-0.462l0.511-0.513l0.416-0.588l0.316-0.61l0.322-0.686l0.147-0.545l0.041-0.144l0.145-0.732l0.048-0.785l-0.142-1.29
			l-0.367-1.247l-0.036-0.062l-0.574-1.038l-0.782-0.974l-0.954-0.786l-1.119-0.588l-1.245-0.369l-1.296-0.145l-2.201-0.172
			l-1.981-0.146l-0.854-0.068l-0.467-0.036c2.062-1.661,4.463-3.657,7.417-5.616h0.013c0.337-0.226,0.683-0.446,1.032-0.665
			c3.132-1.968,6.757-3.758,11.312-5.151c-0.309-0.56-0.505-1.088-0.586-1.578c-4.681,1.518-8.302,3.573-11.388,5.812
			c-0.719,0.522-1.401,1.047-2.057,1.574c-2.503,2.008-4.559,3.992-6.4,5.571l-1.438-0.113l-1.475-0.145l-1.185-0.177
			c2.825-0.938,5.423-2.545,7.376-5.137l-0.849-0.003l0.849-0.003c0.177-0.236,0.35-0.483,0.516-0.735
			c1.792-2.73,2.387-5.339,3.605-9.273c0.077-0.257,0.275-0.758,0.552-1.346h0.003c0.779-1.665,2.142-4.01,2.947-3.417
			c1.159,0.917-0.7,2.218-0.972,2.506c1.382-0.049,2.441-2.58,1.07-3.133c-1.229-0.427-3.048,1.997-3.859,4.032h-0.003
			c-0.264,0.655-0.422,1.269-0.422,1.734c-0.158-0.625-0.214-1.198-0.244-1.729l-5.66,0.003c0.136,0.241,0.258,0.524,0.354,0.846
			c0.583-1.629,1.821-0.523,2.24,0.503c1.634,3.929,0.389,7.383-1.822,10.009h-0.004c-1.876,2.225-4.448,3.85-6.549,4.653
			c1.243-0.8,3.277-2.334,3.658-4.647c0.154-0.949,0.029-2.032-0.542-3.247c-0.994-2.181-4.867-2.257-4.867,1.126
			c0.312-1.026,1.779-0.963,2.237-0.124c0.328,0.592,0.371,1.425,0.271,2.239l0,0c-0.12,1.005-0.461,1.968-0.758,2.397
			c-0.758,1.094-1.571,1.746-2.486,2.131l-0.854-0.261l-0.779-0.339l-0.736-0.396l-0.731-0.511l-0.655-0.561l-0.771-0.793
			c0.041-0.528,0.114-1.092,0.23-1.662l-1.366,0.002c0.103,0.524,0.173,1.038,0.216,1.518l-0.243,0.298l-0.636,0.638l-0.655,0.561
			l-0.737,0.511l-0.736,0.396l-0.781,0.339l-0.779,0.241c-0.896-0.391-1.693-1.037-2.438-2.111c-0.295-0.43-0.636-1.393-0.759-2.392
			h-2.897c0.378,2.313,2.415,3.848,3.656,4.647c-2.1-0.804-4.674-2.429-6.549-4.647l-0.68-0.003l0.68-0.003
			c-2.211-2.619-3.458-6.077-1.826-10.009c0.42-1.026,1.657-2.132,2.242-0.503c0.096-0.32,0.216-0.603,0.353-0.846h0.002
			c0.793-1.412,2.124-1.43,2.629-0.003h0.002c0.011,0.032,0.022,0.064,0.032,0.097c0.466,1.632-0.399,1.48-1.071,2.883
			c-0.556,1.216,0.73,2.257,1.753,2.257c-0.371,0-2.035-0.513-1.753-1.754c0.194-0.99,1.907-0.915,1.557-3.133
			c-0.019-0.12-0.04-0.233-0.062-0.35h-0.002c-0.376-1.857-1.143-2.508-2.271-3.536c-1.559-1.428-4.577-1.089-5.745,0.5
			c-0.707,0.909-0.666,1.878-0.731,3.032l0,0c-0.031,0.534-0.083,1.107-0.243,1.732c0-0.466-0.158-1.079-0.42-1.729l-0.816,0.006
			c0.274,0.585,0.476,1.088,0.555,1.346c1.217,3.935,1.812,6.543,3.603,9.273c0.167,0.252,0.338,0.496,0.514,0.741h0.007
			c1.945,2.58,4.526,4.186,7.333,5.125l-1.272,0.188l-1.468,0.145l-1.368,0.107c-1.839-1.578-3.895-3.559-6.396-5.565l-1.685,0.005
			c2.957,1.953,5.358,3.952,7.42,5.614l-0.535,0.041l-0.854,0.068l-1.979,0.146l-2.218,0.172l-1.296,0.145l-1.247,0.369
			l-1.099,0.588l-0.961,0.786l-0.782,0.974l-0.57,1.038l-0.034,0.062l-0.367,1.247l-0.146,1.29l0.047,0.785l0.144,0.732l0.036,0.144
			l0.139,0.545l0.29,0.686l0.366,0.61l0.414,0.588l0.494,0.513l0.516,0.462l-1.248-0.417l-1.246-0.511l-1.196-0.557l-1.197-0.589
			l-1.198-0.688l-1.005-0.642l-0.147-0.093l-1.146-0.75l-1.102-0.818l-1.121-0.827L266.479,271l-1.006-0.846l-0.096-0.081
			l-1.115-0.957l-1.058-1.021l-1.052-1.008l-1.02-1.054l-0.163-0.164l-0.896-0.907l0.455,0.907l0.011,0.02l0.542,0.927l0.56,0.913
			l0.593,0.924l0.653,0.877l0.486,0.625l0.201,0.255l0.688,0.863l0.749,0.877l0.735,0.832l0.783,0.779l0.653,0.654l0.179,0.179
			l0.825,0.734l0.831,0.732l0.832,0.736l0.831,0.686l0.878,0.654l0.639,0.465l0.119,0.077l0.52,0.335l0.703,0.322l0.637,0.318
			l0.642,0.223l0.606,0.145l0.636,0.145l0.609,0.083h0.591h0.606l0.559-0.083l0.543-0.145l0.511-0.145l0.51-0.223l0.511-0.269
			l0.447-0.288l0.336,0.047l0.319,0.047l0.319,0.051h0.321l1.292-0.145l1.248-0.367l0.099-0.052l1.002-0.542l0.973-0.78l0.786-0.976
			l0.604-1.102l0.253-0.864l0.113-0.382l0.131-1.279l0.238-1.29l0.367-1.055l0.15-0.255l0.392-0.67l0.704-0.735l0.782-0.606
			l0.877-0.498l0.912-0.366l0.975-0.238l0.971-0.174l0.96-0.146l0.974-0.049h0.926h0.831h0.732h0.642h0.511h0.51h0.641h0.779h0.881
			h0.924l1.007,0.049l1.021,0.146l1.007,0.174l1.021,0.238l0.958,0.366l0.929,0.498l0.826,0.606l0.689,0.735l0.402,0.67l0.155,0.255
			l0.416,1.055l0.226,1.29l0.141,1.279l0.111,0.382l0.259,0.864l0.604,1.102l0.782,0.976l0.957,0.78l1.021,0.542l0.101,0.052
			l1.245,0.367l1.274,0.145h0.338l0.316-0.051l0.322-0.047l0.319-0.047l0.46,0.288l0.511,0.269l0.514,0.223l0.493,0.145l0.561,0.145
			l0.561,0.083h0.592h0.604l0.591-0.083l0.654-0.145l0.589-0.145l0.655-0.223l0.641-0.318l0.686-0.322l0.532-0.335l0.126-0.077
			l0.635-0.465l0.88-0.654l0.827-0.686L332.812,276.061z M287.495,270.631l0.335,1.008l0.082,1.115l-0.082,1.104l-0.186,0.557
			l-0.15,0.447l-0.542,0.977l-0.655,0.782l-0.831,0.687l-0.911,0.511l-1.022,0.318l-1.102,0.098l-1.102-0.098l-1.07-0.318
			l-0.927-0.511l-0.831-0.687l-0.637-0.782l-0.56-0.977l-0.142-0.447l-0.177-0.557l-0.097-1.104l0.097-1.115l0.319-1.008
			l0.276-0.477l0.283-0.494l0.637-0.785l0.831-0.687l0.927-0.509l1.07-0.323l1.102-0.078l1.102,0.078l1.022,0.323l0.911,0.509
			l0.831,0.687l0.655,0.785l0.274,0.494L287.495,270.631z M316.493,277.308l-0.832-0.687l-0.636-0.782l-0.561-0.977l-0.142-0.447
			l-0.177-0.557l-0.096-1.104l0.096-1.115l0.318-1.008l0.277-0.477l0.283-0.494l0.636-0.785l0.832-0.687l0.928-0.509l1.054-0.323
			l1.1-0.078l1.117,0.078l1.011,0.323l0.924,0.509l0.829,0.687l0.639,0.785l0.286,0.494l0.274,0.477l0.316,1.008l0.1,1.115
			l-0.1,1.104l-0.175,0.557l-0.142,0.447l-0.561,0.977l-0.639,0.782l-0.829,0.687l-0.924,0.511l-1.011,0.318l-1.117,0.098
			l-1.1-0.098l-1.054-0.318L316.493,277.308z"/>
		<polygon fill="#9397CB" points="362.643,278.313 361.078,277.773 359.545,277.257 358.028,276.844 356.46,276.524 
			354.981,276.205 353.508,275.967 352.137,275.79 350.794,275.646 349.548,275.601 348.399,275.552 347.378,275.521 
			346.453,275.552 345.716,275.601 345.08,275.695 344.664,275.839 343.784,276.334 342.952,276.747 342.219,277.119 
			341.484,277.452 340.734,277.724 339.872,278.09 338.851,278.46 338.284,278.679 337.654,278.919 338.757,279.286 
			339.922,279.511 341.15,279.654 342.442,279.654 343.784,279.608 345.222,279.463 346.737,279.336 348.305,279.145 
			349.961,278.97 351.721,278.775 352.747,278.679 353.558,278.602 355.489,278.503 357.471,278.46 359.59,278.503 361.813,278.647 
			362.055,278.679 364.114,278.919 363.525,278.679 		"/>
		<path fill="#9397CB" d="M269.878,278.409l-0.781-0.511l-0.688-0.497l-0.705-0.46l-0.591-0.51l-0.606-0.465l-0.495-0.446
			l-0.51-0.464l-0.462-0.463l-0.177-0.179l-0.288-0.288l-0.46-0.46l-0.416-0.464l-0.416-0.449l-0.465-0.46l-0.414-0.512l-0.449-0.51
			l-0.555-0.544l-0.514-0.366l-0.359-0.208h-8.352c0.475,0.435,0.954,0.885,1.427,1.343l1.614,1.341l1.519,1.15l0.66,0.427
			l0.919,0.593l1.613,0.959l1.645,0.83l1.757,0.686l1.755,0.56l1.84,0.461l0.999,0.176l0.853,0.146l1.933,0.145l-0.433-0.291
			L269.878,278.409z"/>
		<polygon fill="#9397CB" points="312.853,276.988 312.486,276.015 312.262,275.057 312.148,274.415 312.069,273.988 
			311.799,272.931 311.429,271.88 310.824,270.858 310.502,270.442 310.219,270.154 310.137,270.073 309.723,269.707 
			309.263,269.385 308.748,269.068 308.235,268.797 307.645,268.509 307.089,268.283 306.498,268.095 305.842,267.967 
			305.205,267.823 304.551,267.729 303.864,267.68 303.224,267.68 302.522,267.68 301.881,267.772 302.982,268.509 303.765,269.291 
			304.373,270.12 304.389,270.154 304.739,271 305.061,271.927 305.333,272.787 305.716,273.667 306.099,274.415 306.162,274.543 
			306.578,275.136 306.959,275.695 307.372,276.156 307.774,276.621 308.19,276.988 308.604,277.308 309.067,277.58 
			309.531,277.818 310.042,277.993 310.555,278.185 311.097,278.282 311.656,278.358 312.262,278.46 312.9,278.503 313.589,278.553 
			314.321,278.553 313.458,277.818 		"/>
		<path fill="#9397CB" d="M340.335,276.797l1.646-0.83l1.612-0.959l0.919-0.593l0.663-0.427l1.518-1.15l1.612-1.341
			c0.475-0.458,0.952-0.908,1.429-1.343h-8.353l-0.357,0.208l-0.517,0.366l-0.555,0.544l-0.447,0.51l-0.416,0.512l-0.463,0.46
			l-0.417,0.449l-0.412,0.464l-0.464,0.46l-0.289,0.288l-0.175,0.179l-0.464,0.463l-0.507,0.464l-0.497,0.446l-0.604,0.465
			l-0.594,0.51l-0.702,0.46l-0.688,0.497l-0.783,0.511l-0.396,0.27l-0.433,0.291l1.935-0.145l0.852-0.146l1-0.176l1.836-0.461
			l1.757-0.56L340.335,276.797z"/>
		<polygon fill="#9397CB" points="262.982,278.46 261.96,278.09 261.082,277.724 260.301,277.452 259.614,277.119 258.877,276.747 
			258.047,276.334 257.171,275.839 256.754,275.695 256.099,275.601 255.363,275.552 254.455,275.521 253.434,275.552 
			252.282,275.601 251.036,275.646 249.695,275.79 248.322,275.967 246.839,276.205 245.368,276.524 243.805,276.844 
			242.269,277.257 240.756,277.773 239.19,278.313 238.31,278.679 237.722,278.919 239.778,278.679 240.021,278.647 
			242.237,278.503 244.346,278.46 246.326,278.503 248.275,278.602 249.086,278.679 250.112,278.775 251.867,278.97 253.53,279.145 
			255.092,279.336 256.611,279.463 258.047,279.608 259.375,279.654 260.667,279.654 261.913,279.511 263.065,279.286 
			264.18,278.919 263.55,278.679 		"/>
		<g>
			<path fill="#9397CB" d="M406.896,277.372c-1.067-0.892-1.526-1.96-1.562-2.957l-0.982,0.01c-0.227,1.396,0.119,2.972,1.385,4.254
				h0.006c0.132,0.131,0.274,0.262,0.425,0.388c2.666,2.245,5.93,1.507,8.422-0.388c1.495-1.138,2.71-2.689,3.357-4.264l-1.787,0.01
				C414.35,277.535,410.082,280.013,406.896,277.372z"/>
			<path fill="#9397CB" d="M417.422,270.159c-0.103,0.783-0.272,1.598-0.52,2.45c-0.142,0.605-0.396,1.221-0.743,1.806l1.787-0.002
				c0.136-0.333,0.243-0.666,0.329-0.999c0.326-1.144,0.542-2.231,0.659-3.26L417.422,270.159z"/>
			<path fill="#9397CB" d="M410.179,272.258c-2.375-2.915-5.354-0.758-5.827,2.157l0.982-0.005
				C405.243,271.786,408.021,269.609,410.179,272.258z"/>
		</g>
		<polygon fill="#9397CB" points="274.545,271.366 274.817,270.362 274.863,270.154 275.057,269.291 275.151,268.143 
			275.057,266.946 274.786,265.938 274.753,265.869 274.321,264.962 273.615,264.005 272.79,263.08 271.876,262.201 
			270.761,261.468 269.609,260.827 268.364,260.315 269.066,261.468 269.433,262.537 269.561,263.542 269.561,264.515 
			269.433,265.429 269.365,265.869 269.289,266.354 269.195,267.312 269.243,268.283 269.481,269.66 269.614,270.154 
			269.803,270.858 270.264,271.829 270.857,272.71 271.637,273.442 272.517,274.127 273.01,274.415 273.615,274.769 
			274.862,275.423 274.421,274.415 274.415,274.402 274.226,273.395 274.321,272.391 		"/>
		<path fill="#9397CB" d="M260.057,270.026h-0.465l-0.459,0.047h-0.546l-0.655-0.047l-0.782-0.128l-0.907-0.275l-1.12-0.459
			l-1.277-0.706l-1.582-0.957l-1.834-1.246c0,0-0.175-0.142-0.473-0.378l-1.403-0.004l1.403-0.004
			c-1.004-0.788-3.406-2.646-5.173-3.663l-1.415,1.092c0.595,0.24,1.997,1.187,3.783,2.579h0.01c1.485,1.17,3.24,2.645,5.014,4.273
			l8.352,0.004l-0.053-0.034L260.057,270.026z"/>
		<polygon fill="#9397CB" points="298.606,267.68 297.97,267.68 297.267,267.729 296.629,267.823 295.974,267.967 295.337,268.095 
			294.745,268.283 294.185,268.509 293.58,268.797 293.083,269.068 292.573,269.385 292.111,269.707 291.695,270.073 
			291.615,270.154 291.326,270.442 291.008,270.858 290.4,271.88 290.034,272.931 289.762,273.988 289.685,274.415 289.569,275.057 
			289.347,276.015 288.98,276.988 288.372,277.818 287.495,278.553 288.245,278.553 288.931,278.503 289.569,278.46 
			290.178,278.358 290.721,278.282 291.281,278.185 291.79,277.993 292.301,277.818 292.749,277.58 293.209,277.308 
			293.625,276.988 294.041,276.621 294.455,276.156 294.872,275.695 295.238,275.136 295.653,274.543 295.72,274.415 
			296.117,273.667 296.483,272.787 296.772,271.927 297.093,271 297.446,270.154 297.459,270.12 298.05,269.291 298.833,268.509 
			299.948,267.772 299.294,267.68 		"/>
		<path fill="#9397CB" d="M418.792,265.869c-0.437-2.223-1.458-4.094-2.916-5.66h-0.003c-6.68-7.148-22.541-7.814-33.756-5.842
			c-3.88,0.691-7.503,1.587-10.961,2.623c-2.661-2.831-7.548-4.646-13.025-5.601c1.413-0.786,2.831-1.638,4.232-2.544h0.004
			c6.46-4.168,12.588-9.449,16.562-14.633l24.665-28.994h-3.445c0,0-6.066,6.962-10.48,11.979c-2.695,3.069-7.412,7.711-7.412,7.711
			c-2.623,2.77-7.189,6.213-11.605,8.683c-5.24,2.847-10.405,4.192-11.305,1.573c-0.524-1.423,2.619-4.867,5.617-7.937l5.164-5.24
			c6.887-6.962,10.556-10.93,9.359-16.844c-0.6-2.77-2.77-3.969-5.017-4.717c-6.513-2.172-17.518,1.123-23.732,7.412
			c-2.771,2.771-4.569,6.214-3.893,8.685c0.6,2.246,2.617,3.369,4.564,3.818c7.787,1.723,16.548-5.315,23.81-13.551l-0.375-0.45
			c-5.842,6.738-11.305,10.407-15.872,12.354c-2.845,1.273-6.963,1.872-9.433,0.074c-1.424-0.973-2.022-2.021-1.948-3.594
			c0.075-3.967,4.118-7.635,8.237-10.406c5.615-3.668,14.002-5.54,18.94-3.519c1.948,0.823,3.444,2.171,3.818,3.894
			c0.747,3.893-5.316,9.881-8.235,12.727l-5.014,4.94c-3.672,3.667-7.79,8.535-7.041,12.278c0.3,1.349,1.124,1.871,2.173,2.173
			c6.139,1.797,16.02-5.766,21.936-10.934c0,0-4.643,5.317-11.154,12.579c-2.551,2.816-7.374,6.605-12.604,9.926h-0.012
			c-1.162,0.735-2.349,1.448-3.529,2.12c-2.609-0.3-5.278-0.418-7.848-0.377c-0.866-0.617-1.695-1.183-2.52-1.734
			c-0.677-0.456-1.354-0.902-2.04-1.354l-0.017-0.017c-0.092-0.089-0.988-0.547-1.121-0.619c-1.07-0.585-5.508-1.207-7.148,1.82
			c-0.031,0.05-0.061,0.102-0.087,0.161h-0.005c-0.799,1.493-0.653,3.63-0.007,4.716c1.123,2.469,3.582,3.121,5.752,3.345
			c2.889,0.348,6.615-0.43,10.666-1.994c1.532,1.374,3.258,2.988,5.286,4.967c0.117,0.111,0.233,0.225,0.355,0.342h0.006
			c2.266,2.135,5.306,4.339,8.183,5.66c3.095,1.413,6.003,1.811,7.553,0h-1.632c-0.909,0.71-2.199,0.597-3.673,0
			c-0.286-0.113-0.577-0.247-0.874-0.396c-2.464-1.229-5.186-3.496-7.163-5.264l-1.198-0.003l1.198-0.003
			c-0.493-0.441-0.94-0.852-1.325-1.21c-2-1.852-3.741-3.371-5.306-4.662c1.49-0.63,3.014-1.356,4.551-2.164
			c5.86,0.574,10.972,2.156,13.483,5.123c-2.871,0.891-5.634,1.875-8.328,2.919c-0.485,0.186-0.971,0.375-1.456,0.565l1.318,1.141
			c1.498-0.591,2.988-1.165,4.47-1.716c1.62-0.596,3.229-1.161,4.84-1.688c0.288,0.53,0.505,1.099,0.643,1.698
			c0.156,0.69,0.206,1.424,0.147,2.205c-0.136,1.787-0.61,2.878-1.327,3.447l1.632,0.008c0.579-0.674,0.966-1.648,1.11-2.988
			c0.1-0.952,0.026-1.84-0.202-2.672c-0.199-0.725-0.516-1.407-0.935-2.045c3.901-1.234,7.775-2.226,11.64-2.829
			c10.878-1.697,23.772-0.604,30.03,4.874l1.411,0.002l-1.411,0.003c1.745,1.529,2.972,3.401,3.496,5.655h0.001
			c0.305,1.3,0.372,2.73,0.166,4.285h1.513C419.106,268.6,419.051,267.176,418.792,265.869L418.792,265.869z M340.666,256.146
			c-2.096-0.15-3.741-0.824-4.864-2.398c-0.601-0.821-0.664-1.695-0.739-2.441c0-0.896,0.27-2.028,0.572-2.464l-0.524-0.004
			l0.524-0.002c0.024-0.039,0.053-0.072,0.078-0.097c2.951-3.041,6.271-0.818,6.512-0.72c0.369,0.273,0.732,0.542,1.097,0.822h0.011
			c0.771,0.575,1.536,1.157,2.328,1.779c-2.142,0.093-4.204,0.299-6.097,0.61c-1.4,0.232-2.414,0.438-3.683,0.771
			c0.226,0.763,0.437,1.298,0.726,1.576c1.321-0.331,2.428-0.553,3.882-0.794c2.176-0.361,4.521-0.622,6.912-0.761
			c0.666,0.55,1.363,1.14,2.106,1.787C346.057,255.353,342.919,256.279,340.666,256.146z M350.78,253.224
			c-0.571-0.452-1.121-0.877-1.651-1.275c1.398-0.044,2.794-0.048,4.173,0C352.453,252.4,351.609,252.827,350.78,253.224z"/>
		<path fill="#9397CB" d="M354.75,265.877h0.009c1.787-1.393,3.188-2.339,3.782-2.579l-1.415-1.092
			c-1.768,1.017-4.167,2.875-5.172,3.663l1.402,0.004l-1.402,0.004c-0.3,0.236-0.475,0.378-0.475,0.378l-1.835,1.246l-1.581,0.957
			l-1.276,0.706l-1.122,0.459l-0.906,0.275l-0.78,0.128l-0.654,0.047h-0.55l-0.458-0.047h-0.466l-0.416,0.094l-0.054,0.034
			l8.353-0.004C351.508,268.521,353.261,267.047,354.75,265.877z"/>
		<path fill="#9397CB" d="M231.424,265.861h0.002c-0.717-0.569-1.193-1.66-1.328-3.447c-0.059-0.791-0.014-1.525,0.126-2.205h-1.339
			c-0.229,0.832-0.303,1.72-0.201,2.672c0.144,1.349,0.527,2.325,1.093,2.988c1.5,1.773,4.288,1.371,7.32,0.003l-1.998-0.003
			C233.624,266.466,232.333,266.579,231.424,265.861z"/>
		<g>
			<path fill="#9397CB" d="M195.741,279.066c0.152-0.128,0.298-0.26,0.432-0.388h-8.854
				C189.812,280.573,193.074,281.312,195.741,279.066z"/>
			<path fill="#9397CB" d="M197.557,274.415c-0.477-2.92-3.454-5.068-5.829-2.157c2.16-2.646,4.936-0.476,4.845,2.153
				c-0.037,1.001-0.492,2.069-1.559,2.961c-3.186,2.641-7.453,0.163-9.265-2.957h-0.004c-0.345-0.59-0.598-1.203-0.741-1.806
				c-0.243-0.853-0.416-1.667-0.518-2.455h-0.001c-0.205-1.563-0.137-2.991,0.167-4.285l-1.537,0.006
				c-0.258,1.304-0.313,2.728-0.139,4.279c0.115,1.028,0.331,2.116,0.657,3.26c0.083,0.333,0.194,0.666,0.33,1.001h0.001
				c0.648,1.576,1.861,3.126,3.354,4.264l8.854-0.006c1.264-1.276,1.613-2.853,1.386-4.258H197.557z"/>
			<path fill="#9397CB" d="M280.038,258.635c-4.34-3.148-9.94-6.11-17.692-7.402c-1.892-0.312-3.954-0.518-6.096-0.61
				c0.795-0.625,1.564-1.21,2.339-1.779l-2.65-0.004l2.65-0.005c2.965-2.214,6-4.328,10.825-8.229l-0.261-0.325
				c-5.153,4.165-8.457,6.205-11.855,8.478l12.314-15.084h-3.668l-4.493,5.241c-4.791,5.538-13.625,10.331-14.674,8.457
				c-0.075-0.299,0.45-0.82,0.676-1.124c5.39-5.837,7.859-8.157,7.859-11.151c0-0.975-0.298-1.349-1.348-1.499
				c-2.162-0.288-7.719,4.21-10.534,7.418c-4.052,3.35-10.144,7.231-11.486,6.356c-0.375-0.225,0.823-1.944,1.422-2.693
				l12.127-14.898h6.888l0.301-0.899h-6.514l5.541-7.262h-2.696c0,0-3.592,4.643-4.193,5.316c-1.872,2.17-2.32,1.945-4.191,1.945
				l-0.45,0.899h1.874c0,0-5.242,5.539-9.136,8.985c-0.328,0.289-0.779,0.74-1.157,1.126c-5.392,5.164-12.798,9.129-13.995,7.106
				c-0.299-0.524,1.197-3.593,3.519-6.662c1.424-1.87,2.546-3.294,3.744-4.492c0.823-0.675,1.497-1.122,2.545-1.347
				c0.45-0.075,1.348-0.225,2.021,0.75c-0.674-0.229-1.946,0.372-1.721,1.496c0.149,0.748,0.521,0.823,0.972,0.973
				c0.523,0.15,1.046-0.074,1.572-0.524c0.45-0.448,0.524-1.273,0.374-1.872c-0.148-0.746-0.599-1.347-1.497-1.646
				c-2.021-0.675-5.092,1.198-6.663,2.918c0.077-1.123,0-1.573-0.149-1.87c-0.375-0.824-1.048-0.898-1.572-1.048
				c-2.898-0.597-9.255,4.338-11.84,7.339c-3.956,3.115-10.83,7.77-12.088,6.51c-0.601-0.599,1.123-2.619,2.095-3.817
				c3.144-3.594,7.787-9.433,7.787-9.433h-2.47c-0.375,0.301-1.798,1.496-3.446,2.77c-1.422,1.124-3.893,2.844-3.893,2.844
				l0.45,0.525c0.673-0.3,3.294-2.32,3.294-2.32s-2.996,3.594-3.519,4.343c-1.348,1.945-2.395,3.814-2.022,4.789
				c0.226,0.75,0.972,1.199,1.648,1.349c2.844,0.524,11.079-5.389,14-8.235l-0.019-0.021c1.074-0.991,2.546-2.312,3.808-3.124
				c2.171-1.498,5.392-3.742,6.589-2.095c0.824,1.122-5.166,7.783-6.289,9.058c-1.497,1.648-2.396,2.319-3.293,2.844
				c-0.448,0.225-1.646,0.674-2.396,0.601c-0.524-0.076-1.125-0.301-1.422-0.897c0.749,0.072,2.095-0.3,1.946-1.499
				c-0.075-0.749-0.45-0.973-0.823-1.048c-0.749-0.149-1.198,0.149-1.498,0.375c-0.448,0.374-0.824,1.048-0.673,2.022
				c0.149,1.047,0.823,1.57,1.197,1.795c1.946,0.749,5.24-0.675,8.311-3.519c0,1.42-0.523,2.694,1.497,3.443
				c3.574,0.97,9.37-2.879,14.442-7.856c0.179-0.141,0.375-0.297,0.635-0.529c0.899-0.898,4.718-4.417,4.718-4.417
				c-3.819,4.717-8.311,10.559-6.664,12.504c1.876,1.675,8.247-2.17,12.732-6.216l0.006,0.002c0.039-0.039,0.083-0.08,0.123-0.12
				c0.477-0.435,0.939-0.871,1.364-1.303l-0.001-0.002c3.289-3.048,7.944-6.719,8.846-5.689c0.3,0.303-1.048,1.574-1.948,2.473
				c-3.293,3.294-7.262,7.037-6.587,9.881c0.224,0.975,0.374,1.499,1.271,1.798c0.059,0.02,0.118,0.037,0.179,0.048l0.489,0.001
				l-0.489,0.002c0.411,0.102,0.889,0.093,1.414,0.003h0.053c2.708-0.476,6.666-3.134,9.585-5.444l-1.123,1.572
				c-0.861,1.179-1.813,2.572-2.708,3.86h-0.003c-0.43,0.616-0.849,1.207-1.238,1.734c-8.685,0.105-18.079,2.054-22.179,6.419
				c-3.457-1.036-7.083-1.932-10.961-2.623c-11.218-1.973-27.082-1.307-33.76,5.842l0.706,0.002h-0.707
				c-1.46,1.565-2.48,3.438-2.917,5.658l1.537-0.005c0.524-2.246,1.75-4.117,3.492-5.65h0.006
				c6.258-5.483,19.154-6.576,30.029-4.879c3.867,0.604,7.74,1.595,11.642,2.829c-0.42,0.638-0.737,1.32-0.937,2.045l1.339-0.01
				c0.125-0.606,0.327-1.179,0.597-1.711c1.635,0.535,3.28,1.112,4.927,1.721c1.479,0.547,2.961,1.118,4.45,1.706l1.32-1.141
				c-0.475-0.186-0.949-0.372-1.426-0.558c-2.742-1.057-5.549-2.059-8.474-2.963c3.311-4.144,11.496-5.515,20.196-5.233
				c-1.691,1.82-3.97,3.843-7.354,6.973c-0.386,0.358-0.833,0.769-1.325,1.216c-1.978,1.768-4.699,4.034-7.161,5.264
				c-0.297,0.149-0.591,0.283-0.875,0.396h1.998c2.976-1.337,6.189-3.607,8.655-5.655c0.026-0.024,0.054-0.047,0.083-0.069
				c4.104-3.427,6.723-6.218,9.033-8.124c2.393,0.138,4.378,0.404,6.555,0.766c7.681,1.278,13.44,3.929,17.954,6.766
				c0.352,0.219,0.695,0.439,1.032,0.657l1.685-0.003C281.439,259.682,280.755,259.157,280.038,258.635z"/>
		</g>
		<polygon fill="#9397CB" points="332.396,262.537 332.769,261.468 333.454,260.315 332.207,260.827 331.057,261.468 
			329.952,262.201 328.98,263.08 328.201,264.005 327.514,264.962 327.079,265.869 327.049,265.938 326.777,266.946 
			326.683,268.143 326.777,269.291 326.954,270.154 326.999,270.362 327.287,271.366 327.514,272.391 327.609,273.395 
			327.416,274.402 327.41,274.415 326.952,275.423 328.201,274.769 328.816,274.415 329.316,274.127 330.179,273.442 
			330.929,272.71 331.569,271.829 332.029,270.858 332.219,270.154 332.35,269.66 332.59,268.283 332.624,267.312 332.541,266.354 
			332.466,265.869 332.396,265.429 332.257,264.515 332.257,263.542 		"/>
		<path fill="#9397CB" d="M293.019,257.964c0.458-0.839,1.929-0.902,2.239,0.124c0-3.383-3.875-3.307-4.867-1.126
			c-0.573,1.215-0.697,2.298-0.542,3.247l2.897-0.006C292.648,259.393,292.692,258.558,293.019,257.964z"/>
		<path fill="#9397CB" d="M299.251,257.162c0.521,1.005,0.847,2.053,1.045,3.047l1.366-0.006c0.195-0.996,0.521-2.039,1.04-3.041
			c0.974-1.878,0.811-1.629,1.979-3.636c0.613-1.064,2.072-3.407,1.138-3.885l-4.841,4.611l-4.842-4.611
			c-0.935,0.478,0.525,2.82,1.137,3.885C298.441,255.533,298.277,255.284,299.251,257.162z"/>
		<path fill="#9397CB" d="M310.883,254.079c1.021,0,2.306-1.041,1.75-2.257c-0.67-1.402-1.536-1.251-1.07-2.883
			c0.011-0.033,0.022-0.069,0.033-0.097l-0.458,0.006c-0.021,0.11-0.041,0.224-0.064,0.344c-0.346,2.218,1.366,2.143,1.56,3.133
			C312.917,253.566,311.252,254.079,310.883,254.079z"/>
		<path fill="#9397CB" d="M314.227,248.843l5.66-0.004c-0.066-1.153-0.025-2.122-0.729-3.032c-1.168-1.589-4.188-1.928-5.743-0.5
			c-1.133,1.03-1.899,1.68-2.276,3.536l0.458-0.006C312.101,247.416,313.43,247.434,314.227,248.843z"/>
		<path fill="#9397CB" d="M280.586,248.843l0.816-0.006c-0.814-2.03-2.635-4.459-3.864-4.032c-1.372,0.553-0.312,3.084,1.07,3.133
			c-0.272-0.288-2.132-1.589-0.973-2.506C278.44,244.839,279.806,247.184,280.586,248.843z"/>
	</g>
</g>
<rect y="97.667" fill="#FFFFFF" width="150.62" height="254.667"/>
</svg>
