<?xml version="1.0" encoding="utf-8"?>
<!-- Generator: Adobe Illustrator 16.0.4, SVG Export Plug-In . SVG Version: 6.00 Build 0)  -->
<!DOCTYPE svg PUBLIC "-//W3C//DTD SVG 1.1//EN" "http://www.w3.org/Graphics/SVG/1.1/DTD/svg11.dtd">
<svg version="1.1" id="Layer_1" xmlns="http://www.w3.org/2000/svg" xmlns:xlink="http://www.w3.org/1999/xlink" x="0px" y="0px"
	 width="600px" height="450px" viewBox="-10 65 600 450" enable-background="new -10 65 600 450" xml:space="preserve">
<g>
	<path fill="#939598" d="M314.253,155.38c0,0.543-0.548,0.813-1.626,0.813h-1.544c-9.648,0-21.571,6.884-35.768,20.646
		c-14.198,13.766-24.791,28.693-31.781,44.787c5.418-8.779,11.73-15.85,18.94-21.215c7.259-5.418,14.087-8.126,20.482-8.129
		c5.418,0,9.809,1.682,13.167,5.041c3.415,3.307,5.123,7.615,5.123,12.923c0,9.592-5.284,18.967-15.851,28.124
		c-10.515,9.104-21.325,13.655-32.433,13.655c-6.07,0-10.921-1.95-14.55-5.852c-3.577-3.903-5.364-9.157-5.364-15.77
		c0-9.807,4.036-20.074,12.111-30.807c8.072-10.728,19.397-20.915,33.975-30.561c5.853-3.903,12.137-7.289,18.858-10.16
		c6.721-2.926,11.649-4.39,14.795-4.39C313.765,154.487,314.253,154.786,314.253,155.38L314.253,155.38z M294.254,204.313
		c0-7.316-4.038-10.973-12.111-10.973c-8.618,0-17.801,5.067-27.553,15.2c-9.702,10.079-14.551,19.588-14.551,28.531
		c0,4.227,1.057,7.615,3.17,10.16c2.113,2.547,4.93,3.818,8.453,3.82c8.398,0,17.583-5.472,27.555-16.42
		C289.24,223.633,294.254,213.525,294.254,204.313L294.254,204.313z"/>
	<path fill="#939598" d="M375.337,196.96c0,10.544-5.271,21.774-15.812,33.696c-12.844,14.5-24.722,21.75-35.63,21.75
		c-5.522,0-10.059-1.956-13.602-5.868c-3.501-3.958-5.246-9.022-5.246-15.191c0-12.381,7.595-24.972,22.784-37.769
		c13.116-11,23.592-16.501,31.417-16.502c4.877,0,8.768,1.819,11.667,5.455C373.861,186.168,375.334,190.979,375.337,196.96
		L375.337,196.96z M370.296,189.366c0-7.548-3.639-11.321-10.909-11.324c-5.938,0-12.797,3.5-20.576,10.496
		c-7.413,6.629-13.766,14.617-19.059,23.959c-5.523,9.805-8.283,18.46-8.283,25.962c0,8.656,4.092,12.981,12.29,12.981
		c10.126,0,20.296-7.064,30.518-21.198c4.833-6.673,8.7-13.739,11.602-21.197C368.824,201.588,370.296,195.028,370.296,189.366
		L370.296,189.366z"/>
	<g>
		<path fill="#939598" d="M148.879,383.323c0.065-0.283,0.164-0.531,0.287-0.747l-0.948-0.012v0.759H148.879z"/>
		<path fill="#939598" d="M192.808,379.188l-1.306-3.039l-2.768-6.439l-0.79-1.836h-0.466l-0.788,1.836l-2.768,6.439l-1.308,3.039
			c-1.059,2.479-1.389,2.88-3.407,2.88v0.496v0.196h6.253v-0.196v-0.496c-2.613,0-2.648-0.563-1.787-2.517l0.661-1.522h5.426
			l0.661,1.522c0.861,1.953,0.596,2.517-1.785,2.517v0.496v0.196h7.409v-0.196v-0.496
			C194.297,382.068,193.868,381.669,192.808,379.188z M184.867,376.808l0.284-0.658l1.9-4.404l1.898,4.404l0.286,0.658H184.867z"/>
		<path fill="#939598" d="M245.177,379.421c-0.397,1.552-0.828,2.116-3.838,2.116h-0.399c-2.217,0-2.613-0.529-2.613-3.837v-1.551
			v-0.368h0.197c1.445,0,2.312,0.083,2.827,0.357l1.408,0.012v-4.208h-0.661c0,2.217-0.264,2.614-3.574,2.614h-0.197v-4.846v-0.082
			h2.216c0.657,0,1.194,0.027,1.632,0.087h0.032c1.534,0.226,1.86,0.85,2.141,2.029l0.166,0.66h0.695l-0.182-2.694l-0.084-1.274
			h-4.268h-7.313v0.661c1.063,0,1.711,0.122,2.093,0.616h0.002c0.412,0.538,0.519,1.507,0.519,3.224v3.213v2.079
			c0,3.31-0.397,3.871-2.614,3.871v0.465v0.196h12.375l0.012-0.196l0.252-3.807h-0.66L245.177,379.421z"/>
		<path fill="#939598" d="M230.622,379.421c-0.399,1.552-0.798,2.116-3.839,2.116h-1.159c-2.217,0-2.613-0.529-2.613-3.837v-1.551
			v-3.214c0-1.719,0.107-2.688,0.521-3.223l-1.696-0.003h1.696c0.383-0.49,1.028-0.613,2.092-0.613v-0.661h-7.577v0.661
			c1.067,0,1.711,0.123,2.093,0.616h0.002c0.414,0.537,0.521,1.507,0.521,3.223v3.214v2.08c0,3.309-0.399,3.871-2.616,3.871v0.464
			v0.196h13.204l0.01-0.196l0.22-3.808h-0.693L230.622,379.421z"/>
		<path fill="#939598" d="M242.099,378.396h0.661v-2.246h-1.407C242.014,376.492,242.099,377.164,242.099,378.396z"/>
		<path fill="#939598" d="M336.992,379.024c-0.428,1.753-0.792,2.514-3.804,2.514h-3.97c-2.746,0-3.142-0.529-3.142-3.837v-1.551
			v-6.439v-2.268c0-3.31,0.396-3.836,3.142-3.836v-0.695h-8.935v0.695c2.745,0,3.145,0.527,3.145,3.836v2.268v6.439v2.049
			c0,3.308-0.399,3.87-3.145,3.87v0.496v0.196h17.306l0.013-0.196l0.251-4.204h-0.69L336.992,379.024z"/>
		<path fill="#939598" d="M161.142,376.141c-0.342-1.425-1.324-2.801-3.296-3.802l-3.176-1.619
			c-0.711-0.365-1.316-0.695-1.825-1.016h-0.008c-1.521-0.956-2.17-1.802-2.17-3.089c0-1.653,1.358-2.944,3.209-2.944
			c3.839,0,4.831,3.143,5.063,5.791h0.694v-7.28h-0.661c-0.165,0.694-0.563,1.191-0.961,1.521c-0.992-0.725-2.083-1.355-4.038-1.355
			c-3.209,0-5.492,2.184-5.492,4.929c0,0.891,0.219,1.712,0.588,2.44h0.004c0.672,1.34,1.841,2.382,3.08,3.023l3.176,1.618
			c1.105,0.561,2.029,1.157,2.692,1.799h0.005c0.706,0.691,1.108,1.421,1.108,2.204c0,2.12-1.786,3.642-4.135,3.642
			c-5.56,0-6.072-5.018-6.116-5.843l-0.667-0.011v6.416h0.948c0.189-0.329,0.431-0.595,0.673-0.796
			c0.5,0.11,1.113,0.459,1.888,0.799h0.007c0.87,0.385,1.939,0.755,3.269,0.755c1.147,0,2.236-0.266,3.175-0.758h0.006
			c1.841-0.972,3.104-2.809,3.104-5.195C161.286,376.961,161.24,376.55,161.142,376.141L161.142,376.141L161.142,376.141z"/>
		<path fill="#939598" d="M179.219,369.708l-0.071-1.272h-14.759l-0.062,1.272l-0.137,2.796h0.663l0.164-0.664
			c0.399-1.552,0.663-2.115,3.706-2.115h1.921v6.425v2.079c0,3.309-0.43,3.871-2.648,3.871v0.465v0.195h7.612v-0.195V382.1
			c-2.218,0-2.646-0.563-2.646-3.871v-2.079v-6.425h1.719c3.044,0,3.439,0.563,3.838,2.115l0.165,0.664h0.695L179.219,369.708z"/>
		<path fill="#939598" d="M148.879,376.047h-0.661v0.103h0.667C148.879,376.085,148.879,376.047,148.879,376.047z"/>
		<g>
			<path fill="#939598" d="M278.958,376.152c-0.721,1.239-1.079,2.561-1.079,3.961c0,0.813,0.143,1.639,0.429,2.451l1.585-0.003
				c-0.036-0.276-0.052-0.534-0.052-0.771c0-1.975,0.658-3.854,1.976-5.642L278.958,376.152z"/>
			<g>
				<path fill="#939598" d="M298.836,387.006c-0.789,0-1.562-0.151-2.323-0.452c1.604-1.187,2.772-2.513,3.513-3.978h0.006
					c0.626-1.24,0.94-2.577,0.94-4.014c0-0.886-0.12-1.691-0.359-2.412l-0.65,0.007c0.171,0.563,0.255,1.179,0.255,1.846
					c0,1.321-0.453,2.698-1.354,4.136c-0.09,0.14-0.176,0.28-0.269,0.422h-0.005c-0.859,1.267-1.969,2.412-3.327,3.435l-0.215-0.151
					c-0.647-0.487-1.072-0.841-1.27-1.059c0.905-0.527,1.723-1.26,2.453-2.194c0.01-0.009,0.015-0.019,0.024-0.025l-0.296-0.001
					l0.296-0.002c0.729-0.934,1.098-1.707,1.098-2.32c0-0.346-0.167-0.517-0.494-0.517c-0.29,0-0.434,0.202-0.434,0.603
					c-0.02,0.797-0.274,1.538-0.761,2.235h-0.002c-0.493,0.708-1.23,1.366-2.21,1.966c-0.531-0.596-0.959-1.245-1.286-1.963h-0.006
					c-0.385-0.839-0.63-1.759-0.732-2.754c1.264-1.099,2.393-2.312,3.383-3.651h0.007c0.78-1.051,1.476-2.177,2.083-3.372
					c1.601,0.771,2.619,1.893,3.062,3.361h0.65c-0.547-1.66-1.729-2.884-3.54-3.663c0.543-1.172,0.902-2.101,1.077-2.777
					c0.087-0.323,0.126-0.588,0.126-0.798c0-0.229-0.09-0.347-0.276-0.347c-0.2,0.004-0.332,0.205-0.391,0.604
					c-0.027,0.18-0.062,0.358-0.102,0.54c-0.188,0.831-0.504,1.698-0.951,2.605c-0.749-0.243-1.544-0.365-2.394-0.365
					c-0.604,0-1.305,0.073-2.113,0.215c0.229-0.864,0.49-1.677,0.788-2.451h0.002c0.244-0.638,0.515-1.241,0.808-1.813
					c1.491-0.835,2.739-1.616,3.749-2.35c2.506,1.11,4.531,2.497,6.069,4.161l0.527-0.006c-1.659-1.815-3.744-3.286-6.254-4.413
					c2.888-2.238,4.33-3.783,4.33-4.63c0-0.474-0.252-0.713-0.755-0.713c-0.589,0-1.448,0.433-2.584,1.293
					c-1.136,0.849-2.246,1.904-3.338,3.166c-2.472-0.761-4.928-1.141-7.367-1.141c-4.368,0.002-8.053,1.157-11.051,3.468
					c-1.191,0.913-2.145,1.906-2.862,2.976h2.034c0.622-0.765,1.365-1.498,2.228-2.199c3.088-2.513,6.65-3.77,10.685-3.77
					c2.013,0,4.036,0.323,6.077,0.968c-0.792,1.107-1.425,2.063-1.896,2.865c-2.177,0.828-3.973,1.532-5.392,2.126h-0.022
					c-1.648,0.676-2.78,1.189-3.398,1.538c-2.591,1.465-4.415,3.104-5.468,4.91l2.858-0.006c1.688-2.295,4.458-4.44,8.31-6.434
					l-0.575-0.004h0.575c0.139-0.071,0.28-0.142,0.418-0.213l2.306-1.164c-0.231,0.478-0.44,0.931-0.631,1.371h-0.006
					c-0.461,1.047-0.811,1.962-1.043,2.741c-2.04,0.664-3.705,1.741-4.998,3.233c-0.136,0.157-0.264,0.318-0.387,0.475l1.137-0.012
					c1.057-1.394,2.43-2.47,4.119-3.222c-0.347,1.161-0.576,2.239-0.699,3.233l0.796,0.004l-0.796,0.007
					c-0.066,0.553-0.1,1.078-0.1,1.58c0,0.678,0.087,1.453,0.26,2.328c-1.352,1.094-2.849,1.928-4.491,2.496l1.115-0.003
					c1.199-0.547,2.352-1.242,3.462-2.084c0.192,0.713,0.479,1.412,0.855,2.087l0.24,0.005l-0.24,0.002
					c0.415,0.743,0.94,1.469,1.579,2.173c-0.906,0.416-1.774,0.623-2.607,0.623c-2.154,0-3.654-0.768-4.501-2.306
					c0.409-0.151,0.812-0.318,1.211-0.498l-1.115,0.007c-0.104,0.035-0.208,0.069-0.313,0.104c-0.013-0.035-0.026-0.069-0.039-0.111
					h-0.001c-0.246-0.663-0.368-1.303-0.368-1.915c0-1.55,0.532-3.036,1.594-4.457c0.014-0.018,0.025-0.036,0.039-0.043h-1.137
					c-1.035,1.359-1.551,2.8-1.551,4.328c0,0.685,0.16,1.38,0.483,2.087c0.056,0.123,0.119,0.246,0.185,0.369
					c-1.135,0.301-2.176,0.452-3.123,0.452c-0.304,0-0.893-0.044-1.768-0.129c-0.051-0.246-0.089-0.475-0.118-0.692l-1.585,0.015
					c0.021,0.058,0.044,0.122,0.066,0.183c-0.144-0.058-0.287-0.121-0.424-0.196h-0.023c-2.789-1.303-4.183-3.428-4.183-6.373
					c0-0.018,0-0.028,0-0.042l-1.225,0.004c0.152,1.516,0.682,2.871,1.592,4.066c0.724,0.956,1.632,1.732,2.725,2.345h0.015
					c0.549,0.303,1.143,0.562,1.784,0.778c0.816,1.739,2.124,3.126,3.921,4.161c1.81,1.019,3.84,1.527,6.096,1.527
					c2.714,0,5.2-0.739,7.455-2.22c1.261,0.475,2.352,0.711,3.271,0.711c2.313,0,4.282-0.885,5.905-2.648
					c0.647-0.708,1.169-1.478,1.56-2.309h-1.374c-0.309,0.582-0.679,1.136-1.113,1.66
					C302.817,386.078,300.979,387.006,298.836,387.006z M298.968,361.586c1.104-0.847,1.887-1.27,2.346-1.27
					c0.229,0,0.346,0.117,0.346,0.346c0,0.369-0.445,1.018-1.335,1.937c-0.891,0.906-1.896,1.745-3.018,2.519l-0.279-0.085
					l-0.56-0.279l-0.623-0.214C296.833,363.418,297.877,362.436,298.968,361.586z M295.584,364.904
					c0.432,0.145,0.884,0.301,1.358,0.475c-1.233,0.86-2.232,1.477-2.993,1.853C294.465,366.369,295.013,365.593,295.584,364.904z
					 M291.342,378.002c0-0.641,0.02-1.255,0.06-1.85c0.088-1.307,0.276-2.488,0.563-3.537c0.777-0.202,1.509-0.302,2.198-0.302
					c0.718,0.002,1.472,0.1,2.262,0.302c-0.592,1.241-1.309,2.42-2.155,3.534l0.274,0.005l-0.274,0.005
					c-0.836,1.109-1.798,2.164-2.884,3.158C291.355,378.942,291.342,378.505,291.342,378.002z M288.219,388.534
					c-1.839,0-3.506-0.443-4.999-1.334c-1.479-0.89-2.506-2.063-3.08-3.512c0.676,0.085,1.234,0.127,1.681,0.127
					c0.99,0,2.103-0.173,3.34-0.516c1.248,1.637,2.9,2.457,4.953,2.457c1.021,0,2.088-0.252,3.21-0.756
					c0.314,0.374,0.848,0.79,1.594,1.249C292.647,387.773,290.414,388.534,288.219,388.534z"/>
				<path fill="#939598" d="M307.711,378.433c0-0.773-0.077-1.537-0.233-2.283h-0.905c0.056,0.46,0.085,0.924,0.085,1.4
					c0,1.858-0.396,3.531-1.192,5.015l1.374-0.003C307.422,381.323,307.711,379.945,307.711,378.433z"/>
				<path fill="#939598" d="M304.997,370.914c-0.314-0.418-0.65-0.82-1.004-1.204l-0.527,0.003c0.272,0.299,0.535,0.604,0.777,0.922
					c1.308,1.691,2.085,3.53,2.329,5.515l0.906-0.005C307.104,374.332,306.277,372.59,304.997,370.914z"/>
			</g>
			<path fill="#939598" d="M272.47,375.222c0,0.317,0.017,0.626,0.047,0.928l1.226-0.005c0.008-2.34,0.812-4.486,2.402-6.437
				l-2.035,0.011C273.017,371.361,272.47,373.193,272.47,375.222z"/>
		</g>
		<path fill="#939598" d="M207.893,369.096c1.063,0,1.71,0.122,2.092,0.616h0.001c0.414,0.538,0.521,1.507,0.521,3.224v3.214v2.739
			l-2.31-2.739l-5.42-6.441l-1.074-1.272h-4.07v0.66c1.066,0,1.711,0.122,2.094,0.616h0.002c0.412,0.538,0.519,1.507,0.519,3.224
			v3.214v2.079c0,3.309-0.397,3.871-2.615,3.871v0.465v0.195h6.452v-0.195V382.1c-2.214,0-2.612-0.563-2.612-3.871v-2.079v-4.405
			l3.672,4.405l5.352,6.415l0.604,0.727h0.628v-0.727v-6.415v-3.214c0-1.72,0.108-2.689,0.523-3.224l-1.134-0.002l1.134-0.002
			c0.381-0.49,1.027-0.612,2.092-0.612v-0.66h-6.452L207.893,369.096L207.893,369.096z"/>
		<path fill="#939598" d="M258.67,369.096c1.224,0,1.792,0.142,1.827,0.616c0.027,0.384-0.295,0.983-0.902,1.9l-2.546,3.804
			l-2.582-3.804c-0.616-0.894-0.901-1.5-0.822-1.894l-2.125-0.007l2.125-0.004c0.089-0.442,0.665-0.612,1.781-0.612v-0.66h-7.346
			v0.66c0.872,0,1.458,0.164,2.023,0.619h0.007c0.547,0.45,1.078,1.172,1.843,2.293l2.816,4.142l0.492,0.724v1.356
			c0,3.309-0.431,3.871-2.648,3.871v0.464v0.196h7.611v-0.196v-0.464c-2.217,0-2.646-0.563-2.646-3.871v-1.392l0.467-0.688
			l2.809-4.142c0.745-1.105,1.311-1.843,1.932-2.3h0.004c0.583-0.433,1.218-0.612,2.101-0.612v-0.66h-6.221L258.67,369.096
			L258.67,369.096z"/>
		<g>
			<path fill="#939598" d="M406.794,383.323c0.975,0,1.892-0.265,2.652-0.745l-5.582-0.014
				C404.585,382.934,405.608,383.323,406.794,383.323z"/>
			<path fill="#939598" d="M402.458,383.323c0.051-0.29,0.163-0.544,0.29-0.755l-0.888-0.004v0.759H402.458z"/>
			<path fill="#939598" d="M426.544,378.396h0.664v-2.246h-1.405C426.462,376.492,426.544,377.164,426.544,378.396z"/>
			<path fill="#939598" d="M429.785,378.757l-0.163,0.664c-0.398,1.553-0.826,2.117-3.84,2.117h-0.396
				c-2.216,0-2.613-0.529-2.613-3.837v-1.551v-0.367h0.198c1.45,0,2.313,0.082,2.83,0.356l1.405,0.011v-4.207h-0.664
				c0,2.217-0.264,2.613-3.572,2.613h-0.198v-4.845v-0.083h2.218c0.66,0,1.194,0.028,1.633,0.088h0.031
				c1.536,0.227,1.856,0.849,2.141,2.029l0.163,0.661h0.698l-0.179-2.695l-0.087-1.274h-4.271h-7.311v0.66
				c1.065,0,1.708,0.123,2.092,0.616h0.001c0.414,0.538,0.521,1.507,0.521,3.225v3.212v2.081c0,3.309-0.396,3.87-2.614,3.87v0.465
				v0.195h12.374l0.014-0.195l0.251-3.807h-0.662V378.757z"/>
			<path fill="#939598" d="M410.379,376.145c-0.377-0.403-0.862-0.773-1.47-1.093l-2.22-1.157c-2.016-1.061-2.874-1.689-2.874-2.846
				c0-0.565,0.231-1.017,0.608-1.341h0.007c0.441-0.38,1.077-0.578,1.766-0.578c0.72,0,1.305,0.215,1.776,0.571l2.358,0.009v-1.836
				h-0.66c-0.069,0.528-0.333,0.826-0.497,1.024c-0.694-0.497-1.755-0.993-3.142-0.993c-1.556,0-2.843,0.718-3.547,1.799
				l0.777,0.003l-0.777,0.003c-0.378,0.566-0.592,1.242-0.592,1.969c0,1.852,1.16,3.208,2.748,4.035l0.844,0.436l1.405,0.724
				c1.787,0.925,2.712,1.787,2.712,2.943c0,1.425-1.123,2.218-2.545,2.218c-2.484,0-4.271-1.589-4.534-4.4h-0.664v4.931h0.888
				c0.117-0.194,0.241-0.352,0.338-0.464c0.187,0.121,0.45,0.289,0.778,0.458l5.582,0.006c1.227-0.763,2.044-2.1,2.044-3.772
				c0-0.872-0.314-1.821-1.104-2.647H410.379L410.379,376.145z"/>
			<path fill="#939598" d="M409.672,373.465h0.66v-3.757h-2.358C409.059,370.518,409.533,372.08,409.672,373.465z"/>
			<path fill="#939598" d="M356.516,369.708h-2.78c2.107,1.12,2.943,3.716,2.943,5.872c0,0.189-0.007,0.378-0.02,0.569
				c-0.182,2.768-1.69,5.885-5.34,5.885c-3.647,0-5.159-3.117-5.343-5.875l-2.03-0.007l2.03-0.003
				c-0.014-0.187-0.018-0.377-0.018-0.57c0-2.152,0.836-4.736,2.932-5.871h0.015c0.67-0.368,1.472-0.578,2.414-0.578
				c0.944,0,1.743,0.21,2.416,0.569L356.516,369.708c-1.409-1.14-3.224-1.835-5.196-1.835c-1.974,0-3.793,0.695-5.197,1.835
				c-1.754,1.423-2.874,3.543-2.874,5.872c0,0.192,0.007,0.384,0.021,0.572c0.217,2.833,2.033,5.244,4.579,6.416h0.01
				c1.051,0.486,2.228,0.755,3.462,0.755c1.239,0,2.419-0.271,3.472-0.755l-3.472-0.002l3.472-0.002
				c2.542-1.165,4.363-3.581,4.579-6.412h-0.676l0.676-0.003c0.017-0.186,0.022-0.377,0.022-0.569
				C359.393,373.251,358.27,371.131,356.516,369.708z"/>
			<path fill="#939598" d="M387.374,369.096c1.066,0,1.712,0.122,2.096,0.616h0.001c0.414,0.538,0.521,1.507,0.521,3.224v3.214
				v2.079c0,3.309-0.399,3.871-2.617,3.871v0.465v0.195h7.576v-0.195V382.1c-2.213,0-2.609-0.563-2.609-3.871v-2.079v-3.214
				c0-1.72,0.107-2.689,0.521-3.224l-1.696-0.002l1.696-0.002c0.381-0.49,1.024-0.612,2.088-0.612v-0.66h-7.576V369.096z"/>
			<path fill="#939598" d="M375.827,369.096c1.065,0,1.714,0.122,2.095,0.616h0.002c0.412,0.538,0.52,1.507,0.52,3.224v3.214v1.484
				c0,2.877-1.72,4.201-4.038,4.201c-2.314,0-3.905-1.324-3.905-4.201v-1.484v-3.214c0-1.72,0.117-2.689,0.535-3.224l-1.701-0.002
				l1.701-0.002c0.39-0.49,1.034-0.612,2.082-0.612v-0.66h-7.577v0.66c1.063,0,1.709,0.122,2.093,0.616h0.001
				c0.41,0.538,0.521,1.507,0.521,3.224v3.214v1.251c0,2.526,1.125,4.261,2.808,5.164c0.896,0.481,1.953,0.727,3.081,0.727
				c1.127,0,2.186-0.245,3.089-0.727c1.691-0.903,2.834-2.638,2.834-5.164v-1.251v-3.214c0-1.72,0.115-2.689,0.534-3.224
				l-1.291-0.002l1.291-0.002c0.384-0.49,1.027-0.612,2.078-0.612v-0.66h-6.752V369.096L375.827,369.096z"/>
		</g>
	</g>
	<g>
		<polygon fill="#9397CB" points="269.638,409.79 269.542,410.476 269.289,411.212 268.818,412 269.673,411.651 270.461,411.212 
			271.218,410.708 271.885,410.104 272.284,409.632 272.421,409.469 272.895,408.812 273.21,408.142 273.398,407.454 
			273.463,406.633 273.398,405.842 273.246,405.11 273.048,404.419 272.895,403.717 272.827,403.028 272.96,402.337 
			273.276,401.635 272.421,402.085 271.656,402.526 271.065,402.997 270.551,403.498 270.11,404.101 269.795,404.768 
			269.575,405.592 269.408,406.534 269.388,407.201 269.443,407.858 269.542,408.494 269.638,409.12 269.638,409.632 		"/>
		<polygon fill="#9397CB" points="249.867,400.024 250.917,400.377 251.958,400.663 253.031,400.881 254.048,401.101 
			255.059,401.264 256.001,401.384 256.922,401.484 257.777,401.516 258.563,401.55 259.267,401.573 259.899,401.55 
			260.405,401.516 260.842,401.45 261.127,401.353 261.73,401.014 262.302,400.727 262.803,400.475 263.309,400.245 
			263.821,400.061 264.415,399.808 265.116,399.554 265.934,399.239 265.18,398.986 264.38,398.834 263.539,398.732 
			262.651,398.732 261.73,398.768 260.746,398.864 259.704,398.952 258.63,399.082 257.493,399.204 256.288,399.336 
			255.026,399.455 253.699,399.522 252.342,399.554 250.887,399.522 249.363,399.425 247.783,399.239 248.792,399.654 		"/>
		<path fill="#9397CB" d="M264.096,400.695l-1.127,0.568l-1.108,0.657l-1.083,0.702l-1.042,0.789l-1.106,0.918
			c-2.504,2.418-5.137,4.483-6.426,5.299h-0.005c-0.251,0.161-0.454,0.271-0.589,0.328l0.968,0.745
			c0.503-0.286,1.078-0.676,1.631-1.069c1.178-0.839,2.243-1.707,2.243-1.707l1.257-0.855l1.086-0.657l0.875-0.48l0.769-0.318
			l0.624-0.188l0.536-0.085l0.449-0.031h0.375l0.318,0.031h0.316l0.288-0.066l0.281-0.164l0.353-0.251l0.382-0.374l0.307-0.352
			l0.285-0.351l0.32-0.313l0.284-0.308l0.286-0.318l0.315-0.317l0.319-0.318l0.315-0.32l0.351-0.314l0.34-0.31l0.416-0.317
			l0.407-0.352l0.483-0.314l0.47-0.344l0.539-0.349l0.569-0.384l-1.326,0.098l-1.271,0.221l-1.262,0.317l-1.203,0.384
			L264.096,400.695z"/>
		<path fill="#9397CB" d="M312.969,399.937l0.469,0.344l0.484,0.314l0.405,0.352l0.418,0.317l0.34,0.31l0.349,0.314l0.314,0.32
			l0.321,0.318l0.315,0.317l0.288,0.318l0.283,0.308l0.321,0.313l0.283,0.351l0.305,0.352l0.384,0.374l0.352,0.251l0.285,0.164
			l0.286,0.066h0.317l0.317-0.031h0.374l0.45,0.031l0.535,0.085l0.621,0.188l0.772,0.318l0.874,0.48l1.085,0.657l1.258,0.855
			c0,0,1.065,0.868,2.242,1.707c0.554,0.395,1.128,0.783,1.632,1.069l0.969-0.745c-0.135-0.057-0.339-0.167-0.592-0.328h-0.005
			c-1.287-0.815-3.919-2.881-6.426-5.299l-1.104-0.918l-1.045-0.789l-1.082-0.702l-1.106-0.657l-1.129-0.568l-1.204-0.472
			l-1.204-0.384l-1.265-0.317l-1.271-0.221l-1.323-0.098l0.569,0.384L312.969,399.937z"/>
		<polygon fill="#9397CB" points="317.862,399.808 318.466,400.061 319.004,400.245 319.476,400.475 319.979,400.727 
			320.552,401.014 321.148,401.353 321.435,401.45 321.884,401.516 322.387,401.55 323.013,401.573 323.711,401.55 324.502,401.516 
			325.359,401.484 326.278,401.384 327.218,401.264 328.237,401.101 329.247,400.881 330.319,400.663 331.371,400.377 
			332.412,400.024 333.486,399.654 334.493,399.239 332.916,399.425 331.394,399.522 329.947,399.554 328.589,399.522 
			327.25,399.455 325.994,399.336 324.79,399.204 323.649,399.082 322.572,398.952 321.536,398.864 320.552,398.768 
			319.636,398.732 318.753,398.732 317.897,398.834 317.107,398.986 316.344,399.239 317.165,399.554 		"/>
		<polygon fill="#9397CB" points="309.229,404.419 309.044,405.11 308.877,405.842 308.815,406.633 308.877,407.454 
			309.066,408.142 309.387,408.812 309.868,409.469 310.014,409.632 310.438,410.104 311.061,410.708 311.827,411.212 
			312.616,411.651 313.473,412 312.987,411.212 312.739,410.476 312.648,409.79 312.648,409.632 312.648,409.12 312.739,408.494 
			312.837,407.858 312.902,407.201 312.868,406.534 312.705,405.592 312.484,404.768 312.167,404.101 311.762,403.498 
			311.224,402.997 310.62,402.526 309.868,402.085 309.013,401.635 309.321,402.337 309.45,403.028 309.387,403.717 		"/>
		<path fill="#9397CB" d="M211.828,409.624c-0.791-1.648-0.953-3.651-0.26-6.055c0.61-2.604,4.265-5.429,6.867-3.268
			c2.474,2.062,0.152,5.514-1.836,3.927c2.433,2.071,5.36-2.587,2.333-5.091c-3.156-2.656-7.531,0.773-8.305,3.875
			c-0.753,2.645-0.656,4.834,0.074,6.618L211.828,409.624z"/>
		<path fill="#9397CB" d="M371.598,403.012c-0.773-3.101-5.149-6.531-8.307-3.874c-3.033,2.509-0.094,7.177,2.342,5.086
			c-1.987,1.596-4.319-1.858-1.844-3.922c2.604-2.161,6.258,0.664,6.868,3.268c0.692,2.403,0.531,4.405-0.261,6.062
			c-2.815,5.853-13.636,7.168-22.498,5.784c-2.651-0.412-5.309-1.093-7.985-1.94c0.616-0.938,0.91-2.013,0.779-3.233
			c-0.021-0.214-0.052-0.415-0.094-0.6c-0.78-3.668-4.727-2.293-8.302-0.012l1.505-0.008c0.632-0.446,1.272-0.853,1.892-1.16
			c1.858-0.928,3.411-0.982,3.899,1.168c0.06,0.28,0.104,0.585,0.132,0.928c0.075,1.022-0.104,1.919-0.5,2.695
			c-2.126-0.699-4.271-1.498-6.432-2.353l-0.902,0.782c2.189,0.868,4.434,1.688,6.789,2.415c-1.846,2.309-5.899,3.362-10.557,3.572
			c-1.072,0.051-2.18,0.053-3.299,0.019c0.01-0.009,0.018-0.021,0.028-0.021l-1.044-0.005l1.044-0.006
			c1.154-1.239,2.714-2.622,5.015-4.751c0.938-0.868,2.406-2.204,3.932-3.278l-1.504,0.007c-1.213,0.774-2.38,1.654-3.368,2.481
			c-2.789,2.325-4.577,4.224-6.151,5.541h-0.013c-0.01,0.01-0.021,0.019-0.035,0.03c-0.128-0.009-0.26-0.016-0.387-0.021
			l-1.858-0.004h1.858c-1.472-0.101-2.733-0.273-4.109-0.5c-5.269-0.878-9.222-2.694-12.319-4.642
			c-1.539-0.965-2.867-1.966-4.044-2.894l-0.646,0.006c1.22,1.098,2.597,2.325,4.238,3.517c2.453,1.776,5.487,3.47,9.451,4.517
			h0.044c0.843,0.218,1.717,0.408,2.642,0.562c1.299,0.214,2.715,0.355,4.183,0.418c-2.636,2.07-4.858,3.497-9.029,6.872l0.18,0.224
			c4.434-3.585,6.871-4.876,9.946-7.062c3.202,0.051,6.634-0.265,9.617-1.013c2.858-0.718,5.312-1.827,6.777-3.391
			c2.372,0.714,4.859,1.327,7.52,1.802c8.817,1.55,21.818,0.728,24.73-6.447C372.252,407.847,372.35,405.657,371.598,403.012z"/>
		<path fill="#9397CB" d="M301.871,409.629c-0.625-0.493-1.207-0.969-1.755-1.407l0.953-0.08l1.359-0.097l1.521-0.12l0.891-0.098
			l0.854-0.255l0.755-0.402l0.656-0.537l0.539-0.667l0.414-0.759l0.25-0.854l0.101-0.884l-0.032-0.541l-0.101-0.503l-0.12-0.468
			l-0.197-0.472l-0.252-0.418l-0.284-0.402l-0.338-0.353l-0.354-0.318l0.855,0.287l0.855,0.35l0.82,0.384l0.821,0.401l0.82,0.473
			l0.792,0.506l0.786,0.512l0.755,0.563l0.767,0.566l0.754,0.635l0.758,0.64l0.769,0.657l0.723,0.697l0.723,0.691l0.698,0.724
			l0.727,0.733l-0.32-0.637l-0.371-0.635l-0.384-0.626l-0.405-0.635l-0.45-0.602l-0.468-0.604l-0.471-0.59l-0.516-0.603
			l-0.504-0.572l-0.536-0.535l-0.574-0.569l-0.565-0.506l-0.57-0.503l-0.569-0.503l-0.569-0.472l-0.605-0.449l-0.439-0.318
			l-0.434-0.283l-0.484-0.22l-0.439-0.221l-0.437-0.151l-0.416-0.101l-0.437-0.098l-0.418-0.057h-0.405h-0.415l-0.383,0.057
			l-0.375,0.098l-0.35,0.101l-0.349,0.151l-0.353,0.186l-0.305,0.197l-0.229-0.034l-0.22-0.032l-0.222-0.03h-0.22l-0.887,0.097
			l-0.852,0.252l-0.758,0.406l-0.666,0.538l-0.539,0.667l-0.414,0.758l-0.253,0.855l-0.086,0.878l-0.167,0.884l-0.253,0.723
			l-0.37,0.636l-0.481,0.503l-0.538,0.419l-0.6,0.34l-0.631,0.251l-0.666,0.163l-0.667,0.12l-0.656,0.101l-0.671,0.033h-0.636
			h-0.569h-0.504h-0.437h-0.353h-0.351h-0.438h-0.537h-0.603h-0.636l-0.689-0.033l-0.7-0.101l-0.692-0.12l-0.7-0.163l-0.658-0.251
			l-0.639-0.34l-0.568-0.419l-0.469-0.503l-0.385-0.636l-0.284-0.723l-0.154-0.884l-0.097-0.878l-0.254-0.855l-0.416-0.758
			l-0.536-0.667l-0.658-0.537l-0.769-0.406l-0.854-0.252l-0.875-0.097h-0.232l-0.217,0.03l-0.22,0.032l-0.221,0.034l-0.315-0.198
			l-0.35-0.185l-0.354-0.151l-0.338-0.101l-0.383-0.098l-0.385-0.057h-0.406h-0.415l-0.404,0.057l-0.45,0.098l-0.403,0.101
			l-0.45,0.151l-0.442,0.22l-0.469,0.221l-0.449,0.282l-0.438,0.318l-0.604,0.45l-0.568,0.472l-0.569,0.503l-0.57,0.503l-0.57,0.506
			l-0.57,0.569l-0.536,0.535l-0.505,0.572l-0.503,0.602l-0.484,0.591l-0.469,0.604l-0.438,0.602l-0.417,0.635l-0.375,0.626
			l-0.382,0.635l-0.315,0.636l0.721-0.731l0.7-0.725l0.727-0.691l0.764-0.698l0.726-0.657l0.756-0.639l0.765-0.635l0.758-0.566
			l0.756-0.563l0.786-0.513l0.789-0.506l0.822-0.471l0.833-0.402l0.821-0.384l0.855-0.35l0.843-0.286l-0.34,0.317l-0.35,0.353
			l-0.286,0.402l-0.22,0.419l-0.216,0.471l-0.132,0.468l-0.1,0.503l-0.033,0.541l0.099,0.884l0.251,0.854l0.418,0.759l0.537,0.667
			l0.655,0.536l0.767,0.403l0.854,0.255l0.891,0.098l1.51,0.12l1.358,0.097l0.906,0.073c-0.546,0.441-1.128,0.916-1.753,1.414
			h-0.003c-1.176,0.931-2.506,1.929-4.046,2.897c-3.098,1.947-7.05,3.765-12.318,4.642c-1.376,0.226-2.848,0.396-4.355,0.503
			c-0.128,0.003-0.258,0.01-0.387,0.019c-0.01-0.01-0.019-0.017-0.029-0.025h-0.007c-1.576-1.31-3.397-2.94-5.878-5.355
			c-0.934-0.912-2.092-1.856-3.312-2.67c-3.534-2.362-7.603-3.652-8.396-0.008l0.503,0.006l-0.503,0.005
			c-0.041,0.186-0.071,0.386-0.095,0.601c-0.128,1.221,0.164,2.296,0.78,3.233c-2.676,0.85-5.333,1.528-7.984,1.94
			c-8.864,1.383-19.684,0.068-22.5-5.784l-1.126,0.004c2.915,7.173,15.914,7.997,24.732,6.447c2.661-0.475,5.147-1.089,7.518-1.803
			c1.468,1.563,3.92,2.674,6.778,3.391c2.985,0.748,6.416,1.063,9.617,1.013c3.077,2.188,5.512,3.479,9.947,7.062l0.18-0.224
			c-4.173-3.375-6.396-4.802-9.031-6.871c1.47-0.062,2.884-0.204,4.182-0.418c0.94-0.157,1.834-0.351,2.686-0.573
			c3.963-1.038,7-2.73,9.451-4.507c1.643-1.19,3.018-2.417,4.238-3.52h0.004c0.549-0.493,1.066-0.958,1.561-1.383l0.988,0.078
			l1.009,0.098l0.884,0.132l0.823,0.088l0.725,0.129l0.666,0.188l0.604,0.187l0.538,0.229l0.461,0.251l0.043,0.023l0.502,0.351
			l0.45,0.385l0.437,0.438l0.449,0.537l0.44-0.537l0.437-0.438l0.447-0.385l0.506-0.351l0.04-0.023l0.464-0.251l0.537-0.229
			l0.602-0.187l0.67-0.188l0.72-0.129l0.823-0.088l0.891-0.132l1.007-0.098l0.936-0.076c0.495,0.426,1.014,0.891,1.561,1.377
			L301.871,409.629z M253.966,417.681c-4.47-0.295-8.465-1.384-10.343-3.603c2.329-0.721,4.547-1.534,6.713-2.393l-0.905-0.781
			c-2.146,0.849-4.271,1.644-6.385,2.336c-0.421-0.776-0.621-1.663-0.546-2.68c0.028-0.34,0.071-0.64,0.132-0.918h0.001
			c0.486-2.161,2.041-2.107,3.9-1.18c0.618,0.31,1.262,0.715,1.891,1.169c1.526,1.073,2.995,2.409,3.931,3.279
			c2.279,2.102,4.061,3.584,5.617,4.764h0.004c0.031,0.023,0.059,0.045,0.086,0.068
			C256.684,417.787,255.305,417.768,253.966,417.681z"/>
	</g>
	<g>
		<g>
			<polygon fill="#D8D8D8" points="290.719,271.786 311.874,270.031 320.315,267.399 310.422,263.208 273.259,262.622 
				262.606,266.735 269.632,270.03 			"/>
			<g>
				<polygon fill="#D8D8D8" points="268.59,271.93 260.301,267.632 253.776,270.951 267.039,277.477 				"/>
				<polygon fill="#D8D8D8" points="284.217,308.659 265.991,279.325 254.24,273.352 253.81,273.896 283.646,309.074 				"/>
				<polygon fill="#D8D8D8" points="328.086,273.78 315.548,279.315 297.317,308.659 297.884,309.081 328.495,274.337 				"/>
				<polygon fill="#D8D8D8" points="314.492,277.455 328.605,271.398 322.715,268.622 312.931,271.884 				"/>
				<polygon fill="#D8D8D8" points="312.447,277.655 311.003,272.213 291.616,274.322 291.836,280.483 				"/>
				<polygon fill="#D8D8D8" points="289.505,274.32 270.531,272.212 269.088,277.655 289.726,280.487 				"/>
				<polygon fill="#D8D8D8" points="291.819,282.591 291.819,313.483 312.896,279.625 				"/>
				<polygon fill="#D8D8D8" points="289.711,282.591 268.638,279.625 289.711,313.483 				"/>
			</g>
		</g>
		<path fill="#9397CB" d="M458.278,308.264c-1.187,0.934-2.287,1.613-2.967,2.036c-0.849,0.507-1.953,1.102-3.565,1.271
			c0.849-1.695,1.953-4.582,1.868-6.277c-0.086-3.985-1.951-3.732,1.528-7.38l-0.596-0.425l-13.482,10.74l-0.024-0.023
			c0,0-5.002,4.246-7.295,5.602c-2.969,1.868-3.65,2.293-5.853,3.057c-0.764,0.252-1.783,0.252-1.955-0.258
			c-0.082-0.677,0.764-1.78,1.531-2.545c3.393-3.817,8.824-10.098,8.824-10.098l-0.85-2.544l-4.755,0.764
			c0.938-0.339,0.852-1.442,0.764-1.779c-0.251-1.02-0.677-1.105-1.271-1.359c-0.678-0.171-1.442,0.17-1.867,0.595
			c-0.422,0.336-0.679,0.931-0.679,1.525c0.084,0.764,0.508,1.527,1.02,1.782c-2.042,2.16-4.181,4.214-5.331,5.3l-0.041-0.042
			c-4.752,4.246-10.606,8.487-14.34,8.74c0,0-0.596-0.082-0.511-0.426c-0.168-0.251,0.595-1.27,1.105-1.949
			c2.968-4.157,10.943-12.98,10.943-12.98h-2.799c-0.593,0.508-2.204,2.203-2.802,2.713c0.173-2.035-0.931-2.545-2.12-2.799
			c-3.312-0.764-11.541,3.224-14.934,6.277c-1.003,0.895-1.794,1.812-2.425,2.724c-0.307,0.248-0.623,0.5-0.959,0.758
			c-2.375,1.78-3.648,2.885-5.177,3.479c-1.779,1.188-3.224,1.528-5.177,1.953c-1.015,0.169-1.864,0.252-2.54,0.252
			c-0.938,0-2.038-0.34-2.378-0.848c-0.171-0.763,0.34-1.442,1.019-2.376c0.68-0.935,1.44-1.953,1.955-2.374
			c0.334-0.34,1.099-1.273,1.438-1.444c0.595,0,1.865-0.17,3.142-0.339c2.881-0.425,7.041-2.034,8.227-4.838
			c0.595-1.358,0.255-2.034,0-2.374c-0.509-0.679-1.273-1.02-2.459-0.934c-3.14,0.085-10.438,4.666-12.814,8.146
			c-1.355,2.123-2.287,5.515-1.781,6.704c0.34,0.931,1.104,1.439,2.459,1.695c3.741,0.591,8.845-1.563,13.908-5.429
			c-0.506,1.202-0.708,2.339-0.596,3.309c0.173,1.101,0.597,1.695,1.274,2.034c3.394,1.272,9.163-2.714,12.811-5.092
			c-0.509,1.36-1.02,2.549-1.02,3.732c0,0.935,0.679,1.53,1.443,1.613c3.286,0.401,9.828-3.968,14.761-8.602l0.032,0.034
			c0.509-0.426,6.362-5.938,6.958-6.533c1.1-0.169,2.799-0.424,4.239-0.594c0,0-1.271,1.524-2.035,2.374
			c-3.478,3.988-9.248,8.57-7.891,11.457c0.424,0.931,1.019,1.439,2.119,1.61c2.991,0.499,10.601-4.526,14.901-8.875l10.741-8.292
			c-0.937,5.343-2.547,12.896-7.295,15.695c-0.768,0.509-2.038,0.849-2.972,0.849c-0.765,0-1.868-0.339-2.292-1.271
			c0,0-0.171-0.766,0.512-0.509c0.762,0.254,2.203-0.68,1.439-1.951c-0.425-0.679-1.358-0.595-2.123-0.17
			c-0.675,0.507-0.931,1.44-0.849,2.205c0,0.849,0.679,1.696,1.443,2.207c1.527,0.846,4.326,0.085,6.192-1.02
			c1.106-0.595,2.037-1.104,3.396-2.459c1.529-1.443,1.104-1.104,1.783-1.698c1.016,0,2.46-0.425,3.646-1.02
			c1.358-0.675,2.635-1.525,3.905-2.798L458.278,308.264z M389.099,304.134c1.02-0.846,1.779-1.356,2.459-1.525
			c0.594-0.256,1.868-0.509,2.459,0.169c0.425,0.851-0.506,2.29-0.931,2.799c-0.765,0.765-1.613,1.44-2.803,2.035
			c-2.119,1.104-3.816,0.934-5.937,1.358C386.806,306.257,388.419,304.728,389.099,304.134z M400.542,315.761
			c-0.849,0.421-1.949,0.761-2.717,0.934c-0.422,0.169-2.29,0.591-2.542-0.343c-0.764-2.884,5.598-7.806,8.142-10.011
			c2.293-1.867,3.649-2.714,5.177-3.224c0.847-0.254,1.784-0.509,2.629-0.509c0.512,0,2.376,0,2.463,0.85
			C412.59,308.885,404.105,314.147,400.542,315.761z"/>
		<path fill="#9397CB" d="M168.197,296.505c0,0,5.431-7.808,6.024-8.825c1.274-0.425,2.888-1.188,4.752-1.953
			c1.188-0.509,3.311-1.526,3.311-1.526c6.278-2.885,22.06-10.436,24.518-18.583c0.426-1.442,0.256-2.46-0.339-3.224
			c-0.762-1.103-2.119-1.442-3.647-1.442c-7.212-0.085-15.696,7.128-22.74,15.696l-2.968,3.649
			c-2.292,2.885-4.329,5.346-5.262,6.364c-1.866,0.425-3.055,0.764-7.128,1.357c-5.091,0.765-10.606,0.848-13.234,0.678
			c-3.819-0.339-9.758-2.036-12.39-6.618c-1.95-3.479-1.018-6.958,0.68-9.926c3.14-5.685,10.605-9.758,17.648-11.625
			c5.854-1.612,11.03-1.695,14.084-1.781v-0.849c-4.158,0-7.634,0.424-10.435,1.019c-6.536,1.272-20.194,5.685-23.503,15.442
			c-1.19,3.393-0.763,7.042,2.036,10.266c2.375,2.716,6.193,4.242,10.436,4.753c7.042,0.931,15.102-0.512,18.412-1.02l2.207-0.339
			l-4.751,6.278c-12.389,16.375-18.329,21.297-32.413,22.485c-3.14,0.255-7.974-0.679-10.437-3.647
			c-0.763-0.935-1.104-1.784-1.187-2.633c0-1.016,0.083-1.695,0.847-2.459c0.595,1.021,0.427,1.188,1.529,1.614
			c0.763,0.085,1.358-0.17,1.782-0.68c0.507-0.85,0.338-1.528,0.171-1.952c-0.257-0.595-1.104-1.018-1.952-1.102
			c-1.02,0-2.207,0.762-2.799,1.695c-1.02,1.528-0.851,3.309-0.089,4.922c2.038,4.073,7.045,4.836,9.676,5.007
			C143,318.477,157.253,312.54,168.197,296.505z M177.872,282.249c1.188-1.865,2.46-3.903,3.902-5.769
			c6.025-8.061,13.66-14.764,20.787-14.68c1.441,0,2.631,0.425,3.141,1.528c0.424,0.764,0.254,1.867-0.936,3.818
			c-1.95,3.395-5.684,6.787-9.926,9.501c-6.447,4.074-14.168,7.043-19.004,8.74L177.872,282.249z"/>
		<polygon fill="#9397CB" points="191.093,292.771 192.791,290.733 191.093,288.614 189.396,290.733 		"/>
		<path fill="#9397CB" d="M327.218,347.853l0.941-0.83l0.942-0.833l0.201-0.201l0.739-0.743l0.887-0.884l0.834-0.943l0.83-0.993
			l0.799-0.979l0.226-0.289l0.55-0.707l0.724-0.994l0.691-1.047l0.613-1.035l0.635-1.05l0.011-0.022l0.513-1.028l-1.01,1.028
			l-0.187,0.187l-1.154,1.194l-1.198,1.143l-1.267,1.157l-1.195,1.085l-0.106,0.091l-1.145,0.959l-1.262,1.05l-1.25,0.938
			l-1.25,0.928l-1.302,0.85l-0.163,0.106l-1.139,0.726l-1.355,0.781l-1.381,0.667l-1.355,0.632l-1.41,0.577l-1.395,0.472
			l0.563-0.521l0.578-0.581l0.472-0.667l0.358-0.692l0.364-0.776l0.167-0.616l0.048-0.164l0.163-0.83l0.053-0.889l-0.159-1.463
			l-0.416-1.412l-0.041-0.072l-0.65-1.176l-0.887-1.104l-1.082-0.89l-1.268-0.667l-1.411-0.418l-1.469-0.162l-2.493-0.196
			l-2.246-0.163l-0.969-0.079l-0.528-0.04c2.338-1.884,5.057-4.146,8.405-6.366h0.014c0.384-0.254,0.774-0.506,1.17-0.754
			c3.551-2.23,7.658-4.258,12.82-5.836c-0.349-0.637-0.571-1.232-0.663-1.789c-5.306,1.719-9.409,4.05-12.906,6.587
			c-0.814,0.592-1.588,1.187-2.331,1.784c-2.837,2.275-5.166,4.524-7.255,6.314l-1.628-0.13l-1.671-0.162l-1.342-0.2
			c3.201-1.063,6.144-2.885,8.358-5.821l-0.961-0.003l0.961-0.004c0.2-0.268,0.397-0.547,0.585-0.834
			c2.031-3.095,2.705-6.05,4.085-10.51c0.087-0.291,0.312-0.858,0.626-1.524h0.003c0.884-1.888,2.428-4.545,3.34-3.872
			c1.314,1.04-0.792,2.514-1.101,2.84c1.566-0.055,2.768-2.925,1.213-3.55c-1.394-0.484-3.452,2.263-4.374,4.567h-0.002
			c-0.298,0.744-0.478,1.439-0.478,1.966c-0.181-0.707-0.243-1.358-0.277-1.959l-6.415,0.004c0.154,0.272,0.292,0.594,0.401,0.958
			c0.66-1.847,2.063-0.594,2.538,0.569c1.852,4.453,0.442,8.369-2.064,11.344h-0.005c-2.125,2.521-5.041,4.362-7.42,5.274
			c1.407-0.907,3.713-2.646,4.144-5.268c0.176-1.076,0.035-2.303-0.612-3.68c-1.126-2.472-5.516-2.558-5.516,1.275
			c0.353-1.163,2.016-1.091,2.535-0.141c0.372,0.672,0.421,1.614,0.307,2.538l0,0c-0.135,1.139-0.521,2.23-0.857,2.717
			c-0.858,1.24-1.78,1.979-2.817,2.415l-0.97-0.295l-0.883-0.384l-0.835-0.449l-0.829-0.578l-0.742-0.636l-0.874-0.899
			c0.047-0.599,0.128-1.237,0.26-1.884l-1.548,0.003c0.117,0.594,0.196,1.176,0.245,1.72l-0.275,0.336l-0.722,0.724l-0.743,0.635
			l-0.834,0.579l-0.833,0.45l-0.886,0.383l-0.882,0.273c-1.016-0.442-1.918-1.176-2.763-2.394c-0.334-0.486-0.721-1.579-0.861-2.71
			h-3.283c0.429,2.623,2.738,4.361,4.144,5.268c-2.38-0.913-5.296-2.752-7.422-5.268l-0.77-0.003l0.77-0.004
			c-2.505-2.969-3.919-6.887-2.068-11.344c0.475-1.162,1.877-2.415,2.54-0.568c0.109-0.364,0.245-0.684,0.4-0.959h0.001
			c0.899-1.602,2.408-1.62,2.98-0.004h0.002c0.012,0.037,0.025,0.074,0.036,0.11c0.528,1.85-0.453,1.677-1.214,3.267
			c-0.629,1.378,0.827,2.558,1.987,2.558c-0.42,0-2.307-0.581-1.987-1.987c0.221-1.124,2.161-1.038,1.764-3.552
			c-0.021-0.135-0.044-0.265-0.07-0.396h-0.001c-0.427-2.106-1.295-2.842-2.575-4.008c-1.767-1.619-5.188-1.234-6.511,0.567
			c-0.801,1.028-0.754,2.128-0.829,3.437l0,0c-0.035,0.604-0.093,1.255-0.275,1.962c0-0.528-0.179-1.224-0.478-1.96l-0.924,0.008
			c0.31,0.663,0.54,1.231,0.628,1.524c1.38,4.46,2.053,7.414,4.083,10.51c0.189,0.287,0.383,0.562,0.583,0.841h0.009
			c2.204,2.924,5.128,4.743,8.31,5.808l-1.441,0.213l-1.665,0.164l-1.551,0.123c-2.085-1.789-4.414-4.035-7.25-6.308l-1.91,0.005
			c3.352,2.215,6.073,4.479,8.409,6.362l-0.606,0.048l-0.968,0.079l-2.243,0.163l-2.514,0.195l-1.468,0.162l-1.413,0.418
			l-1.246,0.667l-1.089,0.891l-0.886,1.104l-0.646,1.176l-0.039,0.073l-0.416,1.412l-0.165,1.462l0.053,0.89l0.162,0.829
			l0.041,0.164l0.158,0.616l0.328,0.776l0.416,0.692l0.469,0.668l0.559,0.58l0.584,0.522l-1.414-0.472l-1.413-0.577l-1.355-0.633
			l-1.357-0.667l-1.356-0.78l-1.14-0.727l-0.167-0.106l-1.299-0.85l-1.25-0.929l-1.27-0.937l-1.249-1.051l-1.14-0.959l-0.108-0.091
			l-1.264-1.084l-1.199-1.158l-1.193-1.142l-1.155-1.195l-0.184-0.186l-1.015-1.029l0.515,1.029l0.012,0.021l0.614,1.051
			l0.633,1.034l0.672,1.048l0.741,0.993l0.552,0.707l0.227,0.29l0.78,0.978l0.848,0.994l0.833,0.943l0.888,0.885l0.74,0.742
			l0.203,0.201l0.936,0.833l0.942,0.831l0.941,0.832l0.942,0.777l0.995,0.744l0.724,0.524l0.135,0.088l0.588,0.38l0.798,0.365
			l0.722,0.361l0.728,0.252l0.687,0.163l0.721,0.164l0.69,0.094h0.671h0.687l0.634-0.094l0.615-0.164l0.58-0.163l0.578-0.252
			l0.579-0.305l0.507-0.327l0.38,0.053l0.362,0.053l0.362,0.057h0.364l1.464-0.163l1.414-0.416l0.112-0.059l1.136-0.613l1.102-0.885
			l0.891-1.106l0.685-1.248l0.287-0.979l0.128-0.435l0.149-1.449l0.27-1.462l0.415-1.196l0.17-0.29l0.445-0.757l0.797-0.833
			l0.886-0.689l0.994-0.563l1.034-0.415l1.104-0.27l1.101-0.197l1.087-0.164l1.104-0.057h1.049h0.942h0.831h0.726h0.579h0.577h0.726
			h0.885h0.997h1.048l1.142,0.057l1.158,0.164l1.141,0.197l1.157,0.27l1.086,0.415l1.053,0.563l0.938,0.689l0.781,0.833l0.454,0.757
			l0.178,0.29l0.471,1.196l0.255,1.462l0.16,1.449l0.126,0.435l0.293,0.979l0.686,1.248l0.886,1.106l1.085,0.885l1.157,0.613
			l0.114,0.059l1.412,0.416l1.443,0.163h0.384l0.358-0.057l0.366-0.053l0.361-0.053l0.521,0.327l0.578,0.305l0.581,0.252
			l0.561,0.163l0.636,0.164l0.635,0.094h0.67h0.686l0.672-0.094l0.741-0.164l0.667-0.163l0.743-0.252l0.725-0.361l0.778-0.365
			l0.604-0.38l0.143-0.088l0.72-0.524l0.996-0.744l0.938-0.777L327.218,347.853z M275.859,341.698l0.379,1.142l0.092,1.266
			l-0.092,1.252l-0.208,0.632l-0.171,0.506l-0.613,1.107l-0.743,0.886l-0.942,0.777l-1.033,0.577l-1.158,0.363l-1.249,0.11
			l-1.248-0.11l-1.212-0.363l-1.05-0.577l-0.942-0.777l-0.722-0.886l-0.634-1.107l-0.161-0.506l-0.201-0.632l-0.109-1.252
			l0.109-1.266l0.362-1.142l0.313-0.54l0.321-0.56l0.722-0.89l0.942-0.777l1.05-0.578l1.212-0.365l1.248-0.087l1.249,0.087
			l1.158,0.365l1.033,0.578l0.942,0.777l0.743,0.89l0.312,0.56L275.859,341.698z M308.723,349.266l-0.942-0.777l-0.721-0.886
			l-0.635-1.107l-0.161-0.506l-0.2-0.632l-0.107-1.252l0.107-1.266l0.362-1.142l0.313-0.54l0.321-0.56l0.72-0.89l0.943-0.777
			l1.052-0.578l1.195-0.365l1.244-0.087l1.268,0.087l1.145,0.365l1.048,0.578l0.939,0.777l0.724,0.89l0.324,0.56l0.312,0.54
			l0.359,1.142l0.112,1.266l-0.112,1.252l-0.198,0.632l-0.16,0.506l-0.637,1.107l-0.723,0.886l-0.939,0.777l-1.048,0.577
			l-1.145,0.363l-1.268,0.11l-1.244-0.11l-1.196-0.363L308.723,349.266z"/>
		<polygon fill="#9397CB" points="361.024,350.406 359.251,349.793 357.515,349.208 355.795,348.74 354.018,348.378 
			352.342,348.017 350.673,347.746 349.118,347.544 347.597,347.381 346.184,347.33 344.882,347.274 343.725,347.24 
			342.678,347.274 341.842,347.33 341.122,347.438 340.649,347.601 339.652,348.16 338.709,348.63 337.879,349.051 337.045,349.429 
			336.196,349.736 335.219,350.151 334.062,350.57 333.419,350.819 332.706,351.092 333.954,351.508 335.274,351.763 
			336.667,351.926 338.131,351.926 339.652,351.872 341.281,351.708 342.998,351.563 344.775,351.349 346.652,351.148 
			348.646,350.928 349.81,350.819 350.729,350.729 352.918,350.619 355.163,350.57 357.565,350.619 360.084,350.783 
			360.357,350.819 362.691,351.092 362.024,350.819 		"/>
		<path fill="#9397CB" d="M255.894,350.514l-0.884-0.578l-0.779-0.564l-0.799-0.521l-0.67-0.577l-0.687-0.526l-0.561-0.506
			l-0.579-0.525l-0.524-0.524l-0.201-0.201l-0.326-0.328l-0.522-0.521l-0.471-0.525l-0.47-0.509l-0.527-0.521l-0.469-0.579
			l-0.509-0.578l-0.628-0.616l-0.583-0.417l-0.407-0.234h-9.466c0.539,0.494,1.081,1.002,1.618,1.521l1.83,1.519l1.721,1.306
			l0.748,0.484l1.042,0.67l1.828,1.087l1.864,0.941l1.992,0.777l1.989,0.636l2.085,0.521l1.131,0.197l0.966,0.167l2.19,0.164
			l-0.491-0.33L255.894,350.514z"/>
		<polygon fill="#9397CB" points="304.598,348.903 304.183,347.799 303.927,346.714 303.799,345.988 303.711,345.504 
			303.402,344.305 302.985,343.113 302.299,341.957 301.934,341.485 301.613,341.157 301.519,341.066 301.05,340.651 
			300.527,340.286 299.946,339.929 299.365,339.619 298.694,339.293 298.065,339.038 297.396,338.824 296.65,338.68 295.93,338.516 
			295.188,338.408 294.412,338.353 293.685,338.353 292.89,338.353 292.162,338.459 293.411,339.293 294.298,340.179 
			294.987,341.12 295.006,341.157 295.402,342.118 295.767,343.166 296.075,344.143 296.509,345.138 296.942,345.988 
			297.016,346.132 297.486,346.802 297.918,347.438 298.387,347.96 298.842,348.488 299.313,348.903 299.783,349.266 
			300.308,349.574 300.833,349.843 301.412,350.042 301.993,350.259 302.607,350.369 303.242,350.456 303.927,350.57 
			304.651,350.619 305.432,350.677 306.262,350.677 305.283,349.843 		"/>
		<path fill="#9397CB" d="M335.743,348.687l1.866-0.94l1.826-1.089l1.041-0.67l0.752-0.484l1.719-1.306l1.827-1.519
			c0.538-0.519,1.079-1.027,1.618-1.521h-9.464l-0.405,0.234l-0.586,0.417l-0.628,0.616l-0.507,0.578l-0.471,0.579l-0.526,0.521
			l-0.472,0.51l-0.467,0.524l-0.526,0.522l-0.327,0.327l-0.198,0.201l-0.525,0.524l-0.574,0.526l-0.563,0.507l-0.685,0.524
			l-0.674,0.577l-0.796,0.522l-0.78,0.563l-0.887,0.578l-0.449,0.307l-0.491,0.328l2.191-0.163l0.967-0.165l1.132-0.199l2.082-0.521
			l1.99-0.637L335.743,348.687z"/>
		<polygon fill="#9397CB" points="248.08,350.57 246.921,350.151 245.925,349.736 245.041,349.429 244.261,349.051 243.426,348.63 
			242.486,348.16 241.493,347.601 241.021,347.438 240.277,347.33 239.444,347.274 238.416,347.24 237.257,347.274 235.953,347.33 
			234.54,347.381 233.02,347.544 231.464,347.746 229.783,348.017 228.116,348.378 226.345,348.74 224.604,349.208 222.89,349.793 
			221.115,350.406 220.117,350.819 219.451,351.092 221.782,350.819 222.057,350.783 224.569,350.619 226.958,350.57 
			229.203,350.619 231.411,350.729 232.33,350.819 233.492,350.928 235.482,351.148 237.366,351.349 239.136,351.563 
			240.858,351.708 242.486,351.872 243.99,351.926 245.456,351.926 246.867,351.763 248.172,351.508 249.436,351.092 
			248.723,350.819 		"/>
		<g>
			<path fill="#9397CB" d="M411.178,349.337c-1.211-1.009-1.729-2.222-1.771-3.349l-1.113,0.01
				c-0.259,1.581,0.134,3.367,1.569,4.821h0.007c0.148,0.149,0.311,0.296,0.48,0.439c3.023,2.545,6.72,1.707,9.545-0.439
				c1.695-1.29,3.072-3.048,3.805-4.831l-2.025,0.01C419.625,349.522,414.788,352.331,411.178,349.337z"/>
			<path fill="#9397CB" d="M423.105,341.164c-0.115,0.887-0.308,1.812-0.587,2.776c-0.159,0.686-0.45,1.384-0.844,2.048l2.026-0.004
				c0.154-0.377,0.275-0.754,0.374-1.131c0.368-1.296,0.613-2.529,0.746-3.696L423.105,341.164z"/>
			<path fill="#9397CB" d="M414.898,343.541c-2.691-3.302-6.069-0.857-6.604,2.447l1.114-0.007
				C409.304,343.006,412.451,340.541,414.898,343.541z"/>
		</g>
		<polygon fill="#9397CB" points="261.183,342.532 261.491,341.392 261.543,341.157 261.763,340.179 261.871,338.878 
			261.763,337.521 261.457,336.381 261.419,336.302 260.93,335.273 260.129,334.188 259.194,333.142 258.158,332.144 
			256.895,331.314 255.589,330.588 254.178,330.009 254.974,331.314 255.389,332.524 255.535,333.663 255.535,334.766 
			255.389,335.802 255.312,336.302 255.227,336.853 255.12,337.938 255.174,339.038 255.445,340.597 255.594,341.157 
			255.809,341.957 256.331,343.057 257.003,344.055 257.888,344.885 258.884,345.66 259.443,345.988 260.129,346.388 
			261.542,347.13 261.042,345.988 261.035,345.972 260.821,344.831 260.93,343.692 		"/>
		<path fill="#9397CB" d="M244.763,341.012h-0.526l-0.52,0.054h-0.619l-0.743-0.054l-0.886-0.144l-1.027-0.312l-1.27-0.522
			l-1.448-0.798l-1.792-1.086l-2.079-1.411c0,0-0.199-0.16-0.536-0.429l-1.59-0.005l1.59-0.005c-1.138-0.894-3.86-3-5.863-4.151
			l-1.603,1.237c0.674,0.271,2.262,1.346,4.287,2.924h0.011c1.684,1.326,3.672,2.997,5.682,4.843l9.466,0.003l-0.06-0.037
			L244.763,341.012z"/>
		<polygon fill="#9397CB" points="288.452,338.353 287.73,338.353 286.935,338.408 286.21,338.516 285.468,338.68 284.747,338.824 
			284.076,339.038 283.44,339.293 282.756,339.619 282.193,339.929 281.615,340.286 281.09,340.651 280.62,341.066 280.529,341.157 
			280.201,341.485 279.842,341.957 279.152,343.113 278.736,344.305 278.429,345.504 278.341,345.988 278.21,346.714 
			277.958,347.799 277.542,348.903 276.853,349.843 275.859,350.677 276.709,350.677 277.487,350.619 278.21,350.57 278.9,350.456 
			279.515,350.369 280.15,350.259 280.727,350.042 281.306,349.843 281.813,349.574 282.336,349.266 282.806,348.903 
			283.278,348.488 283.747,347.96 284.219,347.438 284.634,346.802 285.105,346.132 285.18,345.988 285.631,345.138 
			286.046,344.143 286.373,343.166 286.736,342.118 287.137,341.157 287.152,341.12 287.822,340.179 288.71,339.293 
			289.973,338.459 289.231,338.353 		"/>
		<path fill="#9397CB" d="M424.659,336.302c-0.496-2.518-1.652-4.64-3.305-6.415h-0.003c-7.572-8.102-25.548-8.855-38.257-6.62
			c-4.396,0.783-8.503,1.799-12.422,2.972c-3.015-3.208-8.553-5.265-14.762-6.346c1.602-0.891,3.208-1.856,4.797-2.884h0.006
			c7.32-4.724,14.264-10.709,18.768-16.582l27.954-32.86h-3.905c0,0-6.875,7.891-11.878,13.576
			c-3.054,3.479-8.399,8.739-8.399,8.739c-2.973,3.138-8.149,7.042-13.153,9.841c-5.939,3.226-11.792,4.751-12.812,1.782
			c-0.595-1.613,2.968-5.516,6.366-8.993l5.853-5.939c7.805-7.892,11.961-12.387,10.605-19.09c-0.678-3.139-3.138-4.498-5.685-5.345
			c-7.38-2.462-19.854,1.272-26.896,8.399c-3.141,3.14-5.179,7.043-4.411,9.842c0.679,2.545,2.966,3.818,5.173,4.327
			c8.824,1.953,18.754-6.024,26.982-15.357l-0.425-0.51c-6.62,7.636-12.812,11.795-17.989,14c-3.223,1.442-7.891,2.121-10.688,0.084
			c-1.614-1.104-2.294-2.29-2.207-4.073c0.085-4.496,4.666-8.654,9.333-11.793c6.365-4.157,15.869-6.28,21.466-3.988
			c2.208,0.934,3.903,2.46,4.327,4.412c0.847,4.412-6.025,11.198-9.333,14.424l-5.683,5.599c-4.161,4.158-8.828,9.672-7.979,13.916
			c0.34,1.527,1.273,2.119,2.462,2.462c6.957,2.035,18.155-6.535,24.859-12.392c0,0-5.26,6.026-12.642,14.256
			c-2.89,3.192-8.355,7.486-14.281,11.248h-0.016c-1.317,0.835-2.659,1.644-4,2.405c-2.956-0.341-5.981-0.475-8.894-0.428
			c-0.982-0.7-1.922-1.341-2.855-1.967c-0.768-0.516-1.535-1.021-2.312-1.534l-0.019-0.018c-0.104-0.102-1.12-0.62-1.27-0.703
			c-1.214-0.663-6.242-1.367-8.102,2.063c-0.036,0.057-0.069,0.115-0.1,0.183h-0.005c-0.905,1.692-0.741,4.114-0.009,5.344
			c1.273,2.798,4.06,3.537,6.519,3.792c3.273,0.395,7.497-0.487,12.089-2.26c1.736,1.556,3.692,3.386,5.99,5.628
			c0.133,0.126,0.264,0.256,0.402,0.388h0.008c2.568,2.418,6.013,4.917,9.273,6.415c3.506,1.601,6.803,2.051,8.561,0h-1.851
			c-1.031,0.805-2.493,0.677-4.163,0c-0.324-0.129-0.655-0.28-0.99-0.449c-2.793-1.394-5.878-3.964-8.117-5.966l-1.359-0.003
			l1.359-0.003c-0.559-0.501-1.065-0.966-1.504-1.371c-2.267-2.099-4.239-3.821-6.013-5.284c1.688-0.713,3.416-1.538,5.158-2.451
			c6.642,0.649,12.434,2.442,15.28,5.805c-3.255,1.009-6.384,2.126-9.438,3.309c-0.551,0.211-1.1,0.425-1.65,0.642l1.494,1.293
			c1.698-0.67,3.386-1.321,5.066-1.943c1.836-0.677,3.66-1.317,5.484-1.916c0.326,0.603,0.572,1.245,0.729,1.926
			c0.175,0.782,0.232,1.613,0.167,2.499c-0.155,2.025-0.692,3.262-1.505,3.906l1.851,0.009c0.653-0.764,1.093-1.867,1.257-3.386
			c0.113-1.079,0.029-2.085-0.229-3.028c-0.227-0.821-0.585-1.595-1.059-2.318c4.421-1.399,8.811-2.522,13.192-3.204
			c12.326-1.925,26.94-0.686,34.032,5.522l1.6,0.002l-1.6,0.003c1.978,1.733,3.368,3.856,3.963,6.409h0.001
			c0.345,1.475,0.42,3.096,0.187,4.856h1.716C425.016,339.397,424.952,337.783,424.659,336.302L424.659,336.302z M336.118,325.283
			c-2.374-0.17-4.239-0.935-5.513-2.718c-0.679-0.932-0.751-1.921-0.837-2.767c0-1.017,0.305-2.3,0.647-2.793l-0.594-0.004
			l0.594-0.003c0.028-0.044,0.06-0.083,0.088-0.111c3.347-3.446,7.107-0.927,7.38-0.814c0.419,0.308,0.831,0.613,1.244,0.932h0.011
			c0.874,0.65,1.741,1.312,2.639,2.016c-2.428,0.106-4.765,0.338-6.909,0.692c-1.587,0.263-2.735,0.497-4.173,0.874
			c0.255,0.864,0.494,1.472,0.821,1.785c1.496-0.374,2.751-0.624,4.398-0.899c2.467-0.407,5.123-0.703,7.833-0.859
			c0.756,0.62,1.545,1.292,2.388,2.024C342.229,324.383,338.672,325.434,336.118,325.283z M347.58,321.971
			c-0.646-0.512-1.271-0.993-1.871-1.446c1.584-0.05,3.167-0.053,4.73,0C349.477,321.038,348.521,321.521,347.58,321.971z"/>
		<path fill="#9397CB" d="M352.08,336.312h0.011c2.025-1.579,3.614-2.651,4.285-2.924l-1.604-1.237
			c-2.002,1.152-4.724,3.258-5.861,4.151l1.59,0.004l-1.59,0.006c-0.34,0.268-0.538,0.428-0.538,0.428l-2.078,1.412l-1.793,1.085
			l-1.446,0.8l-1.271,0.522l-1.027,0.31l-0.886,0.146l-0.742,0.053h-0.622l-0.519-0.053h-0.529l-0.471,0.107l-0.06,0.037
			l9.465-0.004C348.405,339.308,350.392,337.637,352.08,336.312z"/>
		<path fill="#9397CB" d="M212.314,336.292h0.001c-0.812-0.645-1.352-1.88-1.504-3.905c-0.067-0.896-0.017-1.729,0.143-2.5h-1.518
			c-0.259,0.943-0.343,1.949-0.228,3.028c0.163,1.529,0.597,2.635,1.239,3.387c1.7,2.011,4.859,1.553,8.295,0.003l-2.265-0.003
			C214.806,336.979,213.345,337.106,212.314,336.292z"/>
		<g>
			<path fill="#9397CB" d="M171.874,351.259c0.173-0.146,0.338-0.295,0.489-0.439h-10.034
				C165.154,352.966,168.851,353.804,171.874,351.259z"/>
			<path fill="#9397CB" d="M173.931,345.988c-0.54-3.311-3.914-5.746-6.605-2.447c2.447-3,5.594-0.537,5.491,2.442
				c-0.042,1.132-0.557,2.345-1.767,3.354c-3.611,2.994-8.448,0.186-10.5-3.349h-0.005c-0.391-0.672-0.677-1.366-0.839-2.048
				c-0.276-0.965-0.47-1.89-0.587-2.783h0c-0.232-1.771-0.155-3.389,0.189-4.855l-1.742,0.006c-0.292,1.479-0.355,3.093-0.156,4.85
				c0.13,1.167,0.375,2.4,0.744,3.696c0.095,0.377,0.22,0.754,0.374,1.135h0.001c0.735,1.785,2.11,3.541,3.801,4.831l10.034-0.007
				c1.432-1.447,1.828-3.233,1.571-4.824H173.931z"/>
			<path fill="#9397CB" d="M267.407,328.103c-4.919-3.568-11.265-6.924-20.051-8.389c-2.144-0.354-4.481-0.586-6.909-0.692
				c0.901-0.708,1.772-1.37,2.651-2.016l-3.002-0.004l3.002-0.007c3.36-2.509,6.801-4.905,12.268-9.327l-0.296-0.368
				c-5.84,4.722-9.584,7.032-13.437,9.608l13.956-17.095h-4.157l-5.091,5.94c-5.429,6.276-15.44,11.709-16.63,9.585
				c-0.084-0.339,0.51-0.93,0.765-1.273c6.109-6.615,8.908-9.245,8.908-12.639c0-1.104-0.338-1.528-1.526-1.698
				c-2.451-0.327-8.749,4.771-11.939,8.406c-4.591,3.797-11.496,8.195-13.017,7.204c-0.424-0.255,0.934-2.203,1.612-3.053
				l13.744-16.885h7.806l0.342-1.019h-7.383l6.28-8.231h-3.055c0,0-4.071,5.261-4.752,6.025c-2.121,2.46-2.629,2.205-4.75,2.205
				l-0.511,1.02h2.124c0,0-5.941,6.276-10.354,10.183c-0.373,0.329-0.885,0.84-1.312,1.277c-6.11,5.852-14.504,10.344-15.86,8.053
				c-0.34-0.594,1.356-4.071,3.988-7.549c1.614-2.12,2.885-3.734,4.242-5.092c0.933-0.765,1.697-1.271,2.885-1.525
				c0.51-0.085,1.527-0.256,2.291,0.849c-0.764-0.259-2.205,0.423-1.95,1.696c0.169,0.85,0.591,0.934,1.102,1.103
				c0.593,0.171,1.186-0.085,1.782-0.595c0.51-0.508,0.595-1.443,0.424-2.122c-0.169-0.847-0.679-1.525-1.696-1.864
				c-2.291-0.765-5.771,1.357-7.551,3.308c0.087-1.272,0-1.784-0.169-2.119c-0.425-0.934-1.188-1.019-1.781-1.188
				c-3.285-0.676-10.489,4.916-13.418,8.317c-4.483,3.529-12.273,8.806-13.7,7.377c-0.68-0.679,1.272-2.968,2.374-4.326
				c3.563-4.073,8.826-10.69,8.826-10.69h-2.799c-0.427,0.34-2.038,1.694-3.905,3.139c-1.613,1.275-4.412,3.224-4.412,3.224
				l0.511,0.596c0.762-0.341,3.732-2.63,3.732-2.63s-3.396,4.073-3.988,4.921c-1.527,2.205-2.714,4.324-2.291,5.43
				c0.255,0.849,1.102,1.358,1.867,1.528c3.223,0.594,12.556-6.107,15.866-9.334l-0.021-0.022c1.217-1.124,2.885-2.62,4.315-3.541
				c2.46-1.698,6.11-4.241,7.467-2.374c0.934,1.27-5.855,8.821-7.128,10.265c-1.696,1.868-2.715,2.629-3.732,3.224
				c-0.507,0.255-1.865,0.764-2.714,0.679c-0.595-0.086-1.274-0.34-1.612-1.016c0.849,0.081,2.374-0.341,2.205-1.699
				c-0.084-0.85-0.511-1.104-0.933-1.188c-0.848-0.171-1.358,0.168-1.697,0.425c-0.507,0.424-0.934,1.188-0.763,2.292
				c0.169,1.186,0.934,1.78,1.356,2.033c2.205,0.85,5.939-0.765,9.418-3.987c0,1.61-0.592,3.054,1.697,3.902
				c4.051,1.099,10.619-3.262,16.367-8.902c0.204-0.16,0.426-0.337,0.721-0.601c1.019-1.019,5.346-5.006,5.346-5.006
				c-4.327,5.346-9.419,11.965-7.551,14.171c2.126,1.897,9.346-2.459,14.429-7.045l0.006,0.003c0.044-0.044,0.094-0.092,0.14-0.137
				c0.54-0.492,1.064-0.988,1.546-1.476l-0.001-0.001c3.728-3.455,9.003-7.616,10.025-6.449c0.34,0.343-1.188,1.784-2.207,2.803
				c-3.732,3.731-8.23,7.975-7.466,11.198c0.255,1.103,0.424,1.697,1.441,2.036c0.067,0.022,0.134,0.041,0.203,0.054l0.555,0.001
				l-0.555,0.003c0.467,0.114,1.007,0.105,1.603,0.003h0.061c3.067-0.537,7.553-3.551,10.863-6.17l-1.272,1.782
				c-0.977,1.337-2.055,2.915-3.07,4.375h-0.003c-0.488,0.698-0.962,1.369-1.404,1.966c-9.841,0.119-20.488,2.327-25.136,7.273
				c-3.918-1.173-8.027-2.189-12.422-2.972c-12.713-2.236-30.691-1.48-38.259,6.62l0.799,0.002l-0.801,0.002
				c-1.654,1.773-2.811,3.896-3.306,6.411l1.742-0.006c0.594-2.545,1.983-4.666,3.958-6.404h0.007
				c7.092-6.213,21.707-7.451,34.032-5.527c4.382,0.681,8.772,1.806,13.193,3.205c-0.475,0.723-0.835,1.497-1.061,2.317l1.519-0.011
				c0.143-0.688,0.371-1.336,0.676-1.939c1.854,0.606,3.717,1.262,5.584,1.95c1.675,0.619,3.355,1.267,5.043,1.934l1.496-1.292
				c-0.538-0.212-1.076-0.423-1.616-0.634c-3.107-1.197-6.289-2.333-9.604-3.357c3.753-4.696,13.029-6.249,22.889-5.932
				c-1.917,2.063-4.499,4.355-8.334,7.903c-0.438,0.405-0.943,0.871-1.502,1.377c-2.241,2.002-5.325,4.572-8.117,5.966
				c-0.337,0.169-0.67,0.32-0.992,0.449h2.264c3.372-1.515,7.014-4.088,9.809-6.409c0.03-0.027,0.061-0.054,0.093-0.078
				c4.652-3.884,7.62-7.049,10.237-9.208c2.711,0.156,4.962,0.459,7.429,0.866c8.705,1.451,15.232,4.454,20.348,7.668
				c0.399,0.248,0.789,0.501,1.17,0.746l1.91-0.003C268.997,329.289,268.222,328.695,267.407,328.103z"/>
		</g>
		<polygon fill="#9397CB" points="326.747,332.524 327.168,331.314 327.944,330.009 326.532,330.588 325.228,331.314 
			323.977,332.144 322.875,333.142 321.991,334.188 321.212,335.273 320.72,336.302 320.687,336.381 320.378,337.521 
			320.271,338.878 320.378,340.179 320.579,341.157 320.63,341.392 320.956,342.532 321.212,343.692 321.322,344.831 
			321.102,345.972 321.095,345.988 320.577,347.13 321.991,346.388 322.689,345.988 323.256,345.66 324.233,344.885 
			325.083,344.055 325.809,343.057 326.331,341.957 326.545,341.157 326.693,340.597 326.966,339.038 327.004,337.938 
			326.91,336.853 326.824,336.302 326.747,335.802 326.589,334.766 326.589,333.663 		"/>
		<path fill="#9397CB" d="M282.12,327.342c0.519-0.95,2.186-1.022,2.537,0.142c0-3.834-4.391-3.748-5.516-1.276
			c-0.649,1.377-0.79,2.604-0.614,3.68l3.284-0.006C281.701,328.964,281.75,328.016,282.12,327.342z"/>
		<path fill="#9397CB" d="M289.183,326.434c0.59,1.139,0.959,2.327,1.184,3.453l1.548-0.006c0.223-1.129,0.592-2.312,1.179-3.447
			c1.104-2.13,0.92-1.847,2.242-4.119c0.695-1.208,2.35-3.863,1.29-4.403l-5.488,5.226l-5.485-5.226
			c-1.059,0.54,0.595,3.195,1.288,4.403C288.265,324.588,288.08,324.305,289.183,326.434z"/>
		<path fill="#9397CB" d="M302.365,322.939c1.157,0,2.614-1.18,1.984-2.557c-0.761-1.59-1.742-1.418-1.214-3.268
			c0.013-0.038,0.024-0.079,0.038-0.109l-0.52,0.007c-0.025,0.124-0.047,0.255-0.072,0.389c-0.393,2.514,1.548,2.428,1.768,3.552
			C304.67,322.358,302.783,322.939,302.365,322.939z"/>
		<path fill="#9397CB" d="M306.154,317.006l6.415-0.004c-0.076-1.308-0.028-2.405-0.827-3.437c-1.324-1.802-4.746-2.187-6.51-0.567
			c-1.283,1.167-2.151,1.902-2.579,4.008l0.52-0.007C303.745,315.389,305.251,315.408,306.154,317.006z"/>
		<path fill="#9397CB" d="M268.029,317.006l0.924-0.007c-0.921-2.303-2.985-5.054-4.378-4.569c-1.556,0.626-0.354,3.494,1.213,3.551
			c-0.309-0.327-2.417-1.802-1.103-2.839C265.598,312.468,267.146,315.125,268.029,317.006z"/>
	</g>
</g>
</svg>
